{"glyphs":{"0":{"ha":997,"x_min":56,"x_max":940,"o":"m 874 157 q 870 151 872 154 q 865 144 868 147 q 857 133 861 139 q 847 121 853 126 q 839 111 843 115 q 831 103 835 107 q 828 101 829 101 q 825 97 826 100 l 811 85 q 808 82 810 83 q 804 78 807 81 q 799 69 801 74 q 792 61 796 65 q 783 56 789 58 q 778 57 775 56 q 774 54 781 58 q 768 47 772 51 q 761 33 764 40 q 750 21 758 26 q 735 18 743 17 q 719 17 726 19 l 707 13 l 707 11 q 701 6 704 8 q 694 0 699 3 q 688 2 689 -1 q 683 8 686 6 q 674 -4 679 3 q 663 -14 669 -11 q 651 -13 656 -17 q 643 -7 647 -10 q 637 -17 640 -12 q 626 -31 633 -22 l 624 -33 q 622 -34 622 -33 q 619 -35 621 -35 q 617 -58 618 -46 q 614 -81 617 -69 q 612 -99 613 -90 q 608 -118 611 -108 q 606 -126 607 -121 q 603 -129 604 -131 q 599 -115 599 -122 q 597 -101 599 -108 q 596 -72 593 -76 q 588 -54 599 -68 q 582 -60 585 -57 q 576 -68 579 -64 q 565 -83 572 -76 q 564 -84 564 -83 q 563 -85 564 -85 l 560 -87 q 556 -115 557 -101 q 553 -142 556 -128 q 550 -147 553 -143 q 547 -150 547 -151 q 544 -116 544 -133 q 542 -83 544 -99 q 532 -69 535 -75 q 531 -69 531 -69 q 531 -68 531 -68 q 520 -47 525 -57 q 508 -26 515 -36 q 499 -16 503 -17 q 492 -14 496 -15 q 491 -24 490 -15 q 482 -14 492 -32 q 291 22 372 -11 q 154 113 210 56 q 151 117 153 115 q 149 119 150 118 q 133 139 140 129 q 114 167 122 153 q 104 184 108 175 q 96 203 100 193 q 93 210 94 206 q 89 217 92 214 q 86 226 88 221 q 82 236 85 231 l 78 249 q 69 269 74 257 q 69 274 69 272 q 68 276 68 275 q 63 310 64 293 q 60 344 61 326 q 56 448 56 396 q 57 518 56 500 l 57 575 q 60 635 58 604 q 68 686 63 665 q 87 750 75 719 q 115 807 99 781 q 126 825 121 817 q 139 840 132 833 q 285 947 194 910 q 500 986 376 985 l 510 986 q 532 985 521 986 q 553 983 543 985 q 563 982 561 983 q 749 928 669 972 q 875 815 828 885 q 880 808 878 813 q 883 801 882 804 l 892 786 q 899 773 896 781 q 906 758 903 765 q 911 744 908 751 q 915 731 914 738 q 928 679 924 707 q 931 664 931 672 q 933 646 932 656 q 939 563 938 622 q 938 443 940 503 l 933 342 q 923 272 931 306 q 901 207 915 239 q 897 195 900 201 q 890 182 893 189 l 883 171 q 881 167 883 169 q 874 157 879 163 m 526 264 q 547 278 540 268 q 564 306 558 289 q 571 338 569 322 q 572 344 571 340 q 572 350 572 347 q 574 392 574 369 q 575 439 575 415 l 575 522 q 574 551 575 538 q 574 576 574 565 l 574 593 q 573 611 574 603 q 572 628 572 619 q 571 644 572 636 q 568 660 569 653 q 564 672 567 667 q 558 683 561 678 q 551 696 556 690 q 540 704 547 701 q 538 703 539 704 q 535 701 538 701 q 530 707 532 704 q 525 710 528 710 q 524 707 524 708 q 522 704 524 706 q 519 697 522 703 q 514 694 517 694 q 510 693 511 694 q 509 693 510 693 q 508 692 508 693 q 503 678 506 686 q 490 669 500 669 q 478 678 481 669 q 474 692 476 686 q 468 694 471 692 l 465 701 q 463 708 465 708 l 453 704 q 431 672 438 692 q 422 628 424 651 q 420 587 421 610 q 419 539 419 564 l 419 439 q 420 392 419 415 q 422 349 421 368 q 423 340 422 344 q 424 333 424 336 q 424 330 424 332 q 425 326 425 328 q 441 286 429 304 q 475 261 453 268 q 488 259 482 260 q 499 258 493 258 l 510 260 l 526 264 z "},"1":{"ha":774,"x_min":13,"x_max":699,"o":"m 696 104 q 697 67 696 86 q 696 31 699 49 q 693 24 696 26 l 689 15 q 686 12 688 14 q 682 8 685 10 q 681 8 682 8 q 681 7 681 8 q 675 -10 674 -8 q 676 -12 676 -11 q 665 -32 676 -14 q 664 -35 664 -33 q 642 -103 654 -65 q 619 -172 631 -140 q 612 -195 615 -183 q 603 -218 608 -207 q 598 -228 601 -222 q 592 -236 594 -233 q 586 -239 589 -239 q 581 -237 581 -239 q 578 -179 579 -217 q 578 -105 578 -142 q 575 -47 578 -68 q 564 -44 575 -46 q 559 -52 563 -49 q 553 -58 556 -56 q 550 -61 553 -58 q 535 -67 543 -71 q 533 -63 533 -65 q 529 -60 532 -61 l 522 -51 q 521 -49 521 -50 q 519 -47 521 -49 l 513 -40 q 506 -37 510 -39 q 500 -35 503 -36 q 498 -36 499 -36 q 494 -31 497 -36 q 486 -25 493 -31 q 481 -21 481 -19 q 478 -55 478 -37 q 475 -87 478 -72 q 472 -84 474 -92 q 469 -72 471 -76 q 469 -45 467 -50 q 461 -22 471 -40 q 459 -26 461 -24 q 457 -28 457 -28 q 455 -28 456 -28 q 453 -29 454 -29 q 455 -97 451 -60 q 447 -167 458 -135 q 445 -169 443 -179 q 450 -137 447 -158 q 451 -96 453 -117 q 442 -67 450 -75 q 433 -75 433 -58 q 434 -115 432 -92 q 438 -152 436 -137 q 436 -156 439 -167 q 433 -89 431 -124 q 432 -24 435 -54 q 425 -18 428 -19 l 419 -12 q 416 -10 415 -8 q 414 -14 417 -11 q 407 -14 414 -14 q 401 -25 404 -19 q 392 -26 397 -31 q 385 -19 382 -18 q 389 -17 388 -19 q 374 1 390 -15 q 364 7 368 4 q 349 38 349 18 l 349 565 q 349 586 349 586 q 343 594 350 586 q 339 589 342 592 q 333 583 333 583 q 333 585 333 583 q 322 572 328 578 q 310 560 317 565 q 278 532 294 544 q 277 531 278 531 q 276 529 276 531 q 267 514 271 521 l 258 500 q 244 481 253 490 q 229 467 236 472 q 224 463 228 465 q 219 457 221 460 q 217 444 218 451 q 214 431 217 438 q 207 429 213 429 q 200 440 201 433 q 193 451 199 447 l 193 449 q 192 444 193 446 l 192 429 q 190 401 190 415 q 189 375 190 386 q 188 369 186 369 q 185 371 188 367 q 185 372 183 375 q 184 376 185 375 q 183 379 183 378 l 179 388 q 176 399 178 393 q 171 410 174 404 q 165 426 168 418 q 160 443 163 435 q 157 453 158 449 q 153 464 156 458 q 152 468 153 467 q 151 471 151 469 q 150 476 150 474 q 149 482 150 479 q 145 486 147 483 q 140 490 143 489 q 135 496 140 490 q 126 507 131 501 q 116 522 121 514 q 104 536 111 529 l 79 569 l 60 596 q 52 605 56 600 q 44 614 49 610 l 25 638 q 21 644 25 636 q 18 649 17 651 l 14 657 q 13 674 13 661 q 15 683 13 678 q 18 690 15 685 q 27 702 21 697 q 39 711 33 707 l 51 719 q 56 722 54 721 q 58 724 57 722 l 69 732 q 110 764 89 750 l 154 799 q 158 801 157 800 q 161 804 160 803 q 197 833 178 819 q 236 861 217 847 l 304 915 q 308 918 307 918 l 321 928 l 347 949 q 361 960 354 954 q 376 969 368 967 q 394 972 385 972 q 413 972 403 972 l 599 972 q 635 974 615 972 q 671 971 654 976 q 692 953 685 965 q 693 950 693 951 q 694 946 693 949 q 696 939 696 943 q 696 932 696 935 q 697 913 697 922 q 696 896 696 904 l 696 104 z "},"2":{"ha":978,"x_min":47,"x_max":926,"o":"m 925 49 q 924 38 925 44 q 924 31 924 32 q 923 28 924 29 q 922 25 922 26 q 920 21 921 24 q 917 15 919 18 q 910 7 914 11 q 903 0 906 3 q 890 -12 885 -18 q 900 0 894 -7 q 896 -3 899 -1 q 890 -7 893 -4 q 888 -12 890 -7 q 882 -24 885 -18 q 874 -35 879 -29 q 862 -42 869 -37 q 849 -47 854 -47 q 842 -45 839 -46 q 849 -43 846 -44 q 839 -39 853 -42 l 826 -51 q 808 -69 817 -60 q 790 -89 799 -78 l 781 -101 q 775 -109 778 -106 q 769 -117 772 -112 q 757 -139 761 -128 q 753 -146 756 -142 q 749 -154 751 -150 q 735 -178 740 -171 q 719 -196 731 -185 q 713 -208 715 -200 q 703 -219 710 -217 q 694 -214 697 -221 q 686 -207 692 -207 q 681 -211 683 -208 l 679 -212 q 667 -231 674 -218 q 654 -254 661 -244 q 642 -264 649 -262 q 644 -306 640 -279 q 653 -358 649 -332 q 654 -399 657 -383 q 636 -408 651 -414 q 616 -372 615 -399 q 624 -312 617 -344 q 631 -260 632 -281 q 628 -257 628 -257 q 627 -256 628 -256 q 626 -256 626 -256 q 620 -249 624 -253 q 614 -244 617 -246 q 611 -243 613 -243 q 608 -242 610 -243 q 606 -256 606 -247 q 603 -271 606 -264 q 599 -276 601 -274 q 596 -282 597 -279 q 594 -321 594 -296 q 595 -368 594 -346 q 594 -400 596 -390 q 590 -396 593 -410 q 585 -315 582 -364 q 581 -228 588 -267 q 571 -212 575 -221 q 564 -193 567 -203 q 553 -158 558 -175 q 543 -124 549 -142 q 528 -78 538 -100 q 508 -35 519 -57 q 506 -34 507 -35 q 503 -33 504 -33 q 497 -33 497 -33 q 494 -98 494 -64 q 492 -164 494 -132 q 489 -165 492 -165 q 486 -164 486 -165 q 483 -98 483 -132 q 481 -33 483 -64 q 479 -32 481 -32 q 474 -46 476 -39 q 468 -60 471 -53 q 465 -69 467 -64 q 461 -78 464 -74 q 446 -121 456 -97 q 439 -140 443 -131 q 431 -158 435 -149 l 422 -175 q 414 -186 417 -183 q 404 -193 408 -192 q 395 -215 399 -203 q 381 -233 392 -228 q 365 -229 372 -237 q 349 -218 357 -221 q 343 -217 346 -218 q 340 -218 343 -218 q 324 -201 331 -215 q 315 -179 318 -187 q 313 -174 314 -176 q 313 -168 313 -171 q 299 -131 306 -150 q 285 -94 293 -112 l 281 -86 q 280 -84 281 -85 q 279 -82 279 -83 q 269 -66 274 -74 q 258 -51 265 -58 q 257 -49 258 -51 q 254 -46 256 -47 l 247 -42 q 241 -47 246 -43 q 236 -53 236 -51 q 233 -97 233 -75 q 231 -142 233 -119 q 227 -156 231 -142 q 219 -172 224 -169 q 214 -169 218 -174 q 208 -154 211 -165 q 200 -95 201 -125 q 193 -35 199 -65 q 192 -34 192 -35 q 190 -33 192 -33 q 190 -32 190 -32 q 189 -32 189 -32 q 180 -24 185 -28 q 174 -18 175 -19 l 171 -15 q 168 -20 168 -17 q 165 -22 168 -24 q 158 -14 163 -22 q 156 -23 156 -18 q 153 -33 156 -28 q 147 -37 150 -40 q 147 -19 144 -31 q 142 -10 149 -8 q 137 -20 135 -10 q 136 -37 139 -31 q 134 -38 136 -39 q 131 -36 132 -37 q 125 -35 128 -36 q 119 -35 122 -35 q 95 -22 104 -32 q 79 0 86 -12 l 68 4 q 65 8 67 7 q 60 11 63 10 q 49 32 50 21 q 47 42 47 38 q 47 51 47 46 l 47 63 q 49 110 49 86 q 49 160 49 135 l 49 182 q 53 213 49 190 q 79 254 57 236 q 94 266 86 261 q 110 276 103 271 l 142 300 q 163 315 153 307 q 182 329 172 322 q 232 370 197 344 q 307 424 267 396 q 382 477 347 451 q 432 518 417 503 q 436 521 435 519 q 439 524 438 522 q 463 545 450 535 q 485 565 475 556 q 508 593 499 581 q 525 617 518 606 q 539 667 539 642 q 539 679 539 674 q 536 690 539 685 q 533 697 536 692 q 521 710 531 706 q 517 705 518 708 q 513 699 515 701 q 482 686 499 685 q 469 691 475 686 q 456 700 463 696 q 449 703 454 700 q 444 701 446 703 q 438 696 440 700 q 433 689 436 692 q 424 671 428 681 q 415 651 419 661 q 411 644 413 646 l 408 638 l 406 635 q 390 617 400 625 q 368 603 379 608 q 339 588 354 594 q 307 579 324 581 q 276 582 292 578 q 246 590 261 586 q 236 594 243 592 q 218 600 229 597 q 215 603 218 600 q 214 603 214 603 q 213 604 214 604 q 212 602 213 603 q 211 599 211 601 q 210 593 211 596 q 210 588 210 590 q 208 574 210 578 q 207 569 208 569 q 203 574 206 568 q 201 577 204 572 q 197 582 197 582 l 196 583 l 192 590 q 181 604 185 597 q 180 606 181 606 q 179 607 179 606 q 176 601 178 604 q 168 592 175 599 q 163 588 164 588 q 160 599 160 590 q 151 590 156 594 q 140 581 146 585 q 137 579 139 579 q 133 578 135 579 q 131 558 132 568 q 128 539 131 549 q 126 535 128 538 q 122 533 124 532 q 122 557 119 544 q 117 576 125 569 q 113 570 113 581 q 115 549 114 560 q 111 542 117 539 q 106 562 103 549 q 107 585 110 575 q 105 580 106 588 q 101 574 104 572 q 99 582 96 583 q 103 582 101 581 q 93 601 104 583 q 89 588 93 590 q 87 591 88 586 q 83 599 86 596 q 70 615 69 614 q 77 613 71 617 q 86 608 83 610 q 76 621 82 613 q 74 624 75 622 q 72 626 72 625 l 71 629 q 65 640 67 635 q 65 664 64 651 q 68 688 67 676 q 88 763 72 725 q 94 779 90 771 q 103 796 99 788 q 114 815 107 806 q 117 818 114 815 q 117 819 117 818 q 118 819 117 819 q 133 842 125 832 q 146 857 140 851 q 291 956 203 921 q 488 992 379 992 q 510 992 499 992 q 531 990 521 992 q 542 990 538 992 q 556 990 549 990 q 568 989 563 990 q 582 986 576 989 q 586 985 585 986 q 589 985 588 985 q 595 984 592 985 q 601 983 599 983 l 632 978 q 635 977 633 978 q 638 976 636 976 q 696 960 668 969 q 749 936 724 950 q 749 935 749 936 q 751 935 750 935 q 801 901 781 919 q 863 831 839 871 q 897 740 888 790 q 902 709 901 724 q 903 683 903 694 l 903 681 q 902 661 903 671 q 900 640 901 651 l 900 628 q 899 624 899 626 q 897 618 899 621 q 889 594 896 608 q 849 513 876 553 q 819 475 839 494 q 740 396 786 436 l 719 378 q 710 372 715 375 q 701 364 706 368 q 691 353 696 358 q 679 344 686 347 q 672 340 678 343 q 671 340 671 340 q 669 339 671 339 q 665 325 668 335 q 658 313 663 315 q 653 314 657 311 q 651 317 651 315 q 650 321 651 319 l 631 301 q 625 298 628 300 q 619 294 622 296 q 619 291 619 293 q 618 286 618 289 l 836 286 q 860 288 842 286 q 893 286 878 289 q 915 272 910 282 q 924 253 922 264 q 925 231 926 243 q 924 207 924 218 l 924 99 q 924 74 924 86 q 925 49 925 61 m 71 628 q 71 628 71 628 q 72 626 71 628 q 72 626 72 626 q 74 622 72 626 q 74 622 74 622 q 74 622 74 622 q 71 628 72 625 z "},"3":{"ha":985,"x_min":32,"x_max":939,"o":"m 914 429 q 933 381 926 414 q 939 308 939 347 q 932 235 939 268 q 911 186 925 201 q 905 175 908 181 q 899 164 901 169 q 878 135 889 147 q 867 123 872 129 q 856 111 863 117 l 847 103 q 842 99 844 101 q 836 93 840 97 q 830 87 833 90 q 824 78 826 83 l 818 68 q 813 57 817 63 q 807 46 810 51 q 801 38 804 40 q 797 34 800 36 q 792 31 794 32 q 788 28 789 28 q 784 16 785 22 q 781 3 783 10 q 778 -6 779 0 q 775 -8 776 -11 q 772 8 771 -1 q 769 26 772 18 q 762 30 767 38 q 754 24 757 22 q 752 31 751 26 q 750 38 753 35 l 744 32 q 743 29 744 31 q 737 22 740 25 q 731 17 733 19 q 730 16 731 17 q 728 15 729 15 q 728 15 728 15 q 726 13 728 14 q 724 -11 725 1 q 721 -35 724 -24 q 722 -47 721 -40 q 717 -58 722 -54 q 714 -54 714 -61 q 713 -43 714 -47 q 711 -22 711 -32 q 708 -1 711 -11 l 690 -19 q 683 -28 685 -25 q 670 -44 676 -37 q 660 -57 664 -51 q 655 -62 658 -60 q 649 -68 651 -65 q 639 -78 644 -74 q 628 -87 633 -82 q 624 -91 626 -89 q 618 -96 621 -93 q 616 -108 617 -101 q 614 -121 615 -114 q 608 -160 611 -140 q 600 -200 604 -181 q 594 -228 597 -214 q 583 -256 590 -243 q 579 -260 582 -257 q 572 -261 576 -264 q 567 -253 567 -256 q 566 -194 564 -224 q 561 -137 568 -165 q 559 -142 558 -129 q 561 -174 560 -154 q 562 -206 563 -193 q 556 -212 561 -219 q 547 -169 542 -193 q 550 -124 553 -146 q 549 -126 550 -119 q 548 -140 549 -133 q 546 -143 547 -146 q 542 -122 542 -133 q 540 -101 543 -111 q 536 -99 539 -100 q 528 -90 532 -94 q 522 -81 525 -85 q 519 -76 521 -78 q 517 -71 518 -74 q 511 -60 514 -65 q 506 -50 508 -56 l 501 -40 q 501 -39 501 -39 q 500 -37 500 -39 l 496 -28 l 494 -26 q 486 -16 489 -17 q 479 -14 483 -15 q 478 -18 478 -15 q 475 -21 479 -21 q 472 -18 474 -21 q 468 -14 471 -15 q 222 35 314 -11 q 83 142 129 82 q 52 194 64 164 q 33 253 40 224 q 33 259 33 256 q 32 264 32 263 l 32 282 q 57 306 36 301 q 73 306 64 307 q 90 306 82 306 l 286 306 q 320 307 303 306 q 353 304 338 308 q 372 298 364 303 q 386 286 381 293 l 396 278 l 397 276 q 402 273 399 275 q 403 272 406 271 q 426 263 415 265 q 446 258 436 261 q 450 258 449 258 q 453 257 451 257 q 460 257 456 257 q 467 256 464 257 l 489 256 q 504 257 499 256 q 538 267 522 260 q 564 288 554 274 q 574 308 572 299 q 575 318 575 311 q 575 343 578 329 q 573 350 574 346 q 569 357 572 354 q 567 363 569 360 q 558 372 564 367 q 550 375 553 375 q 515 370 532 378 q 479 356 497 363 q 457 350 469 351 q 433 349 444 349 q 431 347 432 347 q 419 349 428 346 q 378 364 397 350 q 339 385 360 378 q 331 388 333 388 l 321 386 q 292 394 306 386 q 275 417 279 403 q 272 435 272 428 q 273 449 272 442 q 274 461 274 456 l 274 540 q 279 568 274 558 q 286 582 281 574 q 301 596 293 592 l 310 600 q 315 604 313 603 q 321 607 318 606 q 331 613 326 610 q 340 618 335 615 q 351 624 346 619 q 360 628 356 626 q 369 633 365 631 l 394 646 l 465 686 q 468 688 467 688 q 471 689 469 688 q 478 694 474 692 q 486 697 482 696 l 488 701 q 480 698 483 700 q 472 693 476 696 q 451 683 463 688 q 426 678 439 679 q 419 678 422 678 q 411 679 415 679 q 403 676 407 678 q 394 674 399 675 l 375 671 q 368 668 372 669 q 361 665 364 667 q 349 663 356 664 q 335 660 342 661 q 317 653 325 656 q 294 653 306 651 q 274 657 282 656 q 272 632 272 646 q 271 603 271 618 q 271 572 271 588 q 269 542 271 557 l 269 518 q 269 507 269 513 q 268 497 268 501 q 265 499 268 496 q 265 500 265 500 q 264 500 264 500 q 263 503 264 503 q 263 506 263 504 q 257 515 258 513 q 254 523 256 519 q 250 531 253 526 q 245 546 247 538 q 240 561 243 554 q 227 602 233 582 q 214 642 221 622 q 208 656 211 649 q 203 668 206 663 l 196 683 l 196 682 q 193 650 193 667 q 190 618 193 633 q 188 622 189 615 q 185 631 186 628 q 182 637 183 633 q 179 643 181 640 q 173 653 176 649 q 168 664 169 658 q 167 672 167 668 q 165 681 167 676 q 163 674 164 678 q 163 664 163 671 q 159 588 160 633 q 156 511 158 543 q 154 491 156 504 q 152 469 153 478 q 150 468 151 461 q 151 521 147 489 q 157 585 156 553 q 144 638 158 617 q 137 635 138 650 q 139 592 136 619 q 144 536 142 564 q 145 493 146 508 q 138 490 144 478 q 124 542 124 511 q 130 605 125 574 q 132 657 135 636 q 131 651 132 664 q 130 624 131 638 q 126 617 129 610 q 123 643 122 635 q 124 662 124 651 q 117 694 124 672 q 113 699 117 694 q 107 707 110 704 q 104 710 106 710 q 101 713 103 711 l 94 724 q 94 726 94 725 q 93 728 93 726 q 92 733 93 731 q 90 746 90 740 q 90 757 90 751 q 91 770 90 764 q 92 782 92 776 l 92 936 q 94 949 92 940 l 99 957 q 108 965 103 964 q 118 971 113 969 q 145 974 131 975 q 174 972 160 972 l 796 972 q 813 973 804 972 q 831 974 821 974 q 842 974 838 974 q 853 971 847 974 q 864 965 860 969 q 869 958 868 961 q 878 938 876 950 q 880 915 881 928 q 878 890 879 901 l 878 797 q 878 775 878 788 q 878 751 879 763 q 875 739 878 747 q 867 721 874 729 q 859 710 864 715 q 850 700 854 704 q 845 681 849 694 q 842 665 842 668 q 832 624 836 644 q 822 582 828 603 q 821 579 822 579 q 819 567 819 574 q 815 554 818 561 q 814 548 814 551 q 813 542 814 544 q 847 517 829 532 q 913 432 889 482 q 913 431 913 431 q 914 429 914 431 m 758 615 q 756 614 757 614 q 753 613 754 614 q 750 606 751 610 q 746 596 749 601 q 743 586 744 592 q 739 576 742 581 l 760 568 q 765 565 765 565 l 765 588 q 765 602 765 594 q 764 617 764 610 q 762 616 763 617 q 760 615 761 615 l 758 615 z "},"4":{"ha":1021,"x_min":35,"x_max":985,"o":"m 982 231 q 983 206 982 219 q 981 181 985 193 q 976 175 979 178 q 964 161 972 165 l 956 153 q 951 144 954 149 q 944 133 947 139 q 928 115 938 121 q 922 115 922 115 q 918 121 921 117 q 914 126 915 125 q 906 135 908 131 q 900 142 903 139 l 896 149 q 894 147 894 147 q 894 146 894 146 q 890 140 893 144 q 883 133 886 136 q 878 129 879 129 q 876 137 869 138 q 875 133 883 136 l 872 132 l 868 128 q 865 113 865 121 q 863 96 864 104 q 860 81 861 89 q 857 65 860 72 q 853 60 856 64 q 851 57 851 56 q 850 94 849 69 q 840 132 851 118 q 838 135 839 133 q 833 139 836 138 q 831 144 831 142 q 828 143 829 143 q 822 146 824 144 l 822 60 q 823 42 822 51 q 819 24 824 32 l 815 15 l 807 7 q 799 1 804 4 l 781 -17 q 774 -22 778 -18 q 762 -34 768 -28 q 749 -44 756 -40 q 725 -44 736 -51 q 722 -43 724 -44 q 719 -42 721 -42 q 710 -47 714 -40 q 703 -57 706 -54 q 700 -61 701 -58 q 697 -62 699 -64 q 692 -50 694 -58 q 686 -64 689 -58 q 681 -60 686 -64 q 675 -53 679 -57 q 669 -47 671 -49 q 665 -40 665 -40 q 662 -44 663 -42 q 660 -50 661 -47 q 653 -69 658 -57 q 636 -79 647 -82 q 621 -69 626 -76 q 610 -56 615 -61 q 593 -36 600 -47 q 588 -28 590 -33 l 581 -17 q 575 -8 576 -8 q 571 -7 574 -8 q 565 -6 567 -7 q 562 -40 563 -22 q 560 -72 561 -57 q 558 -99 558 -82 q 558 -128 558 -115 q 554 -137 557 -140 q 556 -178 557 -162 q 539 -192 554 -194 q 521 -169 524 -187 q 522 -125 518 -150 q 531 -76 526 -100 q 533 -36 535 -51 q 531 -28 533 -33 q 526 -26 528 -24 q 525 -47 525 -33 q 525 -69 525 -60 q 524 -71 525 -78 q 519 -44 519 -51 q 520 -30 519 -37 q 514 1 521 -22 q 503 8 508 4 q 489 38 489 19 l 489 156 l 478 153 q 476 151 476 151 q 474 150 475 151 q 467 143 474 150 q 463 143 467 143 q 453 135 458 139 q 439 124 449 131 q 436 119 438 122 q 433 118 435 117 q 431 128 432 124 q 431 139 431 133 l 422 131 q 419 126 421 129 q 417 121 418 124 q 413 114 415 118 q 407 104 410 110 q 402 92 404 99 q 397 79 400 86 q 380 15 386 49 q 361 -50 374 -18 q 351 -75 356 -62 q 338 -99 346 -87 l 328 -108 q 324 -111 326 -108 q 320 -172 321 -142 q 317 -233 319 -203 q 314 -236 317 -235 q 311 -236 311 -237 q 308 -193 308 -206 q 308 -173 308 -181 q 307 -151 308 -165 q 300 -103 306 -136 q 292 -94 296 -99 q 285 -83 289 -89 q 263 -60 275 -69 q 239 -37 250 -50 q 227 -22 232 -31 q 217 -3 222 -12 q 213 8 215 3 q 207 19 210 14 q 187 69 197 43 q 158 115 176 94 q 153 121 157 118 q 150 122 149 124 q 147 124 149 124 q 142 118 142 124 q 138 83 139 100 q 136 47 138 65 q 133 24 136 43 q 128 -15 131 4 q 124 -39 125 -33 q 122 -56 122 -47 q 118 -71 121 -64 q 116 -81 117 -76 q 113 -89 115 -85 q 110 -92 113 -90 q 107 -92 108 -93 q 99 -65 103 -85 q 96 -43 96 -44 q 93 29 93 -11 q 90 100 93 69 q 90 94 90 107 q 88 70 89 82 q 85 64 88 58 q 82 97 81 79 q 81 131 83 114 q 76 133 79 131 l 75 135 l 61 150 q 57 156 60 153 q 51 163 54 160 l 47 167 q 39 178 44 169 q 38 180 39 179 q 38 182 38 181 q 36 199 36 190 q 36 215 36 207 l 36 351 q 35 374 36 363 q 36 397 35 386 q 44 425 39 417 q 59 446 51 436 q 75 465 67 456 q 97 494 86 481 q 118 522 108 508 l 229 667 q 258 707 243 686 q 288 747 272 728 q 297 760 292 754 q 307 772 301 767 q 315 782 311 778 q 322 789 319 786 l 331 800 l 397 886 l 404 896 q 413 908 408 903 q 421 918 417 913 q 434 938 428 928 q 450 954 440 947 q 463 964 454 958 q 465 965 464 965 q 468 967 467 965 q 471 968 469 967 q 482 971 476 971 q 513 973 497 974 q 543 972 529 972 l 718 972 q 755 974 736 972 q 792 972 774 975 l 793 972 q 797 971 794 971 q 800 969 799 969 q 803 968 801 969 q 821 944 818 958 q 822 940 822 943 q 823 924 824 932 q 822 906 822 915 l 822 438 l 943 438 q 969 428 957 438 q 972 426 971 426 q 975 422 974 425 q 978 418 976 421 q 979 413 979 415 q 982 403 982 407 q 983 382 983 393 q 982 363 982 371 l 982 231 m 353 422 l 499 422 l 499 611 q 501 588 499 588 q 503 600 503 589 q 503 619 504 611 q 496 618 503 628 q 492 614 493 615 q 492 613 492 613 q 489 608 492 611 q 483 601 486 606 q 478 593 481 597 q 469 581 474 588 q 460 568 464 575 l 407 497 q 406 496 407 496 q 406 494 406 496 q 394 477 400 486 q 381 458 388 468 l 364 436 q 360 429 363 432 q 356 425 357 426 l 353 422 m 546 -39 q 545 -62 544 -49 q 547 -90 546 -75 q 547 -43 546 -62 q 546 -39 549 -24 z "},"5":{"ha":958,"x_min":31,"x_max":922,"o":"m 853 131 l 836 113 q 835 110 839 115 q 831 106 831 106 q 828 103 829 104 q 824 100 826 101 q 815 92 819 96 q 806 85 811 88 q 800 79 804 81 q 797 74 799 76 q 794 68 796 71 l 788 56 l 782 50 q 772 44 776 44 q 769 8 769 26 q 765 -29 769 -11 q 761 -27 764 -31 q 757 -22 758 -24 q 755 1 754 -3 q 751 26 756 4 q 747 19 750 24 q 742 11 744 14 q 739 6 740 10 q 736 4 738 3 q 736 5 736 4 q 735 6 736 6 l 732 -6 l 728 -18 q 724 -35 726 -26 q 718 -51 721 -43 q 706 -97 713 -74 q 688 -142 699 -121 l 683 -149 q 682 -151 682 -150 q 681 -153 682 -151 q 672 -163 676 -158 q 661 -174 667 -168 q 657 -180 660 -176 q 651 -187 654 -183 q 651 -188 651 -187 q 650 -189 651 -189 q 649 -191 650 -190 q 649 -193 649 -192 q 641 -210 644 -201 q 635 -229 638 -219 l 626 -254 q 622 -265 621 -265 q 613 -279 624 -264 q 610 -282 613 -282 q 606 -285 607 -285 q 599 -308 601 -296 q 594 -332 597 -319 q 592 -354 593 -339 q 589 -362 592 -369 q 575 -345 574 -347 q 583 -346 576 -343 q 592 -347 590 -349 q 578 -329 593 -344 q 574 -303 572 -317 q 572 -275 575 -289 q 560 -257 564 -268 q 553 -236 556 -246 q 550 -226 551 -231 q 547 -217 549 -222 q 532 -156 539 -189 q 515 -94 525 -124 l 494 -42 l 486 -25 l 474 -17 q 469 -47 468 -47 q 464 -17 471 -47 q 214 35 313 -14 q 69 161 115 85 l 65 169 q 60 178 63 174 q 56 188 58 183 q 41 228 46 208 q 33 267 36 247 q 31 283 32 274 q 32 300 31 292 q 33 305 33 303 q 35 308 33 307 q 47 321 39 317 q 63 325 54 325 q 91 326 76 328 q 115 325 106 325 l 282 325 q 308 326 294 325 q 333 326 321 326 q 347 326 340 326 q 360 324 354 325 q 374 318 368 321 q 386 310 379 317 q 394 301 393 304 q 408 288 401 294 q 419 274 414 281 q 432 264 424 269 q 451 257 440 260 q 475 254 461 254 q 531 280 503 257 q 564 338 560 303 q 563 350 564 344 q 561 361 563 356 q 557 374 560 368 q 551 385 554 379 q 542 399 547 393 l 535 406 q 533 406 533 406 q 532 407 533 407 q 498 414 518 418 q 461 407 478 410 q 444 406 453 406 q 428 404 436 407 q 415 397 421 403 q 401 390 408 392 q 388 388 396 389 q 374 385 379 388 q 358 370 364 379 q 340 358 351 361 q 315 363 329 356 q 290 375 300 369 q 279 381 285 381 q 272 381 276 382 q 264 382 267 381 q 261 383 263 382 q 258 383 260 383 q 256 382 257 383 q 251 379 254 381 q 229 371 243 374 q 217 369 224 369 q 197 371 210 369 q 183 375 190 371 q 155 381 169 378 q 125 386 140 385 q 101 394 111 389 q 94 400 97 397 q 88 406 90 403 q 84 417 83 417 q 83 422 85 417 q 85 449 82 433 q 89 476 88 465 l 92 497 q 92 505 92 501 q 93 513 93 508 l 111 678 q 117 732 114 704 q 121 782 119 760 q 122 791 122 786 q 124 800 122 796 q 125 812 125 807 q 126 821 125 817 q 128 829 128 825 q 129 838 128 833 q 131 851 131 844 q 132 863 131 857 l 139 925 q 158 960 142 949 q 192 972 174 972 l 769 972 q 782 972 776 972 q 793 974 788 972 q 810 974 801 974 q 826 971 818 974 q 846 956 839 967 q 850 945 849 950 q 851 935 851 940 q 853 883 853 914 q 852 819 853 851 q 851 767 851 788 l 851 756 q 852 741 851 749 q 850 726 853 733 q 842 714 849 721 q 831 706 838 708 q 829 699 831 704 q 825 694 828 694 q 823 696 824 693 q 819 699 822 699 l 818 699 q 812 691 813 697 q 808 682 811 685 q 806 684 807 681 q 803 688 806 688 q 797 685 801 689 l 786 678 q 742 667 764 668 l 718 667 q 708 664 713 665 q 697 660 703 663 q 681 655 689 658 q 664 649 672 651 q 642 651 653 647 q 619 656 631 654 q 589 660 604 658 q 558 664 574 661 q 531 672 544 667 q 503 682 517 676 q 500 683 501 683 q 497 685 499 683 q 492 685 494 685 q 486 686 489 686 q 459 687 472 686 q 432 692 446 688 l 414 700 q 411 701 417 700 q 408 701 406 703 l 407 685 q 405 672 406 679 q 404 658 404 665 l 400 628 q 399 617 400 622 q 399 610 399 611 l 401 606 q 403 606 403 606 q 403 607 403 607 q 411 613 407 610 q 419 617 415 615 q 443 628 432 624 q 450 631 446 631 q 457 633 454 632 l 467 638 q 477 640 472 639 q 488 643 482 642 q 496 644 492 644 q 506 646 500 644 q 522 649 514 649 q 547 651 535 650 q 571 651 558 651 q 592 651 582 651 q 614 650 603 651 l 640 646 q 654 643 646 646 q 655 643 654 643 q 656 642 656 643 q 807 568 743 622 q 815 561 811 565 q 821 557 818 560 q 825 551 824 554 q 903 438 876 501 q 918 386 914 422 q 922 322 922 351 l 922 318 q 894 200 921 256 q 872 158 886 172 q 853 131 864 144 z "},"6":{"ha":961,"x_min":28,"x_max":932,"o":"m 932 353 q 881 174 932 253 q 865 151 871 157 q 838 119 853 135 q 807 89 824 104 l 803 85 q 801 82 801 83 q 799 79 800 81 q 785 58 793 67 q 767 40 776 50 q 757 29 764 36 q 755 25 756 28 q 753 24 754 22 q 751 26 751 25 q 751 26 751 26 l 744 18 q 740 13 746 19 q 732 6 735 7 q 730 4 731 4 q 728 3 729 4 q 726 -8 726 -3 q 722 -18 725 -12 q 717 -26 722 -26 q 714 -22 715 -26 q 711 -17 713 -18 l 704 6 q 703 8 704 7 l 699 17 q 693 21 694 21 q 692 20 693 21 q 692 18 692 19 q 688 6 690 17 q 683 -10 686 -1 q 678 -25 681 -18 q 672 -39 675 -32 q 667 -53 669 -46 q 644 -107 656 -79 q 621 -158 632 -135 q 612 -177 618 -168 q 597 -187 606 -186 q 595 -196 596 -192 q 592 -203 594 -200 q 585 -208 588 -210 q 579 -199 582 -207 q 578 -189 578 -194 q 575 -178 578 -183 q 572 -174 574 -175 q 568 -171 569 -172 q 565 -168 567 -169 q 563 -165 564 -167 q 553 -151 557 -158 q 543 -135 549 -143 q 528 -102 535 -119 q 514 -68 521 -85 q 508 -53 511 -61 q 508 -52 508 -53 q 507 -50 507 -51 l 503 -40 q 497 -28 500 -32 q 489 -16 492 -17 q 482 -14 486 -15 q 480 -15 481 -14 q 478 -15 479 -15 q 476 -15 476 -15 q 474 -14 476 -14 q 248 31 349 -11 q 88 151 147 72 q 71 176 78 163 q 57 204 64 190 q 56 207 56 206 q 54 210 56 208 q 31 296 36 254 q 28 324 29 310 q 28 353 28 339 q 28 373 28 363 q 32 393 29 383 q 32 394 32 393 q 33 394 32 394 q 68 498 43 447 q 120 588 93 549 q 163 649 147 628 l 193 689 q 218 722 206 710 q 234 744 225 733 q 251 765 243 756 l 294 821 q 325 864 310 843 q 356 901 340 885 l 383 939 q 415 967 396 958 q 456 974 433 975 q 496 972 478 972 l 700 972 q 715 973 707 972 q 729 972 722 974 q 746 961 739 971 q 753 942 753 951 q 747 924 753 932 q 743 917 746 921 q 738 908 740 913 l 731 900 q 724 892 728 896 q 717 885 721 888 l 697 857 q 658 803 678 831 q 619 754 639 775 l 588 713 l 579 700 q 572 692 575 696 l 582 692 q 595 691 589 692 q 607 689 601 690 q 615 687 611 688 q 622 686 618 686 q 628 685 624 685 l 660 676 q 671 673 665 675 q 682 668 676 671 q 808 599 747 646 q 903 482 869 551 q 917 450 913 472 q 922 440 921 447 q 929 397 929 419 q 931 376 931 388 q 932 353 932 364 m 494 258 q 538 271 519 261 l 549 279 q 574 324 568 297 q 574 378 581 351 q 540 422 565 406 q 515 431 528 429 q 488 433 501 433 q 460 432 475 433 q 431 425 444 431 l 417 417 q 417 417 417 417 q 415 415 417 417 q 392 379 399 403 q 391 321 382 351 q 424 274 400 290 q 425 273 425 274 q 426 272 425 272 q 428 271 426 271 q 464 258 447 260 q 494 258 481 257 z "},"7":{"ha":868,"x_min":38,"x_max":833,"o":"m 400 -244 q 397 -247 400 -246 q 394 -246 394 -247 q 392 -186 393 -225 q 391 -108 392 -147 q 389 -49 390 -69 q 385 -47 389 -47 q 381 -47 381 -47 q 379 -49 379 -49 q 378 -51 379 -50 q 367 -62 372 -60 q 365 -71 365 -65 q 360 -78 364 -76 q 357 -72 357 -79 q 354 -67 357 -64 q 354 -87 351 -72 q 350 -99 357 -101 q 346 -87 344 -96 q 349 -70 347 -78 q 344 -62 351 -62 q 340 -72 339 -61 q 344 -91 342 -82 q 340 -97 346 -100 q 335 -77 331 -90 q 335 -54 339 -64 q 333 -61 332 -50 q 328 -75 333 -72 q 324 -63 328 -75 q 317 -50 319 -51 l 317 -51 q 308 -60 317 -51 q 303 -64 306 -62 q 301 -69 297 -69 q 309 -70 304 -69 q 313 -76 314 -71 q 296 -96 311 -81 q 292 -92 294 -97 q 289 -85 290 -87 q 287 -74 288 -79 q 283 -64 286 -69 q 278 -58 281 -61 q 274 -54 276 -56 q 268 -51 271 -51 q 259 -47 256 -44 q 266 -51 263 -49 q 257 -49 269 -54 q 249 -37 250 -46 q 231 -17 236 -28 q 226 -14 229 -17 q 225 -18 226 -17 q 219 -20 224 -19 q 214 -21 215 -21 q 199 -13 204 -19 q 188 -1 193 -7 q 184 -1 186 0 q 179 0 182 -1 l 169 4 q 164 10 167 7 q 158 18 161 14 q 156 38 154 28 q 157 42 157 40 q 158 44 157 43 q 165 60 161 53 q 172 74 169 67 q 175 81 175 79 l 190 111 q 197 125 193 118 l 204 142 l 213 160 l 307 363 q 322 403 314 383 q 338 436 329 422 q 359 488 349 463 q 383 539 369 514 l 392 551 q 396 556 394 554 q 399 560 397 558 l 453 675 l 453 676 q 456 682 456 682 q 458 687 456 683 q 453 688 460 690 q 446 678 449 683 q 428 654 438 668 q 403 638 418 640 q 397 638 400 638 q 392 640 394 639 q 353 654 369 644 q 348 660 351 657 q 342 664 344 663 q 335 671 332 674 q 336 665 338 668 l 336 663 q 335 654 336 657 q 334 634 335 644 q 333 614 333 624 l 333 606 q 333 594 332 600 q 331 582 333 588 q 329 579 331 579 q 317 566 325 572 q 303 556 310 560 q 297 553 300 553 q 292 553 292 553 q 292 526 290 543 q 295 499 294 510 q 286 492 296 488 q 278 519 272 499 q 281 557 283 540 q 276 562 281 560 q 269 565 272 564 q 264 568 265 569 q 262 549 261 558 q 258 531 263 539 q 256 534 257 528 q 253 543 256 540 q 250 549 251 546 q 247 556 249 553 q 242 571 244 563 q 238 586 240 579 q 228 594 235 588 q 226 597 226 596 q 222 600 225 599 q 217 608 221 604 q 215 611 215 610 q 211 614 214 613 q 203 622 210 618 q 194 617 201 622 q 188 610 188 611 q 185 563 185 586 q 182 515 185 539 q 177 502 181 511 q 171 489 174 493 q 167 486 169 488 q 165 486 165 485 q 167 526 164 506 q 172 567 171 547 q 160 600 172 586 q 153 594 151 610 q 159 553 154 578 q 165 510 164 528 q 154 500 165 493 q 141 520 143 507 q 142 549 139 533 q 138 551 140 549 q 130 587 125 565 q 132 626 135 608 q 130 631 132 628 q 126 632 128 633 q 124 618 124 626 q 121 606 125 610 q 117 610 118 603 q 115 621 117 617 q 107 641 111 631 q 96 658 103 651 q 90 664 94 661 q 88 665 86 667 l 83 669 q 81 663 81 667 q 78 656 81 658 q 74 651 74 651 q 72 622 72 642 q 72 591 72 603 q 68 589 72 579 q 65 630 63 608 q 64 675 67 651 q 59 684 60 681 q 51 697 58 688 q 42 710 46 701 q 41 713 42 711 q 40 715 40 714 q 39 719 39 717 q 38 737 38 728 q 39 756 39 746 l 39 906 q 38 923 39 914 q 39 942 38 932 q 40 944 39 943 q 40 947 40 946 q 50 961 44 956 q 65 971 57 969 q 83 972 74 972 q 149 973 115 974 q 214 972 183 972 l 756 972 q 770 973 763 972 q 785 974 778 974 q 813 968 801 974 q 828 951 824 963 q 831 946 831 950 q 832 939 831 942 q 833 919 833 929 q 832 901 832 910 l 832 771 q 832 747 832 758 q 829 722 832 735 q 828 719 829 721 q 828 714 828 717 q 811 671 822 692 q 790 629 800 650 q 781 609 785 619 q 771 588 776 599 l 761 567 l 749 540 q 745 530 747 535 q 740 521 743 525 q 737 513 739 517 q 733 507 735 510 l 654 339 q 626 256 640 296 q 596 201 611 217 q 595 200 596 200 q 594 199 594 200 q 583 171 589 185 q 569 144 576 157 q 551 106 560 122 q 535 82 542 89 l 526 64 q 518 44 522 53 q 508 26 514 36 q 490 8 500 17 q 483 -19 486 -6 q 476 -46 481 -33 q 474 -55 475 -50 q 471 -64 474 -60 q 468 -76 469 -68 q 465 -81 467 -85 q 463 -53 463 -68 q 461 -26 464 -39 l 454 -33 q 453 -34 454 -33 q 451 -35 453 -35 q 450 -35 450 -35 q 449 -36 450 -36 q 447 -61 447 -49 q 443 -86 446 -74 q 442 -105 443 -93 q 441 -124 442 -117 q 436 -126 440 -132 q 432 -93 431 -111 q 431 -58 433 -75 q 428 -53 431 -56 q 425 -50 426 -51 q 422 -40 422 -42 l 415 -43 q 410 -46 413 -46 q 407 -47 408 -47 q 406 -47 406 -46 q 403 -107 404 -68 q 402 -185 403 -146 q 400 -244 401 -224 m 144 567 q 149 588 147 578 q 149 608 150 599 q 143 614 143 614 q 142 592 142 606 q 144 567 143 578 z "},"8":{"ha":989,"x_min":47,"x_max":939,"o":"m 939 300 q 925 211 939 253 q 910 169 919 189 q 889 139 900 150 q 869 114 879 125 q 849 93 858 103 l 839 83 l 831 76 q 835 32 831 60 q 844 -26 840 4 q 844 -84 847 -57 q 826 -125 842 -111 q 808 -117 811 -137 q 808 -61 804 -97 q 815 11 811 -25 q 818 65 818 47 q 792 28 800 50 q 775 -17 783 6 l 765 -39 q 762 -46 764 -40 q 760 -49 760 -51 q 758 -26 758 -37 q 757 -3 757 -14 l 740 -36 q 735 -49 739 -42 q 729 -64 732 -57 q 722 -81 726 -71 q 708 -93 717 -92 q 710 -133 707 -106 q 716 -194 713 -161 q 721 -256 719 -228 q 718 -300 722 -285 q 701 -307 714 -315 q 683 -268 686 -297 q 685 -203 681 -239 q 693 -135 689 -167 q 696 -87 697 -103 l 688 -79 q 677 -65 682 -72 q 665 -54 672 -58 q 660 -65 660 -58 q 653 -116 653 -86 q 653 -176 653 -146 q 647 -226 654 -206 l 643 -261 q 641 -270 642 -265 q 638 -279 640 -275 q 632 -285 635 -286 q 626 -274 626 -279 q 624 -219 625 -253 q 623 -151 624 -185 q 621 -96 622 -117 q 618 -90 619 -93 q 615 -86 617 -87 q 613 -77 614 -83 q 610 -74 611 -71 q 606 -97 606 -81 q 604 -106 607 -114 q 601 -74 600 -90 q 600 -43 603 -58 q 597 -42 599 -43 q 596 -40 594 -40 q 586 -32 590 -36 q 576 -24 582 -28 q 576 -23 576 -24 q 575 -21 575 -22 q 574 -20 574 -21 q 572 -19 574 -19 q 567 -26 571 -19 q 554 -31 558 -31 q 543 -25 549 -31 q 542 -23 543 -24 q 542 -22 542 -22 l 535 -19 q 533 -24 533 -21 q 532 -28 533 -26 l 526 -36 q 511 -49 522 -42 q 493 -51 500 -57 q 488 -42 489 -49 q 485 -33 486 -36 q 483 -24 483 -28 q 479 -14 482 -19 q 242 30 333 -11 q 106 132 151 71 q 103 135 103 135 q 88 158 94 146 q 76 181 82 169 q 75 185 75 182 q 53 259 60 214 q 53 336 47 304 q 71 403 57 372 q 107 460 85 433 q 118 472 110 464 q 137 490 126 482 q 157 506 147 499 l 165 511 q 171 514 168 511 q 163 520 167 517 q 156 526 158 524 q 140 541 147 533 q 126 557 133 549 q 99 611 108 585 q 85 678 88 642 l 85 713 q 85 718 85 715 q 86 724 86 721 q 87 731 86 728 q 88 738 88 735 q 92 760 90 749 q 97 781 94 771 l 106 800 l 106 801 q 114 819 108 813 q 236 936 150 889 q 476 986 322 983 q 499 987 488 988 q 522 986 511 986 q 538 985 532 986 q 548 985 543 985 q 558 983 553 985 q 569 983 564 983 q 579 982 574 982 q 776 920 704 968 q 876 806 847 872 q 881 796 879 801 q 885 783 883 790 q 885 781 885 782 q 886 778 886 779 l 894 742 q 898 706 897 724 q 896 671 899 689 q 895 659 896 665 q 893 646 894 653 l 893 644 q 876 589 888 617 q 851 549 865 567 l 835 531 q 828 525 832 528 q 821 519 825 522 q 818 517 819 518 q 815 514 817 515 l 833 504 q 853 490 844 497 q 868 476 861 483 l 871 474 q 890 450 882 463 q 903 433 897 442 q 913 414 908 424 q 926 381 922 404 q 932 361 929 371 q 936 340 935 351 q 938 326 938 335 q 939 307 939 318 l 939 300 m 432 733 q 431 732 432 732 q 431 731 431 732 q 414 710 421 722 q 408 658 401 686 q 440 615 415 631 q 445 613 443 614 q 450 610 447 611 q 481 602 469 603 q 506 603 493 601 q 526 607 517 604 q 546 615 536 610 q 560 625 554 619 l 561 626 q 571 638 565 629 q 582 676 582 657 q 581 685 582 681 q 579 693 581 689 q 564 724 578 708 q 553 733 561 728 q 552 735 553 735 q 551 735 551 735 l 544 739 q 522 744 535 743 q 499 743 510 744 l 468 743 q 452 740 461 742 q 436 735 443 739 q 434 734 435 735 q 432 733 433 733 m 413 251 q 419 244 415 249 q 428 238 424 240 q 460 224 443 228 q 496 219 478 219 q 510 221 506 219 q 518 222 514 221 q 526 224 522 222 l 538 228 q 571 250 557 235 q 590 297 588 269 q 584 333 592 315 q 561 363 576 351 q 560 363 561 363 q 560 364 560 363 q 558 365 558 364 q 557 365 558 365 q 526 374 544 374 q 493 375 508 375 q 460 373 478 374 q 428 364 442 372 q 406 339 414 354 q 396 308 399 324 q 413 251 394 278 z "},"9":{"ha":949,"x_min":24,"x_max":921,"o":"m 810 371 l 789 342 q 781 331 785 336 q 772 322 776 326 l 736 272 l 729 264 q 717 245 724 254 q 704 228 711 236 l 697 219 q 650 157 674 182 q 642 147 646 151 q 635 138 639 142 q 622 119 629 128 q 608 101 615 110 q 600 90 604 96 q 592 78 596 83 q 581 66 586 72 q 572 53 576 60 q 562 38 567 46 q 550 24 557 31 l 539 13 q 535 11 538 13 q 535 10 533 10 l 531 6 q 521 -3 525 0 q 513 -37 515 -19 q 504 -72 510 -56 q 500 -82 503 -74 q 493 -93 497 -90 q 483 -86 488 -94 q 478 -76 479 -78 q 471 -60 474 -67 q 465 -43 468 -53 q 462 -25 461 -28 q 461 -21 463 -22 q 458 -17 460 -18 q 454 -14 456 -15 q 450 -42 449 -33 q 452 -58 451 -51 q 444 -78 453 -64 l 428 -104 q 424 -110 426 -106 q 422 -112 422 -115 q 419 -69 419 -90 q 417 -25 419 -47 q 415 -24 417 -22 q 411 -26 413 -25 q 403 -28 408 -28 q 374 -63 386 -43 q 351 -103 363 -83 q 350 -106 350 -104 q 349 -108 350 -107 q 341 -123 344 -115 q 332 -137 338 -131 q 324 -144 326 -143 q 317 -143 319 -146 l 313 -139 q 310 -133 310 -136 q 307 -128 308 -131 q 303 -124 306 -125 q 292 -99 297 -111 q 281 -76 288 -87 q 260 -52 272 -61 q 239 -31 249 -43 q 222 -4 229 -17 q 221 -2 221 -3 q 219 0 221 -1 l 213 0 q 194 14 203 3 q 189 31 189 21 q 194 49 189 40 q 197 54 197 51 q 207 65 203 63 l 240 111 q 252 126 244 117 q 268 147 260 136 q 301 194 285 171 q 333 235 317 218 q 339 241 336 238 q 344 249 342 244 l 368 279 q 369 283 368 279 q 372 292 371 286 l 371 292 q 361 291 365 292 q 351 290 357 290 q 329 294 340 290 q 328 295 328 294 q 326 296 328 296 q 324 297 325 296 q 321 297 324 297 q 318 296 321 296 q 316 297 317 296 q 313 299 315 299 q 302 297 308 299 q 292 294 296 294 q 269 297 285 293 l 269 290 q 270 283 269 288 q 271 276 271 279 q 272 270 271 274 q 272 264 272 267 q 277 247 275 256 q 278 229 279 238 q 275 221 278 226 l 275 219 l 271 215 q 271 200 269 210 q 265 192 272 190 q 260 201 258 192 q 258 218 261 211 q 254 222 257 218 q 256 213 256 217 q 253 225 257 208 q 253 248 250 236 q 257 269 256 260 q 259 281 258 275 q 260 293 260 288 q 258 297 260 296 q 253 299 258 299 q 249 299 249 299 q 247 300 247 300 q 244 301 246 300 q 242 303 243 301 q 239 304 240 304 l 239 285 l 244 233 q 245 221 244 229 q 239 213 246 213 q 231 218 236 213 q 222 238 222 226 q 224 269 221 253 q 229 300 228 286 q 224 317 229 310 q 222 320 222 318 q 218 322 221 322 l 218 285 q 218 281 218 281 q 214 281 217 276 q 210 289 211 283 q 208 297 208 294 q 209 307 208 303 q 210 315 210 311 q 208 333 210 328 l 208 329 q 208 328 208 329 q 207 324 208 326 q 204 317 207 318 q 200 325 200 315 q 199 331 199 328 q 197 336 199 333 q 196 337 196 336 q 194 338 196 338 q 182 351 188 342 q 178 310 179 331 q 175 269 178 290 q 172 264 175 268 q 168 263 168 260 q 165 300 164 290 q 165 322 165 310 q 156 365 164 333 q 154 367 154 367 q 153 369 154 368 q 144 381 147 375 q 140 388 143 385 q 131 396 138 390 l 126 400 q 117 410 124 403 q 103 424 110 417 q 104 424 110 418 q 96 432 99 431 q 88 443 93 435 q 53 504 67 472 q 48 518 50 511 q 43 531 46 525 l 39 543 q 31 661 24 601 q 36 693 33 676 q 44 725 39 710 q 49 740 47 732 q 54 754 51 747 q 60 772 57 764 q 68 783 64 779 l 74 793 l 90 818 q 107 842 97 832 q 111 846 107 842 q 255 947 165 908 q 468 986 344 986 q 550 982 511 986 l 567 982 q 574 981 569 981 q 581 979 578 981 q 608 974 603 979 q 611 973 610 974 q 614 972 613 972 q 689 951 654 964 q 728 938 710 946 q 760 919 747 929 q 768 915 764 918 q 776 908 772 911 q 795 896 786 903 q 813 882 804 889 q 834 860 824 872 q 854 838 844 849 q 892 775 878 808 q 894 769 893 772 q 897 763 896 765 l 906 739 q 912 713 908 726 q 917 685 915 699 q 919 672 918 678 q 919 658 919 665 q 920 634 919 647 q 918 608 921 621 q 884 493 913 547 q 818 385 856 439 l 810 371 m 485 536 q 532 553 511 538 q 540 563 538 558 q 554 583 547 569 q 561 625 561 604 q 560 645 561 636 q 556 663 558 654 q 535 693 547 681 q 521 701 529 700 q 504 703 513 703 q 474 707 490 706 q 443 707 458 708 q 409 686 424 706 q 388 641 394 667 q 388 592 382 615 q 396 574 390 582 q 411 556 401 567 q 441 540 426 544 q 472 535 456 536 q 481 535 478 535 q 485 536 483 536 m 275 219 q 273 211 274 214 q 275 219 272 208 l 275 219 z "},"A":{"ha":1049,"x_min":-1,"x_max":1051,"o":"m 1040 60 q 1048 42 1044 51 q 1049 24 1051 33 q 1044 15 1047 18 q 1039 8 1042 11 l 1035 4 q 1033 -3 1033 1 q 1029 -10 1032 -7 q 1027 -18 1028 -14 q 1024 -26 1026 -22 q 1022 -38 1022 -31 q 1018 -43 1021 -46 q 1014 -33 1014 -39 q 1014 -21 1014 -26 q 1002 -35 1008 -28 q 990 -50 996 -43 q 971 -83 981 -65 q 953 -117 961 -100 q 942 -140 947 -128 q 929 -164 936 -153 q 919 -179 921 -178 q 910 -189 918 -181 l 908 -189 q 903 -193 907 -190 q 901 -219 901 -206 q 897 -244 900 -232 q 894 -242 896 -247 q 892 -233 893 -236 q 890 -210 890 -222 q 888 -187 890 -199 q 879 -175 883 -183 q 878 -173 879 -174 q 878 -172 878 -172 q 870 -153 874 -162 q 863 -135 867 -144 q 847 -112 856 -121 q 845 -111 846 -111 q 843 -110 844 -111 q 840 -112 842 -111 q 838 -115 839 -114 q 827 -126 825 -124 q 835 -131 829 -129 q 842 -140 842 -133 q 826 -161 842 -146 q 822 -153 822 -167 q 821 -135 822 -140 q 819 -117 819 -126 q 815 -100 818 -108 q 803 -81 807 -92 q 795 -66 799 -74 q 789 -51 792 -58 l 785 -40 q 780 -33 783 -36 q 774 -26 776 -29 q 774 -26 774 -25 l 774 -26 q 756 -36 771 -26 q 757 -36 756 -37 q 774 -26 758 -35 l 772 -25 l 769 -22 q 754 -40 751 -40 q 765 -34 757 -40 q 775 -25 774 -28 q 756 -36 776 -22 l 753 -39 q 750 -33 751 -37 q 749 -32 749 -29 q 746 -56 746 -40 q 743 -65 746 -72 q 740 -44 740 -58 q 738 -17 740 -29 q 730 -2 733 -10 q 722 13 726 6 q 719 15 719 13 q 713 22 717 18 q 711 25 710 26 q 708 31 710 28 q 706 35 707 33 q 696 63 700 49 q 686 90 692 76 q 685 94 685 93 q 683 97 685 96 q 681 106 683 100 q 679 110 681 108 q 678 114 679 111 q 676 117 678 117 q 674 125 676 119 q 674 126 674 126 q 668 126 674 126 q 667 118 667 124 q 661 110 667 113 q 654 95 658 103 q 646 81 650 88 q 627 41 636 63 q 608 -4 618 19 q 597 -37 603 -21 q 583 -68 590 -54 q 572 -94 578 -81 q 560 -118 567 -107 q 555 -126 558 -121 q 546 -131 551 -131 q 535 -126 540 -132 q 526 -108 529 -118 q 519 -89 522 -99 q 507 -53 513 -74 q 497 -10 501 -32 q 487 33 492 13 q 475 69 482 54 l 471 81 q 469 86 469 83 q 467 93 468 89 q 463 103 464 99 q 460 106 461 104 q 458 106 458 108 q 456 76 456 92 q 453 44 456 60 q 450 48 451 39 q 447 61 449 57 q 442 85 438 81 q 450 92 446 89 q 443 110 454 94 q 439 104 442 110 q 438 101 438 103 q 436 99 438 100 q 431 91 433 94 q 424 85 428 88 q 419 82 421 82 q 417 51 418 67 q 414 19 417 35 q 411 17 414 18 q 408 17 408 15 q 406 51 406 33 q 403 86 406 68 q 390 103 396 93 q 381 118 385 113 q 369 142 368 143 q 374 133 371 142 q 374 121 376 124 q 369 111 369 113 q 367 103 368 107 q 364 96 365 100 q 358 79 361 88 q 353 64 356 71 l 344 40 q 340 30 343 35 q 335 21 338 25 q 324 10 331 14 q 318 1 321 7 l 314 -8 q 307 -32 311 -19 q 299 -56 303 -44 q 298 -58 299 -57 q 297 -58 297 -58 q 293 -77 296 -68 q 288 -96 290 -86 q 286 -100 286 -97 q 285 -106 286 -103 q 277 -140 281 -122 q 268 -172 274 -157 q 261 -199 265 -186 q 253 -224 257 -211 q 248 -235 251 -229 q 242 -249 244 -242 l 233 -260 q 222 -267 229 -264 q 220 -298 221 -282 q 217 -329 219 -314 q 213 -335 215 -332 q 210 -336 210 -337 q 207 -299 207 -317 q 204 -262 207 -281 q 199 -257 201 -260 q 194 -253 197 -254 l 182 -239 q 178 -233 181 -236 q 174 -228 176 -231 q 162 -211 168 -219 q 151 -194 156 -203 q 125 -141 136 -168 q 101 -87 114 -114 q 90 -65 96 -76 q 78 -42 85 -53 q 76 -39 76 -40 q 74 -36 75 -37 q 67 -26 71 -31 q 58 -19 61 -21 q 58 -19 58 -19 q 57 -17 57 -18 q 56 -16 56 -17 q 54 -15 56 -15 q 49 -31 50 -22 q 44 -46 49 -39 q 40 -51 44 -51 q 33 -42 35 -53 q 31 -35 31 -32 q 27 -47 25 -64 q 24 0 29 -31 q 21 1 22 1 q 18 3 19 1 q 7 11 14 4 q 1 19 4 14 q 0 36 -1 25 q 4 53 1 44 q 10 68 7 61 q 16 85 13 78 q 21 94 19 93 l 68 229 q 81 283 75 257 q 96 325 88 308 q 97 328 96 326 q 97 331 97 329 q 102 342 100 336 q 107 353 104 347 q 113 363 110 358 q 117 371 115 368 l 189 578 q 202 626 196 603 q 214 663 208 649 q 222 690 218 676 q 229 714 225 703 q 239 742 233 729 q 267 800 254 788 l 292 872 l 311 926 q 331 957 315 942 q 376 972 346 972 l 675 972 q 703 967 692 972 q 715 960 707 965 q 731 943 725 953 q 740 922 736 933 q 743 914 740 919 l 747 900 q 749 893 749 897 q 751 886 750 889 l 764 856 q 765 853 764 854 q 765 851 765 853 q 768 842 768 846 q 776 821 772 832 q 782 799 779 810 q 785 792 783 796 q 788 785 786 788 l 790 775 q 809 742 799 767 q 831 683 819 718 l 835 669 q 852 624 844 647 q 865 576 860 600 q 879 538 872 563 q 892 485 886 513 l 960 292 q 977 251 968 278 q 996 190 986 224 q 1001 176 999 183 q 1004 163 1003 169 l 1035 75 q 1040 60 1039 68 m 522 650 q 521 646 522 649 q 519 640 519 643 q 513 621 517 631 q 507 600 510 611 l 475 492 q 472 481 474 486 q 468 469 471 476 q 464 452 467 461 q 458 433 461 443 q 456 422 457 428 q 451 411 454 417 q 450 408 450 410 q 449 403 450 406 q 449 402 449 403 q 447 401 449 401 q 447 399 447 400 q 446 397 446 399 l 565 397 q 579 398 572 397 q 592 397 586 399 l 603 397 l 599 413 q 594 426 596 419 q 590 438 593 432 l 586 450 q 576 484 581 465 q 565 521 571 503 q 564 526 564 522 l 540 600 l 532 629 q 530 635 532 629 q 526 647 528 642 q 525 649 525 649 q 522 650 525 650 z "},"Á":{"ha":1049,"x_min":-1,"x_max":1051,"o":"m 1040 60 q 1048 42 1044 51 q 1049 24 1051 33 q 1044 15 1047 18 q 1039 8 1042 11 l 1035 4 q 1033 -3 1033 1 q 1029 -10 1032 -7 q 1027 -18 1028 -14 q 1024 -26 1026 -22 q 1022 -38 1022 -31 q 1018 -43 1021 -46 q 1014 -33 1014 -39 q 1014 -21 1014 -26 q 1002 -35 1008 -28 q 990 -50 996 -43 q 971 -83 981 -65 q 953 -117 961 -100 q 942 -140 947 -128 q 929 -164 936 -153 q 919 -179 921 -178 q 910 -189 918 -181 l 908 -189 q 903 -193 907 -190 q 901 -219 901 -206 q 897 -244 900 -232 q 894 -242 896 -247 q 892 -233 893 -236 q 890 -210 890 -222 q 888 -187 890 -199 q 879 -175 883 -183 q 878 -173 879 -174 q 878 -172 878 -172 q 870 -153 874 -162 q 863 -135 867 -144 q 847 -112 856 -121 q 845 -111 846 -111 q 843 -110 844 -111 q 840 -112 842 -111 q 838 -115 839 -114 q 827 -126 825 -124 q 835 -131 829 -129 q 842 -140 842 -133 q 826 -161 842 -146 q 822 -153 822 -167 q 821 -135 822 -140 q 819 -117 819 -126 q 815 -100 818 -108 q 803 -81 807 -92 q 795 -66 799 -74 q 789 -51 792 -58 l 785 -40 q 780 -33 783 -36 q 774 -26 776 -29 q 774 -26 774 -25 l 774 -26 q 756 -36 771 -26 q 757 -36 756 -37 q 774 -26 758 -35 l 772 -25 l 769 -22 q 754 -40 751 -40 q 765 -34 757 -40 q 775 -25 774 -28 q 756 -36 776 -22 l 753 -39 q 750 -33 751 -37 q 749 -32 749 -29 q 746 -56 746 -40 q 743 -65 746 -72 q 740 -44 740 -58 q 738 -17 740 -29 q 730 -2 733 -10 q 722 13 726 6 q 719 15 719 13 q 713 22 717 18 q 711 25 710 26 q 708 31 710 28 q 706 35 707 33 q 696 63 700 49 q 686 90 692 76 q 685 94 685 93 q 683 97 685 96 q 681 106 683 100 q 679 110 681 108 q 678 114 679 111 q 676 117 678 117 q 674 125 676 119 q 674 126 674 126 q 668 126 674 126 q 667 118 667 124 q 661 110 667 113 q 654 95 658 103 q 646 81 650 88 q 627 41 636 63 q 608 -4 618 19 q 597 -37 603 -21 q 583 -68 590 -54 q 572 -94 578 -81 q 560 -118 567 -107 q 555 -126 558 -121 q 546 -131 551 -131 q 535 -126 540 -132 q 526 -108 529 -118 q 519 -89 522 -99 q 507 -53 513 -74 q 497 -10 501 -32 q 487 33 492 13 q 475 69 482 54 l 471 81 q 469 86 469 83 q 467 93 468 89 q 463 103 464 99 q 460 106 461 104 q 458 106 458 108 q 456 76 456 92 q 453 44 456 60 q 450 48 451 39 q 447 61 449 57 q 442 85 438 81 q 450 92 446 89 q 443 110 454 94 q 439 104 442 110 q 438 101 438 103 q 436 99 438 100 q 431 91 433 94 q 424 85 428 88 q 419 82 421 82 q 417 51 418 67 q 414 19 417 35 q 411 17 414 18 q 408 17 408 15 q 406 51 406 33 q 403 86 406 68 q 390 103 396 93 q 381 118 385 113 q 369 142 368 143 q 374 133 371 142 q 374 121 376 124 q 369 111 369 113 q 367 103 368 107 q 364 96 365 100 q 358 79 361 88 q 353 64 356 71 l 344 40 q 340 30 343 35 q 335 21 338 25 q 324 10 331 14 q 318 1 321 7 l 314 -8 q 307 -32 311 -19 q 299 -56 303 -44 q 298 -58 299 -57 q 297 -58 297 -58 q 293 -77 296 -68 q 288 -96 290 -86 q 286 -100 286 -97 q 285 -106 286 -103 q 277 -140 281 -122 q 268 -172 274 -157 q 261 -199 265 -186 q 253 -224 257 -211 q 248 -235 251 -229 q 242 -249 244 -242 l 233 -260 q 222 -267 229 -264 q 220 -298 221 -282 q 217 -329 219 -314 q 213 -335 215 -332 q 210 -336 210 -337 q 207 -299 207 -317 q 204 -262 207 -281 q 199 -257 201 -260 q 194 -253 197 -254 l 182 -239 q 178 -233 181 -236 q 174 -228 176 -231 q 162 -211 168 -219 q 151 -194 156 -203 q 125 -141 136 -168 q 101 -87 114 -114 q 90 -65 96 -76 q 78 -42 85 -53 q 76 -39 76 -40 q 74 -36 75 -37 q 67 -26 71 -31 q 58 -19 61 -21 q 58 -19 58 -19 q 57 -17 57 -18 q 56 -16 56 -17 q 54 -15 56 -15 q 49 -31 50 -22 q 44 -46 49 -39 q 40 -51 44 -51 q 33 -42 35 -53 q 31 -35 31 -32 q 27 -47 25 -64 q 24 0 29 -31 q 21 1 22 1 q 18 3 19 1 q 7 11 14 4 q 1 19 4 14 q 0 36 -1 25 q 4 53 1 44 q 10 68 7 61 q 16 85 13 78 q 21 94 19 93 l 68 229 q 81 283 75 257 q 96 325 88 308 q 97 328 96 326 q 97 331 97 329 q 102 342 100 336 q 107 353 104 347 q 113 363 110 358 q 117 371 115 368 l 189 578 q 202 626 196 603 q 214 663 208 649 q 222 690 218 676 q 229 714 225 703 q 239 742 233 729 q 267 800 254 788 l 292 872 l 311 926 q 331 957 315 942 q 376 972 346 972 l 675 972 q 703 967 692 972 q 715 960 707 965 q 731 943 725 953 q 740 922 736 933 q 743 914 740 919 l 747 900 q 749 893 749 897 q 751 886 750 889 l 764 856 q 765 853 764 854 q 765 851 765 853 q 768 842 768 846 q 776 821 772 832 q 782 799 779 810 q 785 792 783 796 q 788 785 786 788 l 790 775 q 809 742 799 767 q 831 683 819 718 l 835 669 q 852 624 844 647 q 865 576 860 600 q 879 538 872 563 q 892 485 886 513 l 960 292 q 977 251 968 278 q 996 190 986 224 q 1001 176 999 183 q 1004 163 1003 169 l 1035 75 q 1040 60 1039 68 m 522 650 q 521 646 522 649 q 519 640 519 643 q 513 621 517 631 q 507 600 510 611 l 475 492 q 472 481 474 486 q 468 469 471 476 q 464 452 467 461 q 458 433 461 443 q 456 422 457 428 q 451 411 454 417 q 450 408 450 410 q 449 403 450 406 q 449 402 449 403 q 447 401 449 401 q 447 399 447 400 q 446 397 446 399 l 565 397 q 579 398 572 397 q 592 397 586 399 l 603 397 l 599 413 q 594 426 596 419 q 590 438 593 432 l 586 450 q 576 484 581 465 q 565 521 571 503 q 564 526 564 522 l 540 600 l 532 629 q 530 635 532 629 q 526 647 528 642 q 525 649 525 649 q 522 650 525 650 m 869 1250 q 865 1237 869 1240 q 857 1229 861 1233 q 852 1224 856 1226 q 846 1218 849 1221 q 808 1183 828 1200 q 774 1144 788 1167 q 741 1092 757 1124 q 708 1030 725 1061 q 671 978 692 999 q 660 968 665 972 q 649 958 654 964 q 640 950 644 954 q 629 943 636 946 q 617 945 622 942 q 606 953 611 949 q 590 968 597 960 q 572 981 583 976 q 553 984 563 983 q 533 992 543 985 q 506 1015 518 1003 q 474 1035 493 1028 q 465 1040 469 1038 q 457 1042 460 1042 q 446 1040 451 1042 q 435 1038 440 1038 q 415 1038 426 1036 q 390 1042 404 1040 q 389 1042 389 1042 q 388 1043 389 1043 q 374 1060 376 1047 q 376 1076 372 1067 q 385 1090 381 1083 q 396 1101 390 1096 l 474 1194 q 506 1235 488 1215 q 522 1255 514 1244 q 542 1272 531 1265 q 573 1278 556 1279 q 604 1278 590 1278 l 843 1278 q 860 1272 854 1278 q 868 1263 867 1268 q 869 1256 869 1260 q 869 1250 869 1253 z "},"Ă":{"ha":1049,"x_min":-1,"x_max":1051,"o":"m 1040 60 q 1048 42 1044 51 q 1049 24 1051 33 q 1044 15 1047 18 q 1039 8 1042 11 l 1035 4 q 1033 -3 1033 1 q 1029 -10 1032 -7 q 1027 -18 1028 -14 q 1024 -26 1026 -22 q 1022 -38 1022 -31 q 1018 -43 1021 -46 q 1014 -33 1014 -39 q 1014 -21 1014 -26 q 1002 -35 1008 -28 q 990 -50 996 -43 q 971 -83 981 -65 q 953 -117 961 -100 q 942 -140 947 -128 q 929 -164 936 -153 q 919 -179 921 -178 q 910 -189 918 -181 l 908 -189 q 903 -193 907 -190 q 901 -219 901 -206 q 897 -244 900 -232 q 894 -242 896 -247 q 892 -233 893 -236 q 890 -210 890 -222 q 888 -187 890 -199 q 879 -175 883 -183 q 878 -173 879 -174 q 878 -172 878 -172 q 870 -153 874 -162 q 863 -135 867 -144 q 847 -112 856 -121 q 845 -111 846 -111 q 843 -110 844 -111 q 840 -112 842 -111 q 838 -115 839 -114 q 827 -126 825 -124 q 835 -131 829 -129 q 842 -140 842 -133 q 826 -161 842 -146 q 822 -153 822 -167 q 821 -135 822 -140 q 819 -117 819 -126 q 815 -100 818 -108 q 803 -81 807 -92 q 795 -66 799 -74 q 789 -51 792 -58 l 785 -40 q 780 -33 783 -36 q 774 -26 776 -29 q 774 -26 774 -25 l 774 -26 q 756 -36 771 -26 q 757 -36 756 -37 q 774 -26 758 -35 l 772 -25 l 769 -22 q 754 -40 751 -40 q 765 -34 757 -40 q 775 -25 774 -28 q 756 -36 776 -22 l 753 -39 q 750 -33 751 -37 q 749 -32 749 -29 q 746 -56 746 -40 q 743 -65 746 -72 q 740 -44 740 -58 q 738 -17 740 -29 q 730 -2 733 -10 q 722 13 726 6 q 719 15 719 13 q 713 22 717 18 q 711 25 710 26 q 708 31 710 28 q 706 35 707 33 q 696 63 700 49 q 686 90 692 76 q 685 94 685 93 q 683 97 685 96 q 681 106 683 100 q 679 110 681 108 q 678 114 679 111 q 676 117 678 117 q 674 125 676 119 q 674 126 674 126 q 668 126 674 126 q 667 118 667 124 q 661 110 667 113 q 654 95 658 103 q 646 81 650 88 q 627 41 636 63 q 608 -4 618 19 q 597 -37 603 -21 q 583 -68 590 -54 q 572 -94 578 -81 q 560 -118 567 -107 q 555 -126 558 -121 q 546 -131 551 -131 q 535 -126 540 -132 q 526 -108 529 -118 q 519 -89 522 -99 q 507 -53 513 -74 q 497 -10 501 -32 q 487 33 492 13 q 475 69 482 54 l 471 81 q 469 86 469 83 q 467 93 468 89 q 463 103 464 99 q 460 106 461 104 q 458 106 458 108 q 456 76 456 92 q 453 44 456 60 q 450 48 451 39 q 447 61 449 57 q 442 85 438 81 q 450 92 446 89 q 443 110 454 94 q 439 104 442 110 q 438 101 438 103 q 436 99 438 100 q 431 91 433 94 q 424 85 428 88 q 419 82 421 82 q 417 51 418 67 q 414 19 417 35 q 411 17 414 18 q 408 17 408 15 q 406 51 406 33 q 403 86 406 68 q 390 103 396 93 q 381 118 385 113 q 369 142 368 143 q 374 133 371 142 q 374 121 376 124 q 369 111 369 113 q 367 103 368 107 q 364 96 365 100 q 358 79 361 88 q 353 64 356 71 l 344 40 q 340 30 343 35 q 335 21 338 25 q 324 10 331 14 q 318 1 321 7 l 314 -8 q 307 -32 311 -19 q 299 -56 303 -44 q 298 -58 299 -57 q 297 -58 297 -58 q 293 -77 296 -68 q 288 -96 290 -86 q 286 -100 286 -97 q 285 -106 286 -103 q 277 -140 281 -122 q 268 -172 274 -157 q 261 -199 265 -186 q 253 -224 257 -211 q 248 -235 251 -229 q 242 -249 244 -242 l 233 -260 q 222 -267 229 -264 q 220 -298 221 -282 q 217 -329 219 -314 q 213 -335 215 -332 q 210 -336 210 -337 q 207 -299 207 -317 q 204 -262 207 -281 q 199 -257 201 -260 q 194 -253 197 -254 l 182 -239 q 178 -233 181 -236 q 174 -228 176 -231 q 162 -211 168 -219 q 151 -194 156 -203 q 125 -141 136 -168 q 101 -87 114 -114 q 90 -65 96 -76 q 78 -42 85 -53 q 76 -39 76 -40 q 74 -36 75 -37 q 67 -26 71 -31 q 58 -19 61 -21 q 58 -19 58 -19 q 57 -17 57 -18 q 56 -16 56 -17 q 54 -15 56 -15 q 49 -31 50 -22 q 44 -46 49 -39 q 40 -51 44 -51 q 33 -42 35 -53 q 31 -35 31 -32 q 27 -47 25 -64 q 24 0 29 -31 q 21 1 22 1 q 18 3 19 1 q 7 11 14 4 q 1 19 4 14 q 0 36 -1 25 q 4 53 1 44 q 10 68 7 61 q 16 85 13 78 q 21 94 19 93 l 68 229 q 81 283 75 257 q 96 325 88 308 q 97 328 96 326 q 97 331 97 329 q 102 342 100 336 q 107 353 104 347 q 113 363 110 358 q 117 371 115 368 l 189 578 q 202 626 196 603 q 214 663 208 649 q 222 690 218 676 q 229 714 225 703 q 239 742 233 729 q 267 800 254 788 l 292 872 l 311 926 q 331 957 315 942 q 376 972 346 972 l 675 972 q 703 967 692 972 q 715 960 707 965 q 731 943 725 953 q 740 922 736 933 q 743 914 740 919 l 747 900 q 749 893 749 897 q 751 886 750 889 l 764 856 q 765 853 764 854 q 765 851 765 853 q 768 842 768 846 q 776 821 772 832 q 782 799 779 810 q 785 792 783 796 q 788 785 786 788 l 790 775 q 809 742 799 767 q 831 683 819 718 l 835 669 q 852 624 844 647 q 865 576 860 600 q 879 538 872 563 q 892 485 886 513 l 960 292 q 977 251 968 278 q 996 190 986 224 q 1001 176 999 183 q 1004 163 1003 169 l 1035 75 q 1040 60 1039 68 m 522 650 q 521 646 522 649 q 519 640 519 643 q 513 621 517 631 q 507 600 510 611 l 475 492 q 472 481 474 486 q 468 469 471 476 q 464 452 467 461 q 458 433 461 443 q 456 422 457 428 q 451 411 454 417 q 450 408 450 410 q 449 403 450 406 q 449 402 449 403 q 447 401 449 401 q 447 399 447 400 q 446 397 446 399 l 565 397 q 579 398 572 397 q 592 397 586 399 l 603 397 l 599 413 q 594 426 596 419 q 590 438 593 432 l 586 450 q 576 484 581 465 q 565 521 571 503 q 564 526 564 522 l 540 600 l 532 629 q 530 635 532 629 q 526 647 528 642 q 525 649 525 649 q 522 650 525 650 m 771 1253 l 771 1232 q 769 1213 769 1222 q 765 1196 768 1204 q 742 1134 758 1163 q 699 1086 725 1106 q 688 1071 693 1079 q 675 1056 682 1063 q 658 1037 667 1046 q 640 1018 650 1028 q 614 994 628 1004 q 581 988 600 983 q 566 995 572 989 q 553 1007 560 1001 q 525 1035 540 1022 l 514 1035 q 385 1065 436 1038 q 307 1138 333 1092 q 290 1175 297 1154 q 283 1211 285 1194 q 279 1246 281 1228 l 279 1251 q 285 1269 279 1261 q 303 1278 292 1276 q 316 1278 310 1279 q 328 1278 322 1278 l 443 1278 q 461 1271 454 1278 q 469 1254 468 1264 q 470 1242 471 1249 q 471 1229 469 1236 l 472 1219 q 490 1188 478 1200 q 525 1175 503 1175 q 563 1191 550 1175 q 579 1229 576 1207 q 580 1243 581 1236 q 581 1256 579 1250 q 592 1272 583 1269 q 607 1278 599 1278 q 624 1278 615 1278 l 722 1278 q 736 1278 729 1278 q 749 1278 743 1279 q 771 1253 771 1274 z "},"Â":{"ha":1049,"x_min":-1,"x_max":1051,"o":"m 1040 60 q 1048 42 1044 51 q 1049 24 1051 33 q 1044 15 1047 18 q 1039 8 1042 11 l 1035 4 q 1033 -3 1033 1 q 1029 -10 1032 -7 q 1027 -18 1028 -14 q 1024 -26 1026 -22 q 1022 -38 1022 -31 q 1018 -43 1021 -46 q 1014 -33 1014 -39 q 1014 -21 1014 -26 q 1002 -35 1008 -28 q 990 -50 996 -43 q 971 -83 981 -65 q 953 -117 961 -100 q 942 -140 947 -128 q 929 -164 936 -153 q 919 -179 921 -178 q 910 -189 918 -181 l 908 -189 q 903 -193 907 -190 q 901 -219 901 -206 q 897 -244 900 -232 q 894 -242 896 -247 q 892 -233 893 -236 q 890 -210 890 -222 q 888 -187 890 -199 q 879 -175 883 -183 q 878 -173 879 -174 q 878 -172 878 -172 q 870 -153 874 -162 q 863 -135 867 -144 q 847 -112 856 -121 q 845 -111 846 -111 q 843 -110 844 -111 q 840 -112 842 -111 q 838 -115 839 -114 q 827 -126 825 -124 q 835 -131 829 -129 q 842 -140 842 -133 q 826 -161 842 -146 q 822 -153 822 -167 q 821 -135 822 -140 q 819 -117 819 -126 q 815 -100 818 -108 q 803 -81 807 -92 q 795 -66 799 -74 q 789 -51 792 -58 l 785 -40 q 780 -33 783 -36 q 774 -26 776 -29 q 774 -26 774 -25 l 774 -26 q 756 -36 771 -26 q 757 -36 756 -37 q 774 -26 758 -35 l 772 -25 l 769 -22 q 754 -40 751 -40 q 765 -34 757 -40 q 775 -25 774 -28 q 756 -36 776 -22 l 753 -39 q 750 -33 751 -37 q 749 -32 749 -29 q 746 -56 746 -40 q 743 -65 746 -72 q 740 -44 740 -58 q 738 -17 740 -29 q 730 -2 733 -10 q 722 13 726 6 q 719 15 719 13 q 713 22 717 18 q 711 25 710 26 q 708 31 710 28 q 706 35 707 33 q 696 63 700 49 q 686 90 692 76 q 685 94 685 93 q 683 97 685 96 q 681 106 683 100 q 679 110 681 108 q 678 114 679 111 q 676 117 678 117 q 674 125 676 119 q 674 126 674 126 q 668 126 674 126 q 667 118 667 124 q 661 110 667 113 q 654 95 658 103 q 646 81 650 88 q 627 41 636 63 q 608 -4 618 19 q 597 -37 603 -21 q 583 -68 590 -54 q 572 -94 578 -81 q 560 -118 567 -107 q 555 -126 558 -121 q 546 -131 551 -131 q 535 -126 540 -132 q 526 -108 529 -118 q 519 -89 522 -99 q 507 -53 513 -74 q 497 -10 501 -32 q 487 33 492 13 q 475 69 482 54 l 471 81 q 469 86 469 83 q 467 93 468 89 q 463 103 464 99 q 460 106 461 104 q 458 106 458 108 q 456 76 456 92 q 453 44 456 60 q 450 48 451 39 q 447 61 449 57 q 442 85 438 81 q 450 92 446 89 q 443 110 454 94 q 439 104 442 110 q 438 101 438 103 q 436 99 438 100 q 431 91 433 94 q 424 85 428 88 q 419 82 421 82 q 417 51 418 67 q 414 19 417 35 q 411 17 414 18 q 408 17 408 15 q 406 51 406 33 q 403 86 406 68 q 390 103 396 93 q 381 118 385 113 q 369 142 368 143 q 374 133 371 142 q 374 121 376 124 q 369 111 369 113 q 367 103 368 107 q 364 96 365 100 q 358 79 361 88 q 353 64 356 71 l 344 40 q 340 30 343 35 q 335 21 338 25 q 324 10 331 14 q 318 1 321 7 l 314 -8 q 307 -32 311 -19 q 299 -56 303 -44 q 298 -58 299 -57 q 297 -58 297 -58 q 293 -77 296 -68 q 288 -96 290 -86 q 286 -100 286 -97 q 285 -106 286 -103 q 277 -140 281 -122 q 268 -172 274 -157 q 261 -199 265 -186 q 253 -224 257 -211 q 248 -235 251 -229 q 242 -249 244 -242 l 233 -260 q 222 -267 229 -264 q 220 -298 221 -282 q 217 -329 219 -314 q 213 -335 215 -332 q 210 -336 210 -337 q 207 -299 207 -317 q 204 -262 207 -281 q 199 -257 201 -260 q 194 -253 197 -254 l 182 -239 q 178 -233 181 -236 q 174 -228 176 -231 q 162 -211 168 -219 q 151 -194 156 -203 q 125 -141 136 -168 q 101 -87 114 -114 q 90 -65 96 -76 q 78 -42 85 -53 q 76 -39 76 -40 q 74 -36 75 -37 q 67 -26 71 -31 q 58 -19 61 -21 q 58 -19 58 -19 q 57 -17 57 -18 q 56 -16 56 -17 q 54 -15 56 -15 q 49 -31 50 -22 q 44 -46 49 -39 q 40 -51 44 -51 q 33 -42 35 -53 q 31 -35 31 -32 q 27 -47 25 -64 q 24 0 29 -31 q 21 1 22 1 q 18 3 19 1 q 7 11 14 4 q 1 19 4 14 q 0 36 -1 25 q 4 53 1 44 q 10 68 7 61 q 16 85 13 78 q 21 94 19 93 l 68 229 q 81 283 75 257 q 96 325 88 308 q 97 328 96 326 q 97 331 97 329 q 102 342 100 336 q 107 353 104 347 q 113 363 110 358 q 117 371 115 368 l 189 578 q 202 626 196 603 q 214 663 208 649 q 222 690 218 676 q 229 714 225 703 q 239 742 233 729 q 267 800 254 788 l 292 872 l 311 926 q 331 957 315 942 q 376 972 346 972 l 675 972 q 703 967 692 972 q 715 960 707 965 q 731 943 725 953 q 740 922 736 933 q 743 914 740 919 l 747 900 q 749 893 749 897 q 751 886 750 889 l 764 856 q 765 853 764 854 q 765 851 765 853 q 768 842 768 846 q 776 821 772 832 q 782 799 779 810 q 785 792 783 796 q 788 785 786 788 l 790 775 q 809 742 799 767 q 831 683 819 718 l 835 669 q 852 624 844 647 q 865 576 860 600 q 879 538 872 563 q 892 485 886 513 l 960 292 q 977 251 968 278 q 996 190 986 224 q 1001 176 999 183 q 1004 163 1003 169 l 1035 75 q 1040 60 1039 68 m 522 650 q 521 646 522 649 q 519 640 519 643 q 513 621 517 631 q 507 600 510 611 l 475 492 q 472 481 474 486 q 468 469 471 476 q 464 452 467 461 q 458 433 461 443 q 456 422 457 428 q 451 411 454 417 q 450 408 450 410 q 449 403 450 406 q 449 402 449 403 q 447 401 449 401 q 447 399 447 400 q 446 397 446 399 l 565 397 q 579 398 572 397 q 592 397 586 399 l 603 397 l 599 413 q 594 426 596 419 q 590 438 593 432 l 586 450 q 576 484 581 465 q 565 521 571 503 q 564 526 564 522 l 540 600 l 532 629 q 530 635 532 629 q 526 647 528 642 q 525 649 525 649 q 522 650 525 650 m 829 1064 q 822 1047 829 1054 q 813 1042 819 1044 q 799 1040 807 1040 q 785 1038 792 1039 q 742 1024 761 1033 q 722 1013 732 1018 q 703 1000 713 1007 q 694 995 697 999 q 685 989 690 992 q 683 988 683 989 q 681 986 682 986 q 668 981 681 979 q 661 986 664 981 q 653 978 661 974 q 644 1003 639 983 q 647 1039 650 1024 q 644 1042 647 1042 q 638 1043 640 1042 q 633 1044 633 1043 q 635 1018 632 1035 q 638 990 638 1001 q 628 983 638 979 q 620 1011 614 990 q 624 1049 626 1032 q 619 1052 622 1051 q 614 1054 617 1053 q 610 1056 613 1054 q 608 1056 608 1058 q 610 1030 607 1046 q 613 1003 613 1014 q 604 997 613 993 q 596 1025 590 1004 q 599 1061 601 1046 q 597 1063 599 1063 q 594 1064 596 1063 q 591 1066 593 1064 q 589 1067 589 1068 q 590 1044 588 1058 q 592 1021 592 1031 q 583 1015 592 1011 q 577 1040 572 1022 q 579 1072 582 1058 q 574 1075 579 1072 q 569 1078 569 1079 q 569 1051 567 1068 q 564 1040 572 1035 q 558 1060 554 1047 q 560 1085 563 1074 q 554 1088 556 1089 q 554 1071 553 1082 q 550 1063 556 1060 q 546 1078 543 1068 q 544 1094 549 1089 q 543 1090 543 1099 q 540 1078 543 1081 q 538 1080 539 1076 q 535 1085 536 1083 q 526 1096 531 1092 q 515 1101 522 1100 q 503 1094 508 1104 q 490 1079 497 1083 q 471 1076 481 1072 q 467 1080 469 1078 q 461 1081 464 1082 q 459 1078 460 1079 q 456 1074 458 1076 q 448 1065 453 1069 q 436 1058 443 1061 q 424 1058 431 1057 q 413 1056 418 1058 q 394 1049 403 1054 q 375 1042 386 1043 q 367 1041 371 1040 q 358 1042 363 1042 q 350 1040 354 1040 q 342 1039 346 1039 q 320 1039 332 1038 q 297 1040 308 1040 q 267 1040 283 1040 q 238 1042 250 1040 q 236 1042 236 1042 q 235 1043 236 1043 q 221 1060 224 1047 q 224 1076 219 1067 q 234 1090 228 1083 q 246 1103 240 1097 l 269 1126 l 296 1157 q 342 1206 319 1181 q 383 1251 364 1232 q 426 1278 404 1274 q 440 1278 433 1279 q 451 1278 446 1278 l 588 1278 q 614 1278 600 1278 q 639 1274 628 1279 q 663 1258 651 1268 q 683 1233 674 1247 q 703 1213 693 1224 q 724 1190 714 1201 l 764 1146 q 783 1126 771 1139 q 804 1101 794 1113 q 810 1096 804 1101 q 817 1088 813 1092 q 824 1081 821 1085 q 828 1072 828 1076 q 829 1064 829 1067 m 661 999 q 663 1017 661 1007 q 664 1033 665 1026 q 660 1035 663 1035 q 658 1035 658 1036 q 661 999 657 1021 z "},"Ä":{"ha":1049,"x_min":-1,"x_max":1051,"o":"m 1040 60 q 1048 42 1044 51 q 1049 24 1051 33 q 1044 15 1047 18 q 1039 8 1042 11 l 1035 4 q 1033 -3 1033 1 q 1029 -10 1032 -7 q 1027 -18 1028 -14 q 1024 -26 1026 -22 q 1022 -38 1022 -31 q 1018 -43 1021 -46 q 1014 -33 1014 -39 q 1014 -21 1014 -26 q 1002 -35 1008 -28 q 990 -50 996 -43 q 971 -83 981 -65 q 953 -117 961 -100 q 942 -140 947 -128 q 929 -164 936 -153 q 919 -179 921 -178 q 910 -189 918 -181 l 908 -189 q 903 -193 907 -190 q 901 -219 901 -206 q 897 -244 900 -232 q 894 -242 896 -247 q 892 -233 893 -236 q 890 -210 890 -222 q 888 -187 890 -199 q 879 -175 883 -183 q 878 -173 879 -174 q 878 -172 878 -172 q 870 -153 874 -162 q 863 -135 867 -144 q 847 -112 856 -121 q 845 -111 846 -111 q 843 -110 844 -111 q 840 -112 842 -111 q 838 -115 839 -114 q 827 -126 825 -124 q 835 -131 829 -129 q 842 -140 842 -133 q 826 -161 842 -146 q 822 -153 822 -167 q 821 -135 822 -140 q 819 -117 819 -126 q 815 -100 818 -108 q 803 -81 807 -92 q 795 -66 799 -74 q 789 -51 792 -58 l 785 -40 q 780 -33 783 -36 q 774 -26 776 -29 q 774 -26 774 -25 l 774 -26 q 756 -36 771 -26 q 757 -36 756 -37 q 774 -26 758 -35 l 772 -25 l 769 -22 q 754 -40 751 -40 q 765 -34 757 -40 q 775 -25 774 -28 q 756 -36 776 -22 l 753 -39 q 750 -33 751 -37 q 749 -32 749 -29 q 746 -56 746 -40 q 743 -65 746 -72 q 740 -44 740 -58 q 738 -17 740 -29 q 730 -2 733 -10 q 722 13 726 6 q 719 15 719 13 q 713 22 717 18 q 711 25 710 26 q 708 31 710 28 q 706 35 707 33 q 696 63 700 49 q 686 90 692 76 q 685 94 685 93 q 683 97 685 96 q 681 106 683 100 q 679 110 681 108 q 678 114 679 111 q 676 117 678 117 q 674 125 676 119 q 674 126 674 126 q 668 126 674 126 q 667 118 667 124 q 661 110 667 113 q 654 95 658 103 q 646 81 650 88 q 627 41 636 63 q 608 -4 618 19 q 597 -37 603 -21 q 583 -68 590 -54 q 572 -94 578 -81 q 560 -118 567 -107 q 555 -126 558 -121 q 546 -131 551 -131 q 535 -126 540 -132 q 526 -108 529 -118 q 519 -89 522 -99 q 507 -53 513 -74 q 497 -10 501 -32 q 487 33 492 13 q 475 69 482 54 l 471 81 q 469 86 469 83 q 467 93 468 89 q 463 103 464 99 q 460 106 461 104 q 458 106 458 108 q 456 76 456 92 q 453 44 456 60 q 450 48 451 39 q 447 61 449 57 q 442 85 438 81 q 450 92 446 89 q 443 110 454 94 q 439 104 442 110 q 438 101 438 103 q 436 99 438 100 q 431 91 433 94 q 424 85 428 88 q 419 82 421 82 q 417 51 418 67 q 414 19 417 35 q 411 17 414 18 q 408 17 408 15 q 406 51 406 33 q 403 86 406 68 q 390 103 396 93 q 381 118 385 113 q 369 142 368 143 q 374 133 371 142 q 374 121 376 124 q 369 111 369 113 q 367 103 368 107 q 364 96 365 100 q 358 79 361 88 q 353 64 356 71 l 344 40 q 340 30 343 35 q 335 21 338 25 q 324 10 331 14 q 318 1 321 7 l 314 -8 q 307 -32 311 -19 q 299 -56 303 -44 q 298 -58 299 -57 q 297 -58 297 -58 q 293 -77 296 -68 q 288 -96 290 -86 q 286 -100 286 -97 q 285 -106 286 -103 q 277 -140 281 -122 q 268 -172 274 -157 q 261 -199 265 -186 q 253 -224 257 -211 q 248 -235 251 -229 q 242 -249 244 -242 l 233 -260 q 222 -267 229 -264 q 220 -298 221 -282 q 217 -329 219 -314 q 213 -335 215 -332 q 210 -336 210 -337 q 207 -299 207 -317 q 204 -262 207 -281 q 199 -257 201 -260 q 194 -253 197 -254 l 182 -239 q 178 -233 181 -236 q 174 -228 176 -231 q 162 -211 168 -219 q 151 -194 156 -203 q 125 -141 136 -168 q 101 -87 114 -114 q 90 -65 96 -76 q 78 -42 85 -53 q 76 -39 76 -40 q 74 -36 75 -37 q 67 -26 71 -31 q 58 -19 61 -21 q 58 -19 58 -19 q 57 -17 57 -18 q 56 -16 56 -17 q 54 -15 56 -15 q 49 -31 50 -22 q 44 -46 49 -39 q 40 -51 44 -51 q 33 -42 35 -53 q 31 -35 31 -32 q 27 -47 25 -64 q 24 0 29 -31 q 21 1 22 1 q 18 3 19 1 q 7 11 14 4 q 1 19 4 14 q 0 36 -1 25 q 4 53 1 44 q 10 68 7 61 q 16 85 13 78 q 21 94 19 93 l 68 229 q 81 283 75 257 q 96 325 88 308 q 97 328 96 326 q 97 331 97 329 q 102 342 100 336 q 107 353 104 347 q 113 363 110 358 q 117 371 115 368 l 189 578 q 202 626 196 603 q 214 663 208 649 q 222 690 218 676 q 229 714 225 703 q 239 742 233 729 q 267 800 254 788 l 292 872 l 311 926 q 331 957 315 942 q 376 972 346 972 l 675 972 q 703 967 692 972 q 715 960 707 965 q 731 943 725 953 q 740 922 736 933 q 743 914 740 919 l 747 900 q 749 893 749 897 q 751 886 750 889 l 764 856 q 765 853 764 854 q 765 851 765 853 q 768 842 768 846 q 776 821 772 832 q 782 799 779 810 q 785 792 783 796 q 788 785 786 788 l 790 775 q 809 742 799 767 q 831 683 819 718 l 835 669 q 852 624 844 647 q 865 576 860 600 q 879 538 872 563 q 892 485 886 513 l 960 292 q 977 251 968 278 q 996 190 986 224 q 1001 176 999 183 q 1004 163 1003 169 l 1035 75 q 1040 60 1039 68 m 522 650 q 521 646 522 649 q 519 640 519 643 q 513 621 517 631 q 507 600 510 611 l 475 492 q 472 481 474 486 q 468 469 471 476 q 464 452 467 461 q 458 433 461 443 q 456 422 457 428 q 451 411 454 417 q 450 408 450 410 q 449 403 450 406 q 449 402 449 403 q 447 401 449 401 q 447 399 447 400 q 446 397 446 399 l 565 397 q 579 398 572 397 q 592 397 586 399 l 603 397 l 599 413 q 594 426 596 419 q 590 438 593 432 l 586 450 q 576 484 581 465 q 565 521 571 503 q 564 526 564 522 l 540 600 l 532 629 q 530 635 532 629 q 526 647 528 642 q 525 649 525 649 q 522 650 525 650 m 803 1278 q 829 1246 829 1274 l 829 1074 q 815 1047 829 1057 q 793 1029 806 1038 q 769 1013 781 1021 q 751 996 761 1006 q 731 985 742 986 q 713 990 721 983 q 697 1001 704 997 q 681 1008 689 1006 q 664 1014 672 1010 q 645 1028 654 1019 q 625 1042 636 1036 l 618 1042 q 616 1042 617 1042 q 614 1043 615 1043 q 605 1049 608 1046 q 599 1056 601 1053 q 594 1068 594 1063 q 593 1079 593 1074 l 593 1213 q 592 1232 593 1221 q 593 1253 592 1243 q 626 1278 599 1278 l 758 1278 q 781 1279 769 1278 q 803 1278 793 1281 m 456 1246 q 457 1177 458 1215 q 456 1107 456 1139 q 456 1091 456 1100 q 456 1074 457 1082 q 436 1044 456 1051 q 409 1039 425 1038 q 379 1039 393 1040 q 346 1029 361 1038 q 313 1022 331 1021 q 290 1030 300 1024 q 268 1040 279 1036 q 260 1042 264 1042 q 251 1042 256 1042 l 244 1042 q 242 1042 243 1042 q 240 1043 242 1043 q 231 1049 235 1046 q 225 1056 228 1053 q 220 1068 221 1063 q 219 1079 219 1074 l 219 1213 q 219 1228 219 1219 q 219 1246 218 1238 q 228 1269 219 1260 q 251 1278 238 1278 q 269 1278 260 1279 q 285 1278 278 1278 l 379 1278 q 405 1279 392 1278 q 431 1278 418 1281 q 443 1272 439 1275 q 456 1246 456 1260 z "},"À":{"ha":1049,"x_min":-1,"x_max":1051,"o":"m 1040 60 q 1048 42 1044 51 q 1049 24 1051 33 q 1044 15 1047 18 q 1039 8 1042 11 l 1035 4 q 1033 -3 1033 1 q 1029 -10 1032 -7 q 1027 -18 1028 -14 q 1024 -26 1026 -22 q 1022 -38 1022 -31 q 1018 -43 1021 -46 q 1014 -33 1014 -39 q 1014 -21 1014 -26 q 1002 -35 1008 -28 q 990 -50 996 -43 q 971 -83 981 -65 q 953 -117 961 -100 q 942 -140 947 -128 q 929 -164 936 -153 q 919 -179 921 -178 q 910 -189 918 -181 l 908 -189 q 903 -193 907 -190 q 901 -219 901 -206 q 897 -244 900 -232 q 894 -242 896 -247 q 892 -233 893 -236 q 890 -210 890 -222 q 888 -187 890 -199 q 879 -175 883 -183 q 878 -173 879 -174 q 878 -172 878 -172 q 870 -153 874 -162 q 863 -135 867 -144 q 847 -112 856 -121 q 845 -111 846 -111 q 843 -110 844 -111 q 840 -112 842 -111 q 838 -115 839 -114 q 827 -126 825 -124 q 835 -131 829 -129 q 842 -140 842 -133 q 826 -161 842 -146 q 822 -153 822 -167 q 821 -135 822 -140 q 819 -117 819 -126 q 815 -100 818 -108 q 803 -81 807 -92 q 795 -66 799 -74 q 789 -51 792 -58 l 785 -40 q 780 -33 783 -36 q 774 -26 776 -29 q 774 -26 774 -25 l 774 -26 q 756 -36 771 -26 q 757 -36 756 -37 q 774 -26 758 -35 l 772 -25 l 769 -22 q 754 -40 751 -40 q 765 -34 757 -40 q 775 -25 774 -28 q 756 -36 776 -22 l 753 -39 q 750 -33 751 -37 q 749 -32 749 -29 q 746 -56 746 -40 q 743 -65 746 -72 q 740 -44 740 -58 q 738 -17 740 -29 q 730 -2 733 -10 q 722 13 726 6 q 719 15 719 13 q 713 22 717 18 q 711 25 710 26 q 708 31 710 28 q 706 35 707 33 q 696 63 700 49 q 686 90 692 76 q 685 94 685 93 q 683 97 685 96 q 681 106 683 100 q 679 110 681 108 q 678 114 679 111 q 676 117 678 117 q 674 125 676 119 q 674 126 674 126 q 668 126 674 126 q 667 118 667 124 q 661 110 667 113 q 654 95 658 103 q 646 81 650 88 q 627 41 636 63 q 608 -4 618 19 q 597 -37 603 -21 q 583 -68 590 -54 q 572 -94 578 -81 q 560 -118 567 -107 q 555 -126 558 -121 q 546 -131 551 -131 q 535 -126 540 -132 q 526 -108 529 -118 q 519 -89 522 -99 q 507 -53 513 -74 q 497 -10 501 -32 q 487 33 492 13 q 475 69 482 54 l 471 81 q 469 86 469 83 q 467 93 468 89 q 463 103 464 99 q 460 106 461 104 q 458 106 458 108 q 456 76 456 92 q 453 44 456 60 q 450 48 451 39 q 447 61 449 57 q 442 85 438 81 q 450 92 446 89 q 443 110 454 94 q 439 104 442 110 q 438 101 438 103 q 436 99 438 100 q 431 91 433 94 q 424 85 428 88 q 419 82 421 82 q 417 51 418 67 q 414 19 417 35 q 411 17 414 18 q 408 17 408 15 q 406 51 406 33 q 403 86 406 68 q 390 103 396 93 q 381 118 385 113 q 369 142 368 143 q 374 133 371 142 q 374 121 376 124 q 369 111 369 113 q 367 103 368 107 q 364 96 365 100 q 358 79 361 88 q 353 64 356 71 l 344 40 q 340 30 343 35 q 335 21 338 25 q 324 10 331 14 q 318 1 321 7 l 314 -8 q 307 -32 311 -19 q 299 -56 303 -44 q 298 -58 299 -57 q 297 -58 297 -58 q 293 -77 296 -68 q 288 -96 290 -86 q 286 -100 286 -97 q 285 -106 286 -103 q 277 -140 281 -122 q 268 -172 274 -157 q 261 -199 265 -186 q 253 -224 257 -211 q 248 -235 251 -229 q 242 -249 244 -242 l 233 -260 q 222 -267 229 -264 q 220 -298 221 -282 q 217 -329 219 -314 q 213 -335 215 -332 q 210 -336 210 -337 q 207 -299 207 -317 q 204 -262 207 -281 q 199 -257 201 -260 q 194 -253 197 -254 l 182 -239 q 178 -233 181 -236 q 174 -228 176 -231 q 162 -211 168 -219 q 151 -194 156 -203 q 125 -141 136 -168 q 101 -87 114 -114 q 90 -65 96 -76 q 78 -42 85 -53 q 76 -39 76 -40 q 74 -36 75 -37 q 67 -26 71 -31 q 58 -19 61 -21 q 58 -19 58 -19 q 57 -17 57 -18 q 56 -16 56 -17 q 54 -15 56 -15 q 49 -31 50 -22 q 44 -46 49 -39 q 40 -51 44 -51 q 33 -42 35 -53 q 31 -35 31 -32 q 27 -47 25 -64 q 24 0 29 -31 q 21 1 22 1 q 18 3 19 1 q 7 11 14 4 q 1 19 4 14 q 0 36 -1 25 q 4 53 1 44 q 10 68 7 61 q 16 85 13 78 q 21 94 19 93 l 68 229 q 81 283 75 257 q 96 325 88 308 q 97 328 96 326 q 97 331 97 329 q 102 342 100 336 q 107 353 104 347 q 113 363 110 358 q 117 371 115 368 l 189 578 q 202 626 196 603 q 214 663 208 649 q 222 690 218 676 q 229 714 225 703 q 239 742 233 729 q 267 800 254 788 l 292 872 l 311 926 q 331 957 315 942 q 376 972 346 972 l 675 972 q 703 967 692 972 q 715 960 707 965 q 731 943 725 953 q 740 922 736 933 q 743 914 740 919 l 747 900 q 749 893 749 897 q 751 886 750 889 l 764 856 q 765 853 764 854 q 765 851 765 853 q 768 842 768 846 q 776 821 772 832 q 782 799 779 810 q 785 792 783 796 q 788 785 786 788 l 790 775 q 809 742 799 767 q 831 683 819 718 l 835 669 q 852 624 844 647 q 865 576 860 600 q 879 538 872 563 q 892 485 886 513 l 960 292 q 977 251 968 278 q 996 190 986 224 q 1001 176 999 183 q 1004 163 1003 169 l 1035 75 q 1040 60 1039 68 m 522 650 q 521 646 522 649 q 519 640 519 643 q 513 621 517 631 q 507 600 510 611 l 475 492 q 472 481 474 486 q 468 469 471 476 q 464 452 467 461 q 458 433 461 443 q 456 422 457 428 q 451 411 454 417 q 450 408 450 410 q 449 403 450 406 q 449 402 449 403 q 447 401 449 401 q 447 399 447 400 q 446 397 446 399 l 565 397 q 579 398 572 397 q 592 397 586 399 l 603 397 l 599 413 q 594 426 596 419 q 590 438 593 432 l 586 450 q 576 484 581 465 q 565 521 571 503 q 564 526 564 522 l 540 600 l 532 629 q 530 635 532 629 q 526 647 528 642 q 525 649 525 649 q 522 650 525 650 m 675 1064 q 668 1046 675 1053 q 642 1038 656 1033 q 636 1040 639 1039 q 631 1042 633 1042 q 622 1038 628 1042 q 614 1031 617 1033 q 594 1019 604 1025 q 575 1006 585 1013 q 563 997 569 1001 q 549 992 556 992 q 527 1003 536 993 q 510 1018 518 1013 q 481 1033 497 1028 q 449 1042 464 1039 l 442 1042 q 433 1043 436 1042 q 410 1053 419 1046 q 385 1069 400 1060 l 213 1213 q 205 1218 208 1215 q 199 1222 201 1221 l 186 1233 q 179 1250 179 1240 q 180 1257 179 1253 q 182 1264 181 1261 q 194 1276 186 1274 q 211 1278 201 1278 l 411 1278 q 451 1279 431 1278 q 490 1278 472 1281 q 500 1275 494 1278 q 508 1271 504 1274 q 517 1264 513 1268 q 531 1250 524 1258 q 543 1235 538 1242 q 549 1228 546 1232 q 554 1221 551 1224 l 625 1135 l 644 1111 q 656 1098 649 1106 q 669 1081 664 1090 q 675 1064 675 1072 z "},"Ā":{"ha":1049,"x_min":-1,"x_max":1051,"o":"m 1040 60 q 1048 42 1044 51 q 1049 24 1051 33 q 1044 15 1047 18 q 1039 8 1042 11 l 1035 4 q 1033 -3 1033 1 q 1029 -10 1032 -7 q 1027 -18 1028 -14 q 1024 -26 1026 -22 q 1022 -38 1022 -31 q 1018 -43 1021 -46 q 1014 -33 1014 -39 q 1014 -21 1014 -26 q 1002 -35 1008 -28 q 990 -50 996 -43 q 971 -83 981 -65 q 953 -117 961 -100 q 942 -140 947 -128 q 929 -164 936 -153 q 919 -179 921 -178 q 910 -189 918 -181 l 908 -189 q 903 -193 907 -190 q 901 -219 901 -206 q 897 -244 900 -232 q 894 -242 896 -247 q 892 -233 893 -236 q 890 -210 890 -222 q 888 -187 890 -199 q 879 -175 883 -183 q 878 -173 879 -174 q 878 -172 878 -172 q 870 -153 874 -162 q 863 -135 867 -144 q 847 -112 856 -121 q 845 -111 846 -111 q 843 -110 844 -111 q 840 -112 842 -111 q 838 -115 839 -114 q 827 -126 825 -124 q 835 -131 829 -129 q 842 -140 842 -133 q 826 -161 842 -146 q 822 -153 822 -167 q 821 -135 822 -140 q 819 -117 819 -126 q 815 -100 818 -108 q 803 -81 807 -92 q 795 -66 799 -74 q 789 -51 792 -58 l 785 -40 q 780 -33 783 -36 q 774 -26 776 -29 q 774 -26 774 -25 l 774 -26 q 756 -36 771 -26 q 757 -36 756 -37 q 774 -26 758 -35 l 772 -25 l 769 -22 q 754 -40 751 -40 q 765 -34 757 -40 q 775 -25 774 -28 q 756 -36 776 -22 l 753 -39 q 750 -33 751 -37 q 749 -32 749 -29 q 746 -56 746 -40 q 743 -65 746 -72 q 740 -44 740 -58 q 738 -17 740 -29 q 730 -2 733 -10 q 722 13 726 6 q 719 15 719 13 q 713 22 717 18 q 711 25 710 26 q 708 31 710 28 q 706 35 707 33 q 696 63 700 49 q 686 90 692 76 q 685 94 685 93 q 683 97 685 96 q 681 106 683 100 q 679 110 681 108 q 678 114 679 111 q 676 117 678 117 q 674 125 676 119 q 674 126 674 126 q 668 126 674 126 q 667 118 667 124 q 661 110 667 113 q 654 95 658 103 q 646 81 650 88 q 627 41 636 63 q 608 -4 618 19 q 597 -37 603 -21 q 583 -68 590 -54 q 572 -94 578 -81 q 560 -118 567 -107 q 555 -126 558 -121 q 546 -131 551 -131 q 535 -126 540 -132 q 526 -108 529 -118 q 519 -89 522 -99 q 507 -53 513 -74 q 497 -10 501 -32 q 487 33 492 13 q 475 69 482 54 l 471 81 q 469 86 469 83 q 467 93 468 89 q 463 103 464 99 q 460 106 461 104 q 458 106 458 108 q 456 76 456 92 q 453 44 456 60 q 450 48 451 39 q 447 61 449 57 q 442 85 438 81 q 450 92 446 89 q 443 110 454 94 q 439 104 442 110 q 438 101 438 103 q 436 99 438 100 q 431 91 433 94 q 424 85 428 88 q 419 82 421 82 q 417 51 418 67 q 414 19 417 35 q 411 17 414 18 q 408 17 408 15 q 406 51 406 33 q 403 86 406 68 q 390 103 396 93 q 381 118 385 113 q 369 142 368 143 q 374 133 371 142 q 374 121 376 124 q 369 111 369 113 q 367 103 368 107 q 364 96 365 100 q 358 79 361 88 q 353 64 356 71 l 344 40 q 340 30 343 35 q 335 21 338 25 q 324 10 331 14 q 318 1 321 7 l 314 -8 q 307 -32 311 -19 q 299 -56 303 -44 q 298 -58 299 -57 q 297 -58 297 -58 q 293 -77 296 -68 q 288 -96 290 -86 q 286 -100 286 -97 q 285 -106 286 -103 q 277 -140 281 -122 q 268 -172 274 -157 q 261 -199 265 -186 q 253 -224 257 -211 q 248 -235 251 -229 q 242 -249 244 -242 l 233 -260 q 222 -267 229 -264 q 220 -298 221 -282 q 217 -329 219 -314 q 213 -335 215 -332 q 210 -336 210 -337 q 207 -299 207 -317 q 204 -262 207 -281 q 199 -257 201 -260 q 194 -253 197 -254 l 182 -239 q 178 -233 181 -236 q 174 -228 176 -231 q 162 -211 168 -219 q 151 -194 156 -203 q 125 -141 136 -168 q 101 -87 114 -114 q 90 -65 96 -76 q 78 -42 85 -53 q 76 -39 76 -40 q 74 -36 75 -37 q 67 -26 71 -31 q 58 -19 61 -21 q 58 -19 58 -19 q 57 -17 57 -18 q 56 -16 56 -17 q 54 -15 56 -15 q 49 -31 50 -22 q 44 -46 49 -39 q 40 -51 44 -51 q 33 -42 35 -53 q 31 -35 31 -32 q 27 -47 25 -64 q 24 0 29 -31 q 21 1 22 1 q 18 3 19 1 q 7 11 14 4 q 1 19 4 14 q 0 36 -1 25 q 4 53 1 44 q 10 68 7 61 q 16 85 13 78 q 21 94 19 93 l 68 229 q 81 283 75 257 q 96 325 88 308 q 97 328 96 326 q 97 331 97 329 q 102 342 100 336 q 107 353 104 347 q 113 363 110 358 q 117 371 115 368 l 189 578 q 202 626 196 603 q 214 663 208 649 q 222 690 218 676 q 229 714 225 703 q 239 742 233 729 q 267 800 254 788 l 292 872 l 311 926 q 331 957 315 942 q 376 972 346 972 l 675 972 q 703 967 692 972 q 715 960 707 965 q 731 943 725 953 q 740 922 736 933 q 743 914 740 919 l 747 900 q 749 893 749 897 q 751 886 750 889 l 764 856 q 765 853 764 854 q 765 851 765 853 q 768 842 768 846 q 776 821 772 832 q 782 799 779 810 q 785 792 783 796 q 788 785 786 788 l 790 775 q 809 742 799 767 q 831 683 819 718 l 835 669 q 852 624 844 647 q 865 576 860 600 q 879 538 872 563 q 892 485 886 513 l 960 292 q 977 251 968 278 q 996 190 986 224 q 1001 176 999 183 q 1004 163 1003 169 l 1035 75 q 1040 60 1039 68 m 522 650 q 521 646 522 649 q 519 640 519 643 q 513 621 517 631 q 507 600 510 611 l 475 492 q 472 481 474 486 q 468 469 471 476 q 464 452 467 461 q 458 433 461 443 q 456 422 457 428 q 451 411 454 417 q 450 408 450 410 q 449 403 450 406 q 449 402 449 403 q 447 401 449 401 q 447 399 447 400 q 446 397 446 399 l 565 397 q 579 398 572 397 q 592 397 586 399 l 603 397 l 599 413 q 594 426 596 419 q 590 438 593 432 l 586 450 q 576 484 581 465 q 565 521 571 503 q 564 526 564 522 l 540 600 l 532 629 q 530 635 532 629 q 526 647 528 642 q 525 649 525 649 q 522 650 525 650 m 818 1074 q 813 1056 818 1061 q 798 1040 807 1046 q 781 1026 789 1033 q 749 1000 765 1014 q 714 979 733 986 q 683 974 700 974 q 654 981 667 975 q 631 996 642 986 q 610 1013 621 1006 q 594 1022 601 1019 q 576 1028 586 1025 q 568 1033 572 1031 q 560 1038 564 1035 q 554 1042 556 1042 q 552 1040 553 1042 q 549 1038 551 1039 q 538 1031 543 1032 q 526 1024 532 1028 q 517 1017 521 1021 q 502 1000 508 1010 q 489 981 496 990 q 475 962 483 972 q 456 950 467 951 q 442 953 449 949 q 428 961 435 958 q 417 968 422 965 q 406 974 411 971 q 383 992 396 983 q 360 1004 374 1000 q 335 1014 347 1008 q 299 1030 317 1021 q 263 1042 282 1039 l 256 1042 q 253 1042 254 1042 q 251 1043 253 1043 q 242 1049 246 1046 q 236 1056 239 1053 q 231 1068 232 1063 q 231 1079 231 1074 l 231 1218 q 242 1242 231 1233 q 258 1250 249 1249 q 275 1251 267 1251 q 290 1250 283 1250 l 753 1250 q 771 1251 761 1250 q 789 1250 781 1251 q 810 1240 801 1249 q 818 1218 818 1231 l 818 1074 z "},"Ą":{"ha":1049,"x_min":0,"x_max":1049,"o":"m 1018 -136 q 1014 -87 1013 -112 q 1013 -36 1015 -61 q 1011 -37 1013 -33 q 1007 -44 1010 -42 q 1001 -53 1004 -50 q 990 -64 997 -58 q 975 -67 983 -69 q 958 -53 965 -62 q 947 -33 951 -43 q 944 -28 946 -31 q 942 -24 943 -25 q 940 -18 940 -21 q 938 -14 940 -15 q 936 -15 936 -14 q 921 -35 925 -24 q 918 -46 919 -40 q 915 -57 917 -51 q 921 -100 911 -79 q 954 -131 932 -122 q 960 -133 957 -132 q 967 -135 964 -133 q 983 -136 971 -136 l 997 -136 q 1009 -137 1004 -136 q 1018 -142 1014 -139 q 1022 -144 1021 -144 q 1033 -162 1031 -151 q 1035 -176 1036 -168 q 1035 -190 1035 -183 l 1035 -240 q 1035 -260 1035 -250 q 1033 -281 1036 -271 l 1029 -287 q 1029 -288 1029 -287 q 1028 -289 1029 -289 q 1025 -293 1028 -290 q 1014 -301 1021 -299 q 1014 -331 1013 -315 q 1008 -360 1015 -347 q 1006 -346 1006 -367 q 1003 -360 1004 -353 q 999 -375 1001 -368 q 998 -378 999 -376 q 997 -382 997 -379 q 997 -385 997 -383 q 996 -387 996 -386 q 993 -392 996 -389 q 990 -388 990 -392 q 988 -383 989 -385 q 987 -381 988 -382 q 986 -379 986 -381 q 985 -374 986 -376 q 985 -371 985 -372 q 982 -343 983 -356 q 979 -321 981 -331 q 978 -313 979 -317 q 978 -306 978 -310 l 960 -306 q 855 -281 899 -303 q 785 -224 811 -258 q 758 -176 768 -204 q 743 -124 749 -149 l 740 -100 q 740 -88 740 -94 q 739 -76 739 -82 l 739 -64 q 739 -49 739 -57 q 740 -33 739 -40 q 742 -24 742 -29 q 743 -15 742 -19 l 746 0 q 743 1 744 0 q 740 1 742 1 q 736 -7 736 0 q 732 -31 733 -17 q 731 -60 731 -46 l 731 -68 q 729 -83 731 -79 q 728 -90 729 -93 q 724 -68 724 -87 q 722 -51 722 -60 q 724 -32 722 -42 l 724 10 q 719 13 722 10 q 719 14 719 14 q 718 14 718 14 q 711 24 714 18 q 698 56 703 39 q 686 90 693 74 l 678 114 l 678 115 q 676 119 681 114 q 668 126 671 125 q 667 126 668 126 q 667 125 667 126 q 665 122 665 124 q 663 119 664 121 q 658 113 660 114 q 658 111 658 111 q 657 110 657 111 q 651 101 654 106 q 644 93 649 97 q 630 62 629 78 q 637 30 631 46 q 644 -2 643 14 q 629 -33 644 -18 q 624 -31 625 -46 q 624 10 624 -15 q 624 47 625 35 q 622 49 624 50 q 618 49 619 47 q 614 67 614 57 q 612 83 613 75 q 608 99 611 90 l 600 107 q 596 106 596 107 q 594 60 594 83 q 590 13 593 36 q 586 2 590 7 q 579 -8 582 -3 q 576 -17 578 -11 q 574 -21 575 -24 q 571 36 571 7 q 568 94 571 65 q 563 92 568 94 q 560 91 561 92 q 557 90 560 90 q 556 90 557 90 q 556 89 556 90 q 553 85 553 86 q 549 62 550 74 q 546 39 549 50 q 544 28 544 33 q 540 17 543 22 q 538 3 539 13 q 535 0 536 -6 q 532 36 532 18 q 529 72 532 54 q 528 73 529 74 q 525 74 526 72 q 515 81 521 75 l 503 96 q 500 43 500 69 q 497 -10 500 17 q 494 -8 496 -11 q 492 -4 493 -6 q 486 0 489 -3 q 458 33 468 14 q 446 58 453 44 q 432 83 439 71 q 419 75 426 74 q 414 76 415 75 q 410 78 413 76 q 408 79 408 81 q 406 26 407 58 q 406 -40 406 -7 q 403 -94 406 -74 q 400 -87 401 -100 q 397 -68 399 -74 q 394 -49 396 -58 q 392 -31 393 -40 q 389 -6 390 -18 q 386 17 388 6 q 384 66 385 42 q 381 115 383 90 q 379 126 381 128 q 374 121 378 124 l 371 114 q 369 110 369 113 q 367 104 369 107 q 364 97 367 103 l 353 65 q 350 55 351 60 q 346 44 349 50 q 345 42 346 43 q 344 40 344 42 q 342 33 342 38 q 334 21 339 28 q 321 8 329 14 q 314 -53 315 -22 q 310 -115 313 -83 q 308 -138 308 -126 q 304 -162 307 -150 q 302 -176 303 -169 q 299 -190 301 -183 q 296 -197 299 -193 q 293 -199 293 -201 q 290 -117 290 -167 q 288 -37 290 -68 q 285 -34 288 -35 q 282 -32 283 -33 q 278 -25 281 -29 q 274 -24 276 -21 q 270 -39 271 -28 q 269 -57 269 -50 q 265 -60 269 -64 q 260 -34 257 -49 q 260 -6 263 -19 q 257 -8 258 -7 q 254 -11 256 -10 l 249 -21 q 247 -23 247 -22 q 246 -25 247 -24 l 239 -40 q 232 -54 235 -47 q 231 -57 231 -56 q 206 -101 219 -79 q 178 -143 193 -124 q 169 -155 174 -149 q 160 -167 165 -161 q 157 -168 158 -168 q 150 -174 153 -172 q 145 -193 147 -183 q 140 -212 143 -203 q 135 -225 138 -222 q 131 -227 133 -226 q 129 -226 129 -228 q 126 -221 126 -224 q 124 -215 125 -218 q 118 -192 119 -204 q 113 -169 117 -179 l 104 -161 q 97 -151 100 -156 q 90 -140 93 -146 q 89 -137 89 -139 q 88 -135 89 -136 q 86 -132 86 -133 q 85 -129 86 -131 q 64 -76 72 -104 q 42 -24 56 -49 q 36 -15 39 -18 q 33 -12 36 -15 q 31 -21 33 -18 q 24 -15 31 -21 q 22 -12 22 -14 q 18 -8 21 -10 q 23 -50 19 -26 q 26 -88 26 -74 q 14 -94 26 -103 q 1 -66 0 -83 q 6 -28 1 -49 q 8 10 10 -7 q 6 13 7 11 q 4 15 6 14 l 0 25 l 0 35 q 5 52 1 43 q 11 69 8 61 q 17 85 14 78 q 22 101 21 93 l 29 119 q 31 125 31 122 q 32 129 31 128 q 33 131 32 131 q 33 132 33 131 l 49 175 q 54 191 51 183 q 60 207 57 199 q 63 216 61 211 q 65 225 64 221 q 80 271 72 249 q 94 308 88 293 l 150 465 q 174 566 161 518 q 200 631 186 614 q 207 651 203 642 q 215 671 211 661 q 243 753 231 718 q 265 799 256 789 q 282 850 274 826 q 297 889 290 874 q 300 896 300 892 q 303 903 301 899 q 306 910 304 907 q 313 932 307 919 l 324 951 q 331 958 324 951 q 344 967 339 964 q 351 969 347 969 q 360 971 356 969 q 374 972 364 972 l 625 972 q 655 974 640 972 q 683 972 669 975 q 700 968 693 971 q 713 961 707 965 q 713 961 713 961 q 715 960 714 961 q 731 944 725 954 q 739 925 736 935 q 747 905 743 915 q 753 885 750 894 q 767 847 760 869 q 782 801 775 825 l 796 758 q 813 729 804 750 q 831 681 821 708 q 847 635 842 658 q 873 574 861 621 q 896 472 885 526 l 958 293 q 968 270 964 283 q 978 242 972 257 q 985 222 982 232 q 992 200 989 211 q 999 180 994 190 q 1006 158 1003 169 l 1025 106 q 1032 83 1028 94 q 1040 61 1036 72 q 1044 51 1042 56 q 1047 39 1046 46 q 1049 31 1049 36 l 1049 29 q 1044 17 1049 24 q 1039 8 1042 11 q 1035 3 1038 6 q 1028 -44 1031 -21 q 1024 -89 1026 -67 q 1022 -112 1024 -97 q 1020 -135 1021 -126 q 1018 -136 1019 -143 m 522 650 q 521 646 522 649 q 519 640 519 643 q 513 621 517 631 q 507 600 510 611 l 475 492 q 472 481 474 486 q 468 469 471 476 q 464 452 467 461 q 458 433 461 443 q 456 422 457 428 q 451 411 454 417 q 450 408 450 410 q 449 403 450 406 q 449 402 449 403 q 447 401 449 401 q 447 399 447 400 q 446 397 446 399 l 565 397 q 579 398 572 397 q 592 397 586 399 l 603 397 l 599 413 q 594 426 596 419 q 590 438 593 432 l 586 450 q 576 484 581 465 q 565 521 571 503 q 564 526 564 522 l 540 600 l 532 629 q 530 635 532 629 q 526 647 528 642 q 525 649 525 649 q 522 650 525 650 z "},"Å":{"ha":1049,"x_min":-1,"x_max":1051,"o":"m 1040 60 q 1048 42 1044 51 q 1049 24 1051 33 q 1044 15 1047 18 q 1039 8 1042 11 l 1035 4 q 1033 -3 1033 1 q 1029 -10 1032 -7 q 1027 -18 1028 -14 q 1024 -26 1026 -22 q 1022 -38 1022 -31 q 1018 -43 1021 -46 q 1014 -33 1014 -39 q 1014 -21 1014 -26 q 1002 -35 1008 -28 q 990 -50 996 -43 q 971 -83 981 -65 q 953 -117 961 -100 q 942 -140 947 -128 q 929 -164 936 -153 q 919 -179 921 -178 q 910 -189 918 -181 l 908 -189 q 903 -193 907 -190 q 901 -219 901 -206 q 897 -244 900 -232 q 894 -242 896 -247 q 892 -233 893 -236 q 890 -210 890 -222 q 888 -187 890 -199 q 879 -175 883 -183 q 878 -173 879 -174 q 878 -172 878 -172 q 870 -153 874 -162 q 863 -135 867 -144 q 847 -112 856 -121 q 845 -111 846 -111 q 843 -110 844 -111 q 840 -112 842 -111 q 838 -115 839 -114 q 827 -126 825 -124 q 835 -131 829 -129 q 842 -140 842 -133 q 826 -161 842 -146 q 822 -153 822 -167 q 821 -135 822 -140 q 819 -117 819 -126 q 815 -100 818 -108 q 803 -81 807 -92 q 795 -66 799 -74 q 789 -51 792 -58 l 785 -40 q 780 -33 783 -36 q 774 -26 776 -29 q 774 -26 774 -25 l 774 -26 q 756 -36 771 -26 q 757 -36 756 -37 q 774 -26 758 -35 l 772 -25 l 769 -22 q 754 -40 751 -40 q 765 -34 757 -40 q 775 -25 774 -28 q 756 -36 776 -22 l 753 -39 q 750 -33 751 -37 q 749 -32 749 -29 q 746 -56 746 -40 q 743 -65 746 -72 q 740 -44 740 -58 q 738 -17 740 -29 q 730 -2 733 -10 q 722 13 726 6 q 719 15 719 13 q 713 22 717 18 q 711 25 710 26 q 708 31 710 28 q 706 35 707 33 q 696 63 700 49 q 686 90 692 76 q 685 94 685 93 q 683 97 685 96 q 681 106 683 100 q 679 110 681 108 q 678 114 679 111 q 676 117 678 117 q 674 125 676 119 q 674 126 674 126 q 668 126 674 126 q 667 118 667 124 q 661 110 667 113 q 654 95 658 103 q 646 81 650 88 q 627 41 636 63 q 608 -4 618 19 q 597 -37 603 -21 q 583 -68 590 -54 q 572 -94 578 -81 q 560 -118 567 -107 q 555 -126 558 -121 q 546 -131 551 -131 q 535 -126 540 -132 q 526 -108 529 -118 q 519 -89 522 -99 q 507 -53 513 -74 q 497 -10 501 -32 q 487 33 492 13 q 475 69 482 54 l 471 81 q 469 86 469 83 q 467 93 468 89 q 463 103 464 99 q 460 106 461 104 q 458 106 458 108 q 456 76 456 92 q 453 44 456 60 q 450 48 451 39 q 447 61 449 57 q 442 85 438 81 q 450 92 446 89 q 443 110 454 94 q 439 104 442 110 q 438 101 438 103 q 436 99 438 100 q 431 91 433 94 q 424 85 428 88 q 419 82 421 82 q 417 51 418 67 q 414 19 417 35 q 411 17 414 18 q 408 17 408 15 q 406 51 406 33 q 403 86 406 68 q 390 103 396 93 q 381 118 385 113 q 369 142 368 143 q 374 133 371 142 q 374 121 376 124 q 369 111 369 113 q 367 103 368 107 q 364 96 365 100 q 358 79 361 88 q 353 64 356 71 l 344 40 q 340 30 343 35 q 335 21 338 25 q 324 10 331 14 q 318 1 321 7 l 314 -8 q 307 -32 311 -19 q 299 -56 303 -44 q 298 -58 299 -57 q 297 -58 297 -58 q 293 -77 296 -68 q 288 -96 290 -86 q 286 -100 286 -97 q 285 -106 286 -103 q 277 -140 281 -122 q 268 -172 274 -157 q 261 -199 265 -186 q 253 -224 257 -211 q 248 -235 251 -229 q 242 -249 244 -242 l 233 -260 q 222 -267 229 -264 q 220 -298 221 -282 q 217 -329 219 -314 q 213 -335 215 -332 q 210 -336 210 -337 q 207 -299 207 -317 q 204 -262 207 -281 q 199 -257 201 -260 q 194 -253 197 -254 l 182 -239 q 178 -233 181 -236 q 174 -228 176 -231 q 162 -211 168 -219 q 151 -194 156 -203 q 125 -141 136 -168 q 101 -87 114 -114 q 90 -65 96 -76 q 78 -42 85 -53 q 76 -39 76 -40 q 74 -36 75 -37 q 67 -26 71 -31 q 58 -19 61 -21 q 58 -19 58 -19 q 57 -17 57 -18 q 56 -16 56 -17 q 54 -15 56 -15 q 49 -31 50 -22 q 44 -46 49 -39 q 40 -51 44 -51 q 33 -42 35 -53 q 31 -35 31 -32 q 27 -47 25 -64 q 24 0 29 -31 q 21 1 22 1 q 18 3 19 1 q 7 11 14 4 q 1 19 4 14 q 0 36 -1 25 q 4 53 1 44 q 10 68 7 61 q 16 85 13 78 q 21 94 19 93 l 68 229 q 81 283 75 257 q 96 325 88 308 q 97 328 96 326 q 97 331 97 329 q 102 342 100 336 q 107 353 104 347 q 113 363 110 358 q 117 371 115 368 l 189 578 q 202 626 196 603 q 214 663 208 649 q 222 690 218 676 q 229 714 225 703 q 239 742 233 729 q 267 800 254 788 l 292 872 l 311 926 q 331 957 315 942 q 376 972 346 972 l 675 972 q 703 967 692 972 q 715 960 707 965 q 731 943 725 953 q 740 922 736 933 q 743 914 740 919 l 747 900 q 749 893 749 897 q 751 886 750 889 l 764 856 q 765 853 764 854 q 765 851 765 853 q 768 842 768 846 q 776 821 772 832 q 782 799 779 810 q 785 792 783 796 q 788 785 786 788 l 790 775 q 809 742 799 767 q 831 683 819 718 l 835 669 q 852 624 844 647 q 865 576 860 600 q 879 538 872 563 q 892 485 886 513 l 960 292 q 977 251 968 278 q 996 190 986 224 q 1001 176 999 183 q 1004 163 1003 169 l 1035 75 q 1040 60 1039 68 m 522 650 q 521 646 522 649 q 519 640 519 643 q 513 621 517 631 q 507 600 510 611 l 475 492 q 472 481 474 486 q 468 469 471 476 q 464 452 467 461 q 458 433 461 443 q 456 422 457 428 q 451 411 454 417 q 450 408 450 410 q 449 403 450 406 q 449 402 449 403 q 447 401 449 401 q 447 399 447 400 q 446 397 446 399 l 565 397 q 579 398 572 397 q 592 397 586 399 l 603 397 l 599 413 q 594 426 596 419 q 590 438 593 432 l 586 450 q 576 484 581 465 q 565 521 571 503 q 564 526 564 522 l 540 600 l 532 629 q 530 635 532 629 q 526 647 528 642 q 525 649 525 649 q 522 650 525 650 m 624 1065 q 614 1057 618 1060 q 605 1042 608 1050 q 594 1026 601 1033 q 583 1022 589 1021 q 569 1021 576 1022 q 558 1019 564 1021 q 547 1018 553 1017 q 536 1022 542 1018 q 525 1028 531 1025 l 518 1028 q 507 1029 511 1028 q 421 1072 456 1036 q 386 1160 386 1107 q 390 1191 386 1176 q 400 1219 394 1206 q 413 1239 404 1231 q 419 1246 415 1243 q 522 1292 458 1289 l 535 1292 q 626 1252 589 1289 q 664 1160 664 1215 l 664 1147 q 663 1145 664 1146 q 663 1144 663 1144 q 661 1135 663 1138 q 660 1131 661 1133 q 660 1126 660 1129 q 639 1082 654 1104 l 624 1065 m 547 1124 q 560 1135 551 1126 q 565 1167 568 1150 q 547 1194 563 1185 q 518 1200 535 1203 q 487 1177 496 1197 q 489 1138 478 1157 l 497 1128 q 525 1118 507 1121 q 535 1119 532 1118 l 547 1124 z "},"Ã":{"ha":1049,"x_min":-1,"x_max":1051,"o":"m 1040 60 q 1048 42 1044 51 q 1049 24 1051 33 q 1044 15 1047 18 q 1039 8 1042 11 l 1035 4 q 1033 -3 1033 1 q 1029 -10 1032 -7 q 1027 -18 1028 -14 q 1024 -26 1026 -22 q 1022 -38 1022 -31 q 1018 -43 1021 -46 q 1014 -33 1014 -39 q 1014 -21 1014 -26 q 1002 -35 1008 -28 q 990 -50 996 -43 q 971 -83 981 -65 q 953 -117 961 -100 q 942 -140 947 -128 q 929 -164 936 -153 q 919 -179 921 -178 q 910 -189 918 -181 l 908 -189 q 903 -193 907 -190 q 901 -219 901 -206 q 897 -244 900 -232 q 894 -242 896 -247 q 892 -233 893 -236 q 890 -210 890 -222 q 888 -187 890 -199 q 879 -175 883 -183 q 878 -173 879 -174 q 878 -172 878 -172 q 870 -153 874 -162 q 863 -135 867 -144 q 847 -112 856 -121 q 845 -111 846 -111 q 843 -110 844 -111 q 840 -112 842 -111 q 838 -115 839 -114 q 827 -126 825 -124 q 835 -131 829 -129 q 842 -140 842 -133 q 826 -161 842 -146 q 822 -153 822 -167 q 821 -135 822 -140 q 819 -117 819 -126 q 815 -100 818 -108 q 803 -81 807 -92 q 795 -66 799 -74 q 789 -51 792 -58 l 785 -40 q 780 -33 783 -36 q 774 -26 776 -29 q 774 -26 774 -25 l 774 -26 q 756 -36 771 -26 q 757 -36 756 -37 q 774 -26 758 -35 l 772 -25 l 769 -22 q 754 -40 751 -40 q 765 -34 757 -40 q 775 -25 774 -28 q 756 -36 776 -22 l 753 -39 q 750 -33 751 -37 q 749 -32 749 -29 q 746 -56 746 -40 q 743 -65 746 -72 q 740 -44 740 -58 q 738 -17 740 -29 q 730 -2 733 -10 q 722 13 726 6 q 719 15 719 13 q 713 22 717 18 q 711 25 710 26 q 708 31 710 28 q 706 35 707 33 q 696 63 700 49 q 686 90 692 76 q 685 94 685 93 q 683 97 685 96 q 681 106 683 100 q 679 110 681 108 q 678 114 679 111 q 676 117 678 117 q 674 125 676 119 q 674 126 674 126 q 668 126 674 126 q 667 118 667 124 q 661 110 667 113 q 654 95 658 103 q 646 81 650 88 q 627 41 636 63 q 608 -4 618 19 q 597 -37 603 -21 q 583 -68 590 -54 q 572 -94 578 -81 q 560 -118 567 -107 q 555 -126 558 -121 q 546 -131 551 -131 q 535 -126 540 -132 q 526 -108 529 -118 q 519 -89 522 -99 q 507 -53 513 -74 q 497 -10 501 -32 q 487 33 492 13 q 475 69 482 54 l 471 81 q 469 86 469 83 q 467 93 468 89 q 463 103 464 99 q 460 106 461 104 q 458 106 458 108 q 456 76 456 92 q 453 44 456 60 q 450 48 451 39 q 447 61 449 57 q 442 85 438 81 q 450 92 446 89 q 443 110 454 94 q 439 104 442 110 q 438 101 438 103 q 436 99 438 100 q 431 91 433 94 q 424 85 428 88 q 419 82 421 82 q 417 51 418 67 q 414 19 417 35 q 411 17 414 18 q 408 17 408 15 q 406 51 406 33 q 403 86 406 68 q 390 103 396 93 q 381 118 385 113 q 369 142 368 143 q 374 133 371 142 q 374 121 376 124 q 369 111 369 113 q 367 103 368 107 q 364 96 365 100 q 358 79 361 88 q 353 64 356 71 l 344 40 q 340 30 343 35 q 335 21 338 25 q 324 10 331 14 q 318 1 321 7 l 314 -8 q 307 -32 311 -19 q 299 -56 303 -44 q 298 -58 299 -57 q 297 -58 297 -58 q 293 -77 296 -68 q 288 -96 290 -86 q 286 -100 286 -97 q 285 -106 286 -103 q 277 -140 281 -122 q 268 -172 274 -157 q 261 -199 265 -186 q 253 -224 257 -211 q 248 -235 251 -229 q 242 -249 244 -242 l 233 -260 q 222 -267 229 -264 q 220 -298 221 -282 q 217 -329 219 -314 q 213 -335 215 -332 q 210 -336 210 -337 q 207 -299 207 -317 q 204 -262 207 -281 q 199 -257 201 -260 q 194 -253 197 -254 l 182 -239 q 178 -233 181 -236 q 174 -228 176 -231 q 162 -211 168 -219 q 151 -194 156 -203 q 125 -141 136 -168 q 101 -87 114 -114 q 90 -65 96 -76 q 78 -42 85 -53 q 76 -39 76 -40 q 74 -36 75 -37 q 67 -26 71 -31 q 58 -19 61 -21 q 58 -19 58 -19 q 57 -17 57 -18 q 56 -16 56 -17 q 54 -15 56 -15 q 49 -31 50 -22 q 44 -46 49 -39 q 40 -51 44 -51 q 33 -42 35 -53 q 31 -35 31 -32 q 27 -47 25 -64 q 24 0 29 -31 q 21 1 22 1 q 18 3 19 1 q 7 11 14 4 q 1 19 4 14 q 0 36 -1 25 q 4 53 1 44 q 10 68 7 61 q 16 85 13 78 q 21 94 19 93 l 68 229 q 81 283 75 257 q 96 325 88 308 q 97 328 96 326 q 97 331 97 329 q 102 342 100 336 q 107 353 104 347 q 113 363 110 358 q 117 371 115 368 l 189 578 q 202 626 196 603 q 214 663 208 649 q 222 690 218 676 q 229 714 225 703 q 239 742 233 729 q 267 800 254 788 l 292 872 l 311 926 q 331 957 315 942 q 376 972 346 972 l 675 972 q 703 967 692 972 q 715 960 707 965 q 731 943 725 953 q 740 922 736 933 q 743 914 740 919 l 747 900 q 749 893 749 897 q 751 886 750 889 l 764 856 q 765 853 764 854 q 765 851 765 853 q 768 842 768 846 q 776 821 772 832 q 782 799 779 810 q 785 792 783 796 q 788 785 786 788 l 790 775 q 809 742 799 767 q 831 683 819 718 l 835 669 q 852 624 844 647 q 865 576 860 600 q 879 538 872 563 q 892 485 886 513 l 960 292 q 977 251 968 278 q 996 190 986 224 q 1001 176 999 183 q 1004 163 1003 169 l 1035 75 q 1040 60 1039 68 m 522 650 q 521 646 522 649 q 519 640 519 643 q 513 621 517 631 q 507 600 510 611 l 475 492 q 472 481 474 486 q 468 469 471 476 q 464 452 467 461 q 458 433 461 443 q 456 422 457 428 q 451 411 454 417 q 450 408 450 410 q 449 403 450 406 q 449 402 449 403 q 447 401 449 401 q 447 399 447 400 q 446 397 446 399 l 565 397 q 579 398 572 397 q 592 397 586 399 l 603 397 l 599 413 q 594 426 596 419 q 590 438 593 432 l 586 450 q 576 484 581 465 q 565 521 571 503 q 564 526 564 522 l 540 600 l 532 629 q 530 635 532 629 q 526 647 528 642 q 525 649 525 649 q 522 650 525 650 m 807 1244 q 799 1192 804 1217 q 771 1121 790 1154 q 751 1094 764 1108 q 748 1090 750 1093 q 743 1085 746 1088 l 736 1078 q 735 1078 736 1078 q 735 1076 735 1078 q 728 1071 732 1075 q 714 1047 719 1060 q 694 1026 708 1033 q 668 1031 683 1024 q 660 1035 664 1033 q 651 1036 656 1038 q 639 1024 633 1018 q 650 1038 644 1031 q 649 1038 650 1038 q 647 1036 649 1038 q 644 1034 646 1035 q 640 1031 643 1033 q 618 1035 628 1029 l 611 1035 q 600 1036 604 1035 q 549 1049 569 1039 q 508 1068 528 1058 q 488 1078 499 1074 q 465 1083 476 1082 q 454 1085 461 1085 l 447 1085 q 443 1083 447 1083 q 440 1083 439 1083 q 423 1072 431 1081 q 404 1050 415 1064 q 396 1044 401 1047 q 390 1035 393 1040 q 385 1026 388 1031 q 369 1009 379 1017 q 346 1003 358 1001 q 328 1013 336 1006 q 313 1026 319 1021 q 305 1035 311 1029 q 296 1042 299 1040 q 293 1040 294 1042 q 290 1039 292 1039 q 285 1037 288 1038 q 279 1035 282 1036 q 260 1041 268 1035 q 244 1054 251 1047 l 244 1057 q 242 1065 243 1063 q 242 1069 242 1068 l 242 1074 q 243 1094 242 1085 q 246 1113 244 1103 q 247 1116 246 1114 q 247 1119 247 1118 q 277 1196 256 1156 q 339 1261 299 1236 q 386 1281 358 1274 q 431 1285 407 1285 q 499 1272 474 1285 q 547 1247 525 1258 q 570 1238 558 1242 q 594 1235 582 1235 q 621 1243 608 1235 q 624 1246 622 1244 q 626 1249 625 1247 q 629 1251 626 1249 q 635 1258 632 1254 q 640 1265 638 1263 q 649 1273 644 1269 q 658 1278 653 1276 q 673 1278 665 1279 q 686 1278 681 1278 l 758 1278 q 776 1278 767 1278 q 793 1275 785 1279 q 804 1264 801 1271 q 806 1257 806 1260 q 807 1247 807 1254 l 807 1244 z "},"Æ":{"ha":1396,"x_min":6,"x_max":1346,"o":"m 1344 65 q 1345 51 1344 58 q 1344 35 1346 43 q 1343 25 1344 28 q 1324 3 1339 13 q 1322 -3 1322 0 q 1318 -10 1321 -7 q 1313 -21 1317 -15 q 1310 -26 1311 -22 q 1307 -29 1310 -31 q 1304 -22 1304 -26 q 1297 -31 1300 -26 q 1290 -39 1293 -35 q 1282 -50 1286 -44 q 1274 -62 1278 -56 q 1268 -69 1272 -65 q 1265 -75 1267 -71 q 1263 -78 1264 -79 q 1260 -54 1261 -67 q 1258 -32 1260 -42 q 1253 -35 1253 -35 q 1250 -61 1250 -47 q 1246 -87 1250 -75 q 1242 -85 1244 -90 q 1240 -79 1240 -81 q 1237 -43 1233 -51 q 1229 -22 1240 -35 q 1226 -59 1226 -40 q 1224 -96 1226 -78 q 1222 -97 1224 -97 q 1218 -94 1219 -96 q 1213 -92 1215 -94 q 1203 -82 1208 -89 q 1196 -71 1197 -75 q 1195 -35 1190 -47 q 1196 -17 1200 -22 q 1193 -21 1193 -19 q 1185 -33 1189 -26 q 1174 -43 1181 -39 q 1172 -60 1172 -51 q 1168 -76 1171 -68 q 1166 -94 1167 -82 q 1163 -100 1165 -106 q 1158 -77 1157 -89 q 1157 -54 1160 -65 q 1154 -50 1156 -51 q 1151 -47 1153 -49 l 1147 -36 l 1136 -25 q 1133 -24 1135 -25 q 1132 -22 1131 -22 l 1129 -19 q 1123 -28 1128 -21 q 1118 -35 1118 -35 q 1116 -97 1117 -65 q 1113 -160 1115 -128 l 1101 -261 q 1097 -298 1100 -276 q 1090 -335 1094 -319 q 1087 -349 1089 -340 q 1085 -353 1085 -358 q 1083 -301 1083 -337 q 1082 -222 1082 -264 q 1081 -142 1082 -179 q 1079 -90 1081 -106 q 1074 -87 1079 -90 q 1068 -83 1068 -82 q 1067 -128 1067 -99 q 1067 -192 1067 -158 q 1066 -255 1067 -225 q 1063 -300 1065 -285 q 1060 -292 1063 -308 q 1057 -267 1058 -275 l 1053 -228 q 1044 -156 1049 -196 q 1035 -86 1039 -117 q 1033 -61 1033 -74 q 1029 -35 1032 -49 q 1025 -32 1028 -35 q 1020 -25 1022 -29 q 1015 -17 1018 -21 q 1015 -16 1015 -17 q 1014 -14 1015 -15 q 1013 -12 1014 -12 q 1013 -11 1013 -12 q 1011 -7 1011 -10 q 1010 -3 1011 -4 q 1007 -7 1008 -4 q 1003 -10 1006 -10 q 1001 -10 1001 -10 q 1001 -11 1001 -11 q 997 -20 1000 -15 q 990 -29 994 -25 l 989 -31 q 974 -68 972 -51 q 979 -101 975 -85 q 975 -139 983 -118 q 973 -174 974 -157 q 969 -208 972 -190 q 966 -212 968 -210 q 963 -214 964 -215 q 959 -176 961 -203 q 956 -119 957 -150 q 953 -66 954 -89 q 953 -40 953 -43 q 946 -46 949 -42 q 940 -53 943 -50 q 933 -64 936 -58 q 925 -75 929 -69 q 920 -79 924 -76 q 913 -83 917 -82 q 905 -86 910 -85 q 897 -85 900 -87 q 888 -75 892 -81 q 881 -65 885 -69 q 878 -62 881 -65 q 876 -62 876 -62 q 875 -61 876 -61 q 873 -64 874 -61 q 869 -68 872 -67 q 859 -63 864 -71 q 853 -53 854 -56 l 849 -43 q 840 -35 844 -39 q 831 -25 835 -31 l 824 -18 q 821 -19 822 -19 q 819 -19 819 -18 q 817 -60 817 -39 q 814 -100 817 -81 l 803 -107 q 791 -118 796 -112 q 781 -131 786 -124 q 774 -137 778 -133 q 764 -139 769 -140 q 758 -136 763 -139 q 753 -132 753 -133 q 750 -78 750 -106 q 747 -25 750 -51 q 744 -24 747 -26 l 736 -39 q 731 -47 735 -40 q 722 -58 726 -53 l 721 -60 q 718 -62 719 -61 q 714 -65 717 -64 q 712 -76 713 -71 q 708 -86 711 -81 q 703 -92 706 -93 q 697 -83 700 -92 q 695 -77 696 -81 q 692 -69 694 -74 q 685 -60 690 -65 q 676 -50 681 -56 q 667 -40 672 -44 l 651 -25 q 646 -20 649 -22 q 640 -17 643 -18 q 638 -18 639 -17 q 633 -21 636 -19 q 633 -28 633 -24 q 631 -35 633 -32 q 628 -33 629 -36 q 625 -28 626 -29 q 621 -22 621 -24 q 621 -44 619 -31 q 622 -67 622 -58 q 615 -69 621 -75 q 610 -40 606 -57 q 611 -8 614 -22 q 609 -12 610 -6 q 606 -18 608 -19 q 603 -4 603 -11 q 601 8 604 3 q 599 12 600 10 q 594 15 597 14 q 594 16 594 15 q 593 17 594 17 q 588 32 590 21 l 588 39 q 586 50 586 42 l 586 68 q 588 86 588 78 q 588 104 588 94 q 588 115 588 115 q 582 126 589 115 q 580 122 581 125 q 576 115 579 118 q 574 108 575 113 q 571 106 574 104 l 567 97 q 564 90 564 92 q 549 48 556 69 q 531 7 542 26 q 524 -3 528 1 q 518 -12 522 -8 q 517 -13 517 -12 q 515 -14 517 -14 q 507 -21 514 -18 q 504 -35 504 -28 q 500 -49 504 -42 q 494 -43 499 -51 q 492 -31 493 -37 q 489 -18 492 -24 l 483 -12 q 481 -11 482 -11 q 479 -10 481 -11 q 472 -1 476 -6 q 465 10 468 4 l 457 24 q 439 64 446 43 q 424 104 432 85 q 418 117 421 113 q 417 119 418 118 q 417 121 417 119 q 414 112 413 115 q 408 110 415 108 q 397 113 403 110 q 391 116 393 113 q 386 121 389 119 q 384 124 385 122 q 381 126 383 126 l 376 115 q 374 107 375 111 q 371 99 372 103 q 365 86 368 90 q 358 63 363 75 q 350 39 354 50 q 347 31 349 35 q 343 25 346 28 q 338 18 342 22 q 331 10 335 14 q 322 3 326 7 l 310 -18 q 308 -23 308 -19 q 304 -29 307 -26 q 303 -32 303 -31 q 301 -36 303 -33 q 299 -44 301 -39 q 294 -51 294 -51 l 286 -40 q 283 -42 286 -42 q 280 -38 281 -43 q 276 -32 279 -33 q 272 -24 275 -28 q 265 -17 268 -21 q 263 -48 264 -32 q 260 -79 263 -64 q 254 -81 260 -81 q 250 -82 250 -85 q 247 -51 247 -67 q 244 -21 247 -35 q 235 -43 240 -35 q 234 -44 235 -44 q 233 -44 233 -44 q 228 -54 232 -50 q 222 -62 225 -58 q 219 -65 221 -64 q 215 -67 218 -65 q 206 -81 211 -74 q 194 -96 201 -89 q 172 -109 186 -103 q 146 -114 157 -115 q 128 -106 136 -112 q 113 -94 119 -100 q 110 -92 111 -93 q 106 -90 108 -92 q 109 -93 108 -92 q 101 -89 110 -94 q 84 -72 92 -83 q 69 -51 76 -61 q 60 -36 64 -44 q 50 -19 56 -28 q 47 -14 49 -17 q 43 -10 46 -11 q 40 -4 42 -7 q 36 0 39 -1 l 29 0 q 26 1 28 1 q 24 3 25 1 q 14 10 18 6 l 11 13 q 6 31 6 18 q 7 39 6 35 q 8 44 7 42 q 8 47 8 46 l 13 58 q 20 78 17 68 q 26 99 24 89 q 31 107 29 103 q 33 114 32 111 q 64 203 49 158 q 94 290 79 247 q 110 356 101 322 q 128 408 118 390 q 136 431 132 419 q 150 458 140 443 q 157 468 151 463 q 188 556 172 513 q 218 643 203 600 q 219 649 218 646 q 233 709 226 681 q 249 754 240 738 q 263 792 256 776 q 278 815 271 808 l 286 839 q 300 876 293 858 q 313 913 307 894 l 317 926 q 336 957 321 942 q 381 972 351 972 l 1257 972 q 1278 973 1267 972 q 1299 972 1289 974 q 1310 970 1306 972 q 1318 965 1314 968 q 1323 962 1321 964 q 1326 957 1325 960 q 1332 946 1329 954 q 1333 935 1333 943 q 1334 920 1335 928 q 1333 906 1333 913 l 1333 789 q 1335 760 1333 775 q 1333 732 1336 746 q 1332 730 1333 735 q 1332 726 1331 725 q 1330 724 1331 725 q 1328 719 1329 722 q 1315 707 1324 711 q 1312 701 1314 704 q 1307 694 1310 699 q 1304 688 1306 693 q 1300 681 1303 683 q 1296 678 1297 676 q 1293 683 1293 676 q 1292 690 1292 686 q 1290 696 1292 693 q 1288 696 1289 697 q 1285 694 1286 694 l 1279 694 q 1269 696 1272 694 q 1263 697 1265 696 q 1256 696 1258 697 l 1251 685 q 1246 676 1249 679 q 1244 672 1244 675 q 1240 671 1243 669 q 1238 678 1238 674 q 1236 685 1239 682 q 1233 684 1235 686 q 1231 681 1232 682 l 1219 676 q 1192 663 1206 671 q 1164 653 1178 656 q 1138 653 1150 650 q 1113 654 1125 656 q 1083 651 1097 654 q 1053 649 1068 647 q 1034 653 1043 650 q 1015 660 1025 657 q 987 665 1001 663 q 960 674 972 667 q 946 683 953 678 q 932 694 939 689 l 921 696 l 921 631 l 926 614 l 1215 614 q 1250 615 1231 614 q 1283 610 1269 617 q 1289 606 1286 608 q 1293 603 1292 604 q 1296 599 1294 601 q 1301 588 1299 596 q 1303 576 1303 585 l 1303 408 q 1303 398 1303 403 q 1303 389 1304 393 q 1297 376 1301 381 q 1288 365 1293 371 q 1285 361 1286 364 q 1282 357 1285 358 q 1280 357 1281 356 q 1276 358 1279 358 q 1271 356 1274 357 q 1265 353 1268 354 q 1238 346 1251 346 q 1229 347 1235 346 q 1221 346 1224 347 q 1210 338 1215 344 q 1200 326 1204 331 q 1182 311 1192 318 q 1164 297 1172 304 q 1149 283 1157 290 q 1131 271 1140 275 l 1240 271 q 1271 273 1254 271 q 1303 272 1288 275 q 1309 271 1306 271 q 1314 269 1313 271 q 1319 269 1317 269 q 1325 267 1322 268 q 1332 263 1328 265 q 1338 256 1336 260 q 1344 242 1343 250 q 1344 226 1344 235 l 1344 65 m 554 689 q 549 697 547 693 q 553 701 551 700 q 542 696 554 701 l 540 690 q 532 665 535 674 q 531 661 532 664 q 529 654 531 658 q 525 638 528 646 q 519 621 522 631 l 490 528 q 472 450 481 488 q 451 397 463 413 l 588 397 l 588 685 l 582 701 q 576 699 576 699 q 567 692 572 696 q 554 689 561 688 m 926 271 l 1069 271 q 1050 277 1060 274 q 1032 286 1040 281 q 1007 314 1018 299 q 976 336 996 329 q 932 354 953 344 l 921 353 l 921 288 l 926 271 z "},"Ǽ":{"ha":1396,"x_min":6,"x_max":1346,"o":"m 1344 65 q 1345 51 1344 58 q 1344 35 1346 43 q 1343 25 1344 28 q 1324 3 1339 13 q 1322 -3 1322 0 q 1318 -10 1321 -7 q 1313 -21 1317 -15 q 1310 -26 1311 -22 q 1307 -29 1310 -31 q 1304 -22 1304 -26 q 1297 -31 1300 -26 q 1290 -39 1293 -35 q 1282 -50 1286 -44 q 1274 -62 1278 -56 q 1268 -69 1272 -65 q 1265 -75 1267 -71 q 1263 -78 1264 -79 q 1260 -54 1261 -67 q 1258 -32 1260 -42 q 1253 -35 1253 -35 q 1250 -61 1250 -47 q 1246 -87 1250 -75 q 1242 -85 1244 -90 q 1240 -79 1240 -81 q 1237 -43 1233 -51 q 1229 -22 1240 -35 q 1226 -59 1226 -40 q 1224 -96 1226 -78 q 1222 -97 1224 -97 q 1218 -94 1219 -96 q 1213 -92 1215 -94 q 1203 -82 1208 -89 q 1196 -71 1197 -75 q 1195 -35 1190 -47 q 1196 -17 1200 -22 q 1193 -21 1193 -19 q 1185 -33 1189 -26 q 1174 -43 1181 -39 q 1172 -60 1172 -51 q 1168 -76 1171 -68 q 1166 -94 1167 -82 q 1163 -100 1165 -106 q 1158 -77 1157 -89 q 1157 -54 1160 -65 q 1154 -50 1156 -51 q 1151 -47 1153 -49 l 1147 -36 l 1136 -25 q 1133 -24 1135 -25 q 1132 -22 1131 -22 l 1129 -19 q 1123 -28 1128 -21 q 1118 -35 1118 -35 q 1116 -97 1117 -65 q 1113 -160 1115 -128 l 1101 -261 q 1097 -298 1100 -276 q 1090 -335 1094 -319 q 1087 -349 1089 -340 q 1085 -353 1085 -358 q 1083 -301 1083 -337 q 1082 -222 1082 -264 q 1081 -142 1082 -179 q 1079 -90 1081 -106 q 1074 -87 1079 -90 q 1068 -83 1068 -82 q 1067 -128 1067 -99 q 1067 -192 1067 -158 q 1066 -255 1067 -225 q 1063 -300 1065 -285 q 1060 -292 1063 -308 q 1057 -267 1058 -275 l 1053 -228 q 1044 -156 1049 -196 q 1035 -86 1039 -117 q 1033 -61 1033 -74 q 1029 -35 1032 -49 q 1025 -32 1028 -35 q 1020 -25 1022 -29 q 1015 -17 1018 -21 q 1015 -16 1015 -17 q 1014 -14 1015 -15 q 1013 -12 1014 -12 q 1013 -11 1013 -12 q 1011 -7 1011 -10 q 1010 -3 1011 -4 q 1007 -7 1008 -4 q 1003 -10 1006 -10 q 1001 -10 1001 -10 q 1001 -11 1001 -11 q 997 -20 1000 -15 q 990 -29 994 -25 l 989 -31 q 974 -68 972 -51 q 979 -101 975 -85 q 975 -139 983 -118 q 973 -174 974 -157 q 969 -208 972 -190 q 966 -212 968 -210 q 963 -214 964 -215 q 959 -176 961 -203 q 956 -119 957 -150 q 953 -66 954 -89 q 953 -40 953 -43 q 946 -46 949 -42 q 940 -53 943 -50 q 933 -64 936 -58 q 925 -75 929 -69 q 920 -79 924 -76 q 913 -83 917 -82 q 905 -86 910 -85 q 897 -85 900 -87 q 888 -75 892 -81 q 881 -65 885 -69 q 878 -62 881 -65 q 876 -62 876 -62 q 875 -61 876 -61 q 873 -64 874 -61 q 869 -68 872 -67 q 859 -63 864 -71 q 853 -53 854 -56 l 849 -43 q 840 -35 844 -39 q 831 -25 835 -31 l 824 -18 q 821 -19 822 -19 q 819 -19 819 -18 q 817 -60 817 -39 q 814 -100 817 -81 l 803 -107 q 791 -118 796 -112 q 781 -131 786 -124 q 774 -137 778 -133 q 764 -139 769 -140 q 758 -136 763 -139 q 753 -132 753 -133 q 750 -78 750 -106 q 747 -25 750 -51 q 744 -24 747 -26 l 736 -39 q 731 -47 735 -40 q 722 -58 726 -53 l 721 -60 q 718 -62 719 -61 q 714 -65 717 -64 q 712 -76 713 -71 q 708 -86 711 -81 q 703 -92 706 -93 q 697 -83 700 -92 q 695 -77 696 -81 q 692 -69 694 -74 q 685 -60 690 -65 q 676 -50 681 -56 q 667 -40 672 -44 l 651 -25 q 646 -20 649 -22 q 640 -17 643 -18 q 638 -18 639 -17 q 633 -21 636 -19 q 633 -28 633 -24 q 631 -35 633 -32 q 628 -33 629 -36 q 625 -28 626 -29 q 621 -22 621 -24 q 621 -44 619 -31 q 622 -67 622 -58 q 615 -69 621 -75 q 610 -40 606 -57 q 611 -8 614 -22 q 609 -12 610 -6 q 606 -18 608 -19 q 603 -4 603 -11 q 601 8 604 3 q 599 12 600 10 q 594 15 597 14 q 594 16 594 15 q 593 17 594 17 q 588 32 590 21 l 588 39 q 586 50 586 42 l 586 68 q 588 86 588 78 q 588 104 588 94 q 588 115 588 115 q 582 126 589 115 q 580 122 581 125 q 576 115 579 118 q 574 108 575 113 q 571 106 574 104 l 567 97 q 564 90 564 92 q 549 48 556 69 q 531 7 542 26 q 524 -3 528 1 q 518 -12 522 -8 q 517 -13 517 -12 q 515 -14 517 -14 q 507 -21 514 -18 q 504 -35 504 -28 q 500 -49 504 -42 q 494 -43 499 -51 q 492 -31 493 -37 q 489 -18 492 -24 l 483 -12 q 481 -11 482 -11 q 479 -10 481 -11 q 472 -1 476 -6 q 465 10 468 4 l 457 24 q 439 64 446 43 q 424 104 432 85 q 418 117 421 113 q 417 119 418 118 q 417 121 417 119 q 414 112 413 115 q 408 110 415 108 q 397 113 403 110 q 391 116 393 113 q 386 121 389 119 q 384 124 385 122 q 381 126 383 126 l 376 115 q 374 107 375 111 q 371 99 372 103 q 365 86 368 90 q 358 63 363 75 q 350 39 354 50 q 347 31 349 35 q 343 25 346 28 q 338 18 342 22 q 331 10 335 14 q 322 3 326 7 l 310 -18 q 308 -23 308 -19 q 304 -29 307 -26 q 303 -32 303 -31 q 301 -36 303 -33 q 299 -44 301 -39 q 294 -51 294 -51 l 286 -40 q 283 -42 286 -42 q 280 -38 281 -43 q 276 -32 279 -33 q 272 -24 275 -28 q 265 -17 268 -21 q 263 -48 264 -32 q 260 -79 263 -64 q 254 -81 260 -81 q 250 -82 250 -85 q 247 -51 247 -67 q 244 -21 247 -35 q 235 -43 240 -35 q 234 -44 235 -44 q 233 -44 233 -44 q 228 -54 232 -50 q 222 -62 225 -58 q 219 -65 221 -64 q 215 -67 218 -65 q 206 -81 211 -74 q 194 -96 201 -89 q 172 -109 186 -103 q 146 -114 157 -115 q 128 -106 136 -112 q 113 -94 119 -100 q 110 -92 111 -93 q 106 -90 108 -92 q 109 -93 108 -92 q 101 -89 110 -94 q 84 -72 92 -83 q 69 -51 76 -61 q 60 -36 64 -44 q 50 -19 56 -28 q 47 -14 49 -17 q 43 -10 46 -11 q 40 -4 42 -7 q 36 0 39 -1 l 29 0 q 26 1 28 1 q 24 3 25 1 q 14 10 18 6 l 11 13 q 6 31 6 18 q 7 39 6 35 q 8 44 7 42 q 8 47 8 46 l 13 58 q 20 78 17 68 q 26 99 24 89 q 31 107 29 103 q 33 114 32 111 q 64 203 49 158 q 94 290 79 247 q 110 356 101 322 q 128 408 118 390 q 136 431 132 419 q 150 458 140 443 q 157 468 151 463 q 188 556 172 513 q 218 643 203 600 q 219 649 218 646 q 233 709 226 681 q 249 754 240 738 q 263 792 256 776 q 278 815 271 808 l 286 839 q 300 876 293 858 q 313 913 307 894 l 317 926 q 336 957 321 942 q 381 972 351 972 l 1257 972 q 1278 973 1267 972 q 1299 972 1289 974 q 1310 970 1306 972 q 1318 965 1314 968 q 1323 962 1321 964 q 1326 957 1325 960 q 1332 946 1329 954 q 1333 935 1333 943 q 1334 920 1335 928 q 1333 906 1333 913 l 1333 789 q 1335 760 1333 775 q 1333 732 1336 746 q 1332 730 1333 735 q 1332 726 1331 725 q 1330 724 1331 725 q 1328 719 1329 722 q 1315 707 1324 711 q 1312 701 1314 704 q 1307 694 1310 699 q 1304 688 1306 693 q 1300 681 1303 683 q 1296 678 1297 676 q 1293 683 1293 676 q 1292 690 1292 686 q 1290 696 1292 693 q 1288 696 1289 697 q 1285 694 1286 694 l 1279 694 q 1269 696 1272 694 q 1263 697 1265 696 q 1256 696 1258 697 l 1251 685 q 1246 676 1249 679 q 1244 672 1244 675 q 1240 671 1243 669 q 1238 678 1238 674 q 1236 685 1239 682 q 1233 684 1235 686 q 1231 681 1232 682 l 1219 676 q 1192 663 1206 671 q 1164 653 1178 656 q 1138 653 1150 650 q 1113 654 1125 656 q 1083 651 1097 654 q 1053 649 1068 647 q 1034 653 1043 650 q 1015 660 1025 657 q 987 665 1001 663 q 960 674 972 667 q 946 683 953 678 q 932 694 939 689 l 921 696 l 921 631 l 926 614 l 1215 614 q 1250 615 1231 614 q 1283 610 1269 617 q 1289 606 1286 608 q 1293 603 1292 604 q 1296 599 1294 601 q 1301 588 1299 596 q 1303 576 1303 585 l 1303 408 q 1303 398 1303 403 q 1303 389 1304 393 q 1297 376 1301 381 q 1288 365 1293 371 q 1285 361 1286 364 q 1282 357 1285 358 q 1280 357 1281 356 q 1276 358 1279 358 q 1271 356 1274 357 q 1265 353 1268 354 q 1238 346 1251 346 q 1229 347 1235 346 q 1221 346 1224 347 q 1210 338 1215 344 q 1200 326 1204 331 q 1182 311 1192 318 q 1164 297 1172 304 q 1149 283 1157 290 q 1131 271 1140 275 l 1240 271 q 1271 273 1254 271 q 1303 272 1288 275 q 1309 271 1306 271 q 1314 269 1313 271 q 1319 269 1317 269 q 1325 267 1322 268 q 1332 263 1328 265 q 1338 256 1336 260 q 1344 242 1343 250 q 1344 226 1344 235 l 1344 65 m 554 689 q 549 697 547 693 q 553 701 551 700 q 542 696 554 701 l 540 690 q 532 665 535 674 q 531 661 532 664 q 529 654 531 658 q 525 638 528 646 q 519 621 522 631 l 490 528 q 472 450 481 488 q 451 397 463 413 l 588 397 l 588 685 l 582 701 q 576 699 576 699 q 567 692 572 696 q 554 689 561 688 m 926 271 l 1069 271 q 1050 277 1060 274 q 1032 286 1040 281 q 1007 314 1018 299 q 976 336 996 329 q 932 354 953 344 l 921 353 l 921 288 l 926 271 m 1043 1250 q 1039 1237 1043 1240 q 1031 1229 1035 1233 q 1026 1224 1029 1226 q 1019 1218 1022 1221 q 981 1183 1001 1200 q 947 1144 961 1167 q 915 1092 931 1124 q 882 1030 899 1061 q 844 978 865 999 q 833 968 839 972 q 822 958 828 964 q 814 950 818 954 q 803 943 810 946 q 790 945 796 942 q 779 953 785 949 q 764 968 771 960 q 746 981 757 976 q 726 984 736 983 q 707 992 717 985 q 679 1015 692 1003 q 647 1035 667 1028 q 638 1040 643 1038 q 631 1042 633 1042 q 619 1040 625 1042 q 608 1038 614 1038 q 589 1038 600 1036 q 564 1042 578 1040 q 563 1042 563 1042 q 561 1043 563 1043 q 547 1060 550 1047 q 550 1076 546 1067 q 559 1090 554 1083 q 569 1101 564 1096 l 647 1194 q 679 1235 661 1215 q 696 1255 688 1244 q 715 1272 704 1265 q 747 1278 729 1279 q 778 1278 764 1278 l 1017 1278 q 1033 1272 1028 1278 q 1042 1263 1040 1268 q 1043 1256 1043 1260 q 1043 1250 1043 1253 z "},"B":{"ha":1019,"x_min":75,"x_max":981,"o":"m 981 285 q 972 221 981 257 q 889 82 951 136 q 886 79 888 81 q 883 76 885 78 q 888 40 883 60 q 892 1 892 19 q 879 -28 893 -17 q 867 -22 868 -37 q 871 18 867 -7 q 875 61 875 43 q 847 17 864 36 q 843 13 846 15 q 838 7 840 10 q 833 3 833 3 q 831 13 832 8 q 831 24 831 18 q 809 -5 819 10 q 788 -35 799 -19 q 756 -92 769 -62 q 721 -149 742 -122 q 701 -172 711 -160 q 681 -194 690 -183 q 672 -206 676 -200 q 661 -214 667 -211 q 656 -238 658 -221 q 649 -264 653 -256 q 647 -267 649 -265 q 643 -268 644 -269 q 640 -258 640 -264 q 638 -247 639 -253 q 636 -228 636 -237 q 633 -210 636 -219 q 627 -204 632 -208 q 621 -197 622 -200 q 619 -195 619 -196 q 618 -193 619 -194 l 611 -182 q 606 -173 608 -178 q 600 -164 603 -168 q 597 -162 600 -164 q 589 -156 594 -160 q 580 -142 583 -150 q 572 -129 576 -135 q 551 -95 561 -112 q 533 -60 542 -78 q 528 -47 531 -51 q 523 -35 526 -40 q 517 -22 519 -29 l 511 -25 q 509 -81 510 -53 q 506 -137 508 -110 q 503 -148 506 -142 q 500 -151 501 -154 q 497 -92 497 -121 q 494 -33 497 -62 q 493 -33 494 -31 q 489 -35 492 -35 q 483 -37 486 -37 l 475 -49 l 463 -69 q 449 -101 454 -85 q 436 -133 443 -118 l 432 -143 q 431 -145 432 -144 q 431 -147 431 -146 q 425 -156 428 -151 q 418 -162 422 -160 q 413 -165 415 -165 q 407 -199 408 -182 q 401 -231 406 -215 q 399 -238 400 -233 q 396 -243 399 -243 q 392 -238 393 -243 q 390 -231 392 -233 q 385 -200 386 -215 q 379 -169 385 -185 q 371 -178 375 -174 q 363 -185 367 -182 q 359 -197 361 -189 q 350 -196 357 -206 q 348 -190 349 -193 q 346 -183 347 -186 q 341 -176 343 -181 q 336 -169 339 -172 q 335 -168 336 -168 q 335 -167 335 -168 q 317 -133 325 -150 q 296 -101 310 -115 q 293 -97 294 -99 q 290 -94 292 -96 l 281 -86 q 274 -81 278 -83 q 268 -75 271 -78 q 256 -60 263 -68 q 240 -47 249 -53 q 234 -46 232 -44 q 238 -49 236 -47 q 231 -46 240 -50 q 222 -38 225 -43 q 211 -32 218 -33 q 193 -33 201 -31 q 175 -39 185 -36 q 158 -40 164 -42 q 153 -39 153 -40 q 150 -114 150 -69 q 147 -190 150 -158 q 145 -187 147 -193 q 142 -181 143 -182 q 134 -159 138 -169 q 128 -139 131 -149 q 127 -81 126 -110 q 121 -22 128 -51 q 120 -25 119 -14 q 120 -51 121 -36 q 114 -72 119 -65 q 110 -62 108 -79 q 111 -36 111 -46 l 101 1 q 92 7 96 4 q 76 38 76 18 l 76 896 q 76 915 76 906 q 76 935 75 925 q 79 950 76 944 q 88 963 82 956 q 114 972 100 972 l 282 972 q 332 972 296 972 q 414 972 368 972 q 503 972 460 972 q 575 972 546 972 q 613 972 594 972 q 647 969 631 971 q 658 969 653 969 q 668 968 663 968 q 694 966 682 967 q 719 963 707 965 q 733 960 726 961 q 744 957 739 958 q 749 956 747 957 q 760 953 756 954 q 768 949 764 951 q 776 946 772 947 q 783 943 779 944 q 874 893 835 925 q 882 887 878 890 q 889 881 886 883 q 900 868 896 874 q 918 843 908 860 q 932 822 926 833 q 942 797 938 810 q 958 714 954 760 q 959 659 961 686 q 947 615 957 632 q 944 608 946 611 q 940 600 943 604 q 931 582 936 590 q 918 565 925 574 q 913 558 915 563 q 907 551 910 554 l 894 539 q 882 528 890 536 q 881 509 881 518 q 879 490 881 500 q 895 480 888 486 q 906 471 903 474 l 926 450 q 950 417 938 439 q 981 306 981 364 l 981 285 m 435 732 l 424 733 l 424 607 l 542 607 q 554 608 549 607 q 581 630 569 614 q 594 664 592 646 q 594 686 596 675 q 588 707 593 697 q 574 722 583 715 q 574 723 574 722 q 572 724 574 724 q 551 730 563 731 q 529 728 540 729 q 501 726 515 726 q 474 728 488 726 q 454 729 464 728 q 435 732 444 731 m 424 239 l 551 239 q 569 242 558 239 q 608 281 596 249 q 608 340 619 314 l 606 347 q 597 357 603 351 q 561 367 583 371 q 521 363 539 364 q 494 363 507 361 q 467 367 481 365 q 450 370 458 369 q 435 372 442 371 l 424 364 l 424 239 z "},"C":{"ha":1018,"x_min":47,"x_max":986,"o":"m 919 143 l 911 135 q 905 126 908 131 q 897 119 901 122 q 890 111 896 117 q 886 108 888 108 l 874 96 q 867 88 868 90 q 861 64 864 76 q 856 40 858 51 q 850 18 853 29 q 844 -4 847 7 l 828 -64 q 824 -76 826 -69 q 819 -90 822 -83 q 807 -117 815 -104 l 803 -121 q 800 -124 801 -122 q 797 -126 799 -125 q 794 -135 796 -131 q 790 -144 793 -140 q 783 -144 788 -147 q 775 -135 774 -137 q 779 -133 776 -132 q 776 -136 782 -133 l 771 -139 q 769 -142 769 -140 q 768 -143 768 -143 q 760 -155 764 -149 q 753 -167 757 -161 q 749 -171 751 -168 q 742 -174 746 -174 q 735 -169 738 -174 l 732 -167 q 727 -156 729 -161 q 722 -144 725 -150 q 722 -142 722 -143 q 721 -140 721 -142 q 701 -88 711 -114 q 678 -37 690 -62 q 674 -31 675 -32 q 671 -30 672 -31 q 667 -29 669 -29 q 661 -29 661 -29 q 666 -74 660 -47 q 673 -119 672 -100 q 656 -137 674 -139 q 639 -117 639 -136 q 645 -74 639 -99 q 650 -32 651 -50 q 644 -47 649 -40 q 638 -61 640 -54 l 628 -78 q 624 -81 626 -79 q 619 -86 622 -83 l 618 -87 q 613 -90 613 -90 q 612 -119 611 -104 q 613 -150 613 -135 q 600 -126 610 -128 q 589 -135 592 -124 q 590 -108 589 -121 q 589 -82 590 -94 q 585 -81 588 -82 q 585 -79 583 -79 l 579 -74 l 563 -56 q 547 -42 554 -49 q 528 -25 539 -35 q 519 -17 517 -17 q 522 -19 521 -18 q 511 -14 524 -19 q 509 -24 508 -17 q 510 -31 510 -31 q 504 -14 510 -31 q 266 31 369 -11 q 106 165 163 74 q 69 247 82 204 q 61 268 65 256 q 60 272 61 271 q 60 275 60 274 q 51 330 54 296 q 49 398 49 364 q 49 453 49 432 q 48 506 49 472 q 49 576 47 540 q 53 638 50 613 q 54 649 54 644 q 56 660 54 654 q 56 662 56 661 q 57 664 57 663 q 78 747 64 708 q 115 817 93 785 q 140 849 124 832 q 300 952 203 918 q 517 986 397 986 l 550 986 q 557 985 554 986 q 771 938 671 979 q 929 815 871 897 q 948 788 940 803 q 961 756 956 772 q 976 708 971 733 q 983 658 982 683 q 984 652 983 657 q 985 647 985 647 l 985 646 q 985 635 985 640 q 985 625 986 631 q 983 622 983 624 q 982 617 983 619 q 978 611 979 614 l 976 610 q 968 600 974 606 q 963 593 964 596 q 960 590 963 590 q 958 593 958 590 q 954 597 957 596 q 953 597 956 599 q 949 594 950 594 q 932 586 938 592 q 918 572 924 581 q 906 557 913 564 q 899 550 903 554 q 892 543 896 546 q 883 550 883 542 q 876 554 883 558 q 870 550 875 554 q 865 546 865 546 q 847 531 857 539 q 825 522 838 524 q 812 525 818 522 q 799 529 806 528 q 776 540 788 535 q 754 549 765 546 q 728 555 742 553 q 704 564 715 557 q 688 576 696 569 q 671 588 679 582 q 668 590 669 589 q 664 592 667 590 q 658 596 660 596 q 658 594 658 596 q 657 589 657 592 q 656 585 656 588 q 653 582 656 583 q 650 585 650 579 q 649 588 649 586 q 647 590 649 589 q 643 599 643 594 q 638 608 640 603 q 626 624 631 615 q 613 656 618 640 q 593 686 607 672 q 590 690 592 689 q 588 693 589 692 q 585 694 586 693 q 585 694 585 694 q 581 697 582 697 q 576 697 581 697 q 568 699 571 697 q 561 697 564 699 q 558 695 560 697 q 554 694 557 693 q 553 697 553 694 q 538 681 543 692 q 526 661 532 669 q 519 648 524 656 q 508 638 515 640 q 505 635 507 636 q 503 635 503 633 q 501 665 500 650 q 499 693 501 679 q 491 682 494 688 q 483 671 488 676 q 477 665 482 669 q 469 663 472 661 q 464 665 467 663 q 456 674 458 668 q 450 685 453 681 q 449 690 449 688 q 446 694 449 693 l 442 690 q 432 678 438 686 q 431 676 432 676 q 431 675 431 676 q 430 674 431 674 q 429 672 429 674 q 419 650 424 664 q 413 615 414 632 l 413 590 q 411 551 411 571 q 411 511 411 531 l 411 424 q 412 397 411 410 q 413 369 413 383 q 413 358 413 364 q 414 344 414 351 q 415 340 415 343 q 417 335 415 338 q 418 329 417 331 q 422 319 419 324 q 425 308 424 314 q 465 280 438 290 q 523 268 492 269 q 578 278 554 267 q 592 288 585 282 q 604 300 599 293 q 614 318 610 307 q 619 331 617 325 q 622 342 621 336 q 628 354 625 349 q 640 367 632 360 q 644 368 643 368 q 647 369 646 368 q 662 373 654 372 q 678 374 669 374 q 694 373 686 374 q 710 372 703 372 l 914 372 q 931 373 917 372 q 954 372 944 374 q 975 364 967 372 q 985 347 983 356 q 986 338 986 343 q 986 328 986 333 l 982 296 q 939 172 972 228 q 919 143 932 158 m 949 594 q 949 594 949 594 q 949 594 949 594 l 949 594 m 590 -193 q 588 -161 589 -178 q 589 -135 586 -144 q 589 -163 589 -149 q 590 -193 589 -178 m 606 -221 q 604 -222 603 -231 q 609 -197 606 -214 q 613 -164 613 -181 q 611 -192 613 -178 q 606 -221 610 -207 m 590 -193 q 592 -207 592 -200 q 594 -218 593 -214 q 590 -193 590 -206 z "},"Ć":{"ha":1018,"x_min":47,"x_max":986,"o":"m 919 143 l 911 135 q 905 126 908 131 q 897 119 901 122 q 890 111 896 117 q 886 108 888 108 l 874 96 q 867 88 868 90 q 861 64 864 76 q 856 40 858 51 q 850 18 853 29 q 844 -4 847 7 l 828 -64 q 824 -76 826 -69 q 819 -90 822 -83 q 807 -117 815 -104 l 803 -121 q 800 -124 801 -122 q 797 -126 799 -125 q 794 -135 796 -131 q 790 -144 793 -140 q 783 -144 788 -147 q 775 -135 774 -137 q 779 -133 776 -132 q 776 -136 782 -133 l 771 -139 q 769 -142 769 -140 q 768 -143 768 -143 q 760 -155 764 -149 q 753 -167 757 -161 q 749 -171 751 -168 q 742 -174 746 -174 q 735 -169 738 -174 l 732 -167 q 727 -156 729 -161 q 722 -144 725 -150 q 722 -142 722 -143 q 721 -140 721 -142 q 701 -88 711 -114 q 678 -37 690 -62 q 674 -31 675 -32 q 671 -30 672 -31 q 667 -29 669 -29 q 661 -29 661 -29 q 666 -74 660 -47 q 673 -119 672 -100 q 656 -137 674 -139 q 639 -117 639 -136 q 645 -74 639 -99 q 650 -32 651 -50 q 644 -47 649 -40 q 638 -61 640 -54 l 628 -78 q 624 -81 626 -79 q 619 -86 622 -83 l 618 -87 q 613 -90 613 -90 q 612 -119 611 -104 q 613 -150 613 -135 q 600 -126 610 -128 q 589 -135 592 -124 q 590 -108 589 -121 q 589 -82 590 -94 q 585 -81 588 -82 q 585 -79 583 -79 l 579 -74 l 563 -56 q 547 -42 554 -49 q 528 -25 539 -35 q 519 -17 517 -17 q 522 -19 521 -18 q 511 -14 524 -19 q 509 -24 508 -17 q 510 -31 510 -31 q 504 -14 510 -31 q 266 31 369 -11 q 106 165 163 74 q 69 247 82 204 q 61 268 65 256 q 60 272 61 271 q 60 275 60 274 q 51 330 54 296 q 49 398 49 364 q 49 453 49 432 q 48 506 49 472 q 49 576 47 540 q 53 638 50 613 q 54 649 54 644 q 56 660 54 654 q 56 662 56 661 q 57 664 57 663 q 78 747 64 708 q 115 817 93 785 q 140 849 124 832 q 300 952 203 918 q 517 986 397 986 l 550 986 q 557 985 554 986 q 771 938 671 979 q 929 815 871 897 q 948 788 940 803 q 961 756 956 772 q 976 708 971 733 q 983 658 982 683 q 984 652 983 657 q 985 647 985 647 l 985 646 q 985 635 985 640 q 985 625 986 631 q 983 622 983 624 q 982 617 983 619 q 978 611 979 614 l 976 610 q 968 600 974 606 q 963 593 964 596 q 960 590 963 590 q 958 593 958 590 q 954 597 957 596 q 953 597 956 599 q 949 594 950 594 q 932 586 938 592 q 918 572 924 581 q 906 557 913 564 q 899 550 903 554 q 892 543 896 546 q 883 550 883 542 q 876 554 883 558 q 870 550 875 554 q 865 546 865 546 q 847 531 857 539 q 825 522 838 524 q 812 525 818 522 q 799 529 806 528 q 776 540 788 535 q 754 549 765 546 q 728 555 742 553 q 704 564 715 557 q 688 576 696 569 q 671 588 679 582 q 668 590 669 589 q 664 592 667 590 q 658 596 660 596 q 658 594 658 596 q 657 589 657 592 q 656 585 656 588 q 653 582 656 583 q 650 585 650 579 q 649 588 649 586 q 647 590 649 589 q 643 599 643 594 q 638 608 640 603 q 626 624 631 615 q 613 656 618 640 q 593 686 607 672 q 590 690 592 689 q 588 693 589 692 q 585 694 586 693 q 585 694 585 694 q 581 697 582 697 q 576 697 581 697 q 568 699 571 697 q 561 697 564 699 q 558 695 560 697 q 554 694 557 693 q 553 697 553 694 q 538 681 543 692 q 526 661 532 669 q 519 648 524 656 q 508 638 515 640 q 505 635 507 636 q 503 635 503 633 q 501 665 500 650 q 499 693 501 679 q 491 682 494 688 q 483 671 488 676 q 477 665 482 669 q 469 663 472 661 q 464 665 467 663 q 456 674 458 668 q 450 685 453 681 q 449 690 449 688 q 446 694 449 693 l 442 690 q 432 678 438 686 q 431 676 432 676 q 431 675 431 676 q 430 674 431 674 q 429 672 429 674 q 419 650 424 664 q 413 615 414 632 l 413 590 q 411 551 411 571 q 411 511 411 531 l 411 424 q 412 397 411 410 q 413 369 413 383 q 413 358 413 364 q 414 344 414 351 q 415 340 415 343 q 417 335 415 338 q 418 329 417 331 q 422 319 419 324 q 425 308 424 314 q 465 280 438 290 q 523 268 492 269 q 578 278 554 267 q 592 288 585 282 q 604 300 599 293 q 614 318 610 307 q 619 331 617 325 q 622 342 621 336 q 628 354 625 349 q 640 367 632 360 q 644 368 643 368 q 647 369 646 368 q 662 373 654 372 q 678 374 669 374 q 694 373 686 374 q 710 372 703 372 l 914 372 q 931 373 917 372 q 954 372 944 374 q 975 364 967 372 q 985 347 983 356 q 986 338 986 343 q 986 328 986 333 l 982 296 q 939 172 972 228 q 919 143 932 158 m 949 594 q 949 594 949 594 q 949 594 949 594 l 949 594 m 590 -193 q 588 -161 589 -178 q 589 -135 586 -144 q 589 -163 589 -149 q 590 -193 589 -178 m 606 -221 q 604 -222 603 -231 q 609 -197 606 -214 q 613 -164 613 -181 q 611 -192 613 -178 q 606 -221 610 -207 m 590 -193 q 592 -207 592 -200 q 594 -218 593 -214 q 590 -193 590 -206 m 854 1250 q 850 1237 854 1240 q 842 1229 846 1233 q 837 1224 840 1226 q 831 1218 833 1221 q 792 1183 813 1200 q 758 1144 772 1167 q 726 1092 742 1124 q 693 1030 710 1061 q 656 978 676 999 q 644 968 650 972 q 633 958 639 964 q 625 950 629 954 q 614 943 621 946 q 601 945 607 942 q 590 953 596 949 q 575 968 582 960 q 557 981 568 976 q 538 984 547 983 q 518 992 528 985 q 490 1015 503 1003 q 458 1035 478 1028 q 449 1040 454 1038 q 442 1042 444 1042 q 431 1040 436 1042 q 419 1038 425 1038 q 400 1038 411 1036 q 375 1042 389 1040 q 374 1042 374 1042 q 372 1043 374 1043 q 358 1060 361 1047 q 361 1076 357 1067 q 370 1090 365 1083 q 381 1101 375 1096 l 458 1194 q 490 1235 472 1215 q 507 1255 499 1244 q 526 1272 515 1265 q 558 1278 540 1279 q 589 1278 575 1278 l 828 1278 q 844 1272 839 1278 q 853 1263 851 1268 q 854 1256 854 1260 q 854 1250 854 1253 z "},"Č":{"ha":1018,"x_min":47,"x_max":986,"o":"m 919 143 l 911 135 q 905 126 908 131 q 897 119 901 122 q 890 111 896 117 q 886 108 888 108 l 874 96 q 867 88 868 90 q 861 64 864 76 q 856 40 858 51 q 850 18 853 29 q 844 -4 847 7 l 828 -64 q 824 -76 826 -69 q 819 -90 822 -83 q 807 -117 815 -104 l 803 -121 q 800 -124 801 -122 q 797 -126 799 -125 q 794 -135 796 -131 q 790 -144 793 -140 q 783 -144 788 -147 q 775 -135 774 -137 q 779 -133 776 -132 q 776 -136 782 -133 l 771 -139 q 769 -142 769 -140 q 768 -143 768 -143 q 760 -155 764 -149 q 753 -167 757 -161 q 749 -171 751 -168 q 742 -174 746 -174 q 735 -169 738 -174 l 732 -167 q 727 -156 729 -161 q 722 -144 725 -150 q 722 -142 722 -143 q 721 -140 721 -142 q 701 -88 711 -114 q 678 -37 690 -62 q 674 -31 675 -32 q 671 -30 672 -31 q 667 -29 669 -29 q 661 -29 661 -29 q 666 -74 660 -47 q 673 -119 672 -100 q 656 -137 674 -139 q 639 -117 639 -136 q 645 -74 639 -99 q 650 -32 651 -50 q 644 -47 649 -40 q 638 -61 640 -54 l 628 -78 q 624 -81 626 -79 q 619 -86 622 -83 l 618 -87 q 613 -90 613 -90 q 612 -119 611 -104 q 613 -150 613 -135 q 600 -126 610 -128 q 589 -135 592 -124 q 590 -108 589 -121 q 589 -82 590 -94 q 585 -81 588 -82 q 585 -79 583 -79 l 579 -74 l 563 -56 q 547 -42 554 -49 q 528 -25 539 -35 q 519 -17 517 -17 q 522 -19 521 -18 q 511 -14 524 -19 q 509 -24 508 -17 q 510 -31 510 -31 q 504 -14 510 -31 q 266 31 369 -11 q 106 165 163 74 q 69 247 82 204 q 61 268 65 256 q 60 272 61 271 q 60 275 60 274 q 51 330 54 296 q 49 398 49 364 q 49 453 49 432 q 48 506 49 472 q 49 576 47 540 q 53 638 50 613 q 54 649 54 644 q 56 660 54 654 q 56 662 56 661 q 57 664 57 663 q 78 747 64 708 q 115 817 93 785 q 140 849 124 832 q 300 952 203 918 q 517 986 397 986 l 550 986 q 557 985 554 986 q 771 938 671 979 q 929 815 871 897 q 948 788 940 803 q 961 756 956 772 q 976 708 971 733 q 983 658 982 683 q 984 652 983 657 q 985 647 985 647 l 985 646 q 985 635 985 640 q 985 625 986 631 q 983 622 983 624 q 982 617 983 619 q 978 611 979 614 l 976 610 q 968 600 974 606 q 963 593 964 596 q 960 590 963 590 q 958 593 958 590 q 954 597 957 596 q 953 597 956 599 q 949 594 950 594 q 932 586 938 592 q 918 572 924 581 q 906 557 913 564 q 899 550 903 554 q 892 543 896 546 q 883 550 883 542 q 876 554 883 558 q 870 550 875 554 q 865 546 865 546 q 847 531 857 539 q 825 522 838 524 q 812 525 818 522 q 799 529 806 528 q 776 540 788 535 q 754 549 765 546 q 728 555 742 553 q 704 564 715 557 q 688 576 696 569 q 671 588 679 582 q 668 590 669 589 q 664 592 667 590 q 658 596 660 596 q 658 594 658 596 q 657 589 657 592 q 656 585 656 588 q 653 582 656 583 q 650 585 650 579 q 649 588 649 586 q 647 590 649 589 q 643 599 643 594 q 638 608 640 603 q 626 624 631 615 q 613 656 618 640 q 593 686 607 672 q 590 690 592 689 q 588 693 589 692 q 585 694 586 693 q 585 694 585 694 q 581 697 582 697 q 576 697 581 697 q 568 699 571 697 q 561 697 564 699 q 558 695 560 697 q 554 694 557 693 q 553 697 553 694 q 538 681 543 692 q 526 661 532 669 q 519 648 524 656 q 508 638 515 640 q 505 635 507 636 q 503 635 503 633 q 501 665 500 650 q 499 693 501 679 q 491 682 494 688 q 483 671 488 676 q 477 665 482 669 q 469 663 472 661 q 464 665 467 663 q 456 674 458 668 q 450 685 453 681 q 449 690 449 688 q 446 694 449 693 l 442 690 q 432 678 438 686 q 431 676 432 676 q 431 675 431 676 q 430 674 431 674 q 429 672 429 674 q 419 650 424 664 q 413 615 414 632 l 413 590 q 411 551 411 571 q 411 511 411 531 l 411 424 q 412 397 411 410 q 413 369 413 383 q 413 358 413 364 q 414 344 414 351 q 415 340 415 343 q 417 335 415 338 q 418 329 417 331 q 422 319 419 324 q 425 308 424 314 q 465 280 438 290 q 523 268 492 269 q 578 278 554 267 q 592 288 585 282 q 604 300 599 293 q 614 318 610 307 q 619 331 617 325 q 622 342 621 336 q 628 354 625 349 q 640 367 632 360 q 644 368 643 368 q 647 369 646 368 q 662 373 654 372 q 678 374 669 374 q 694 373 686 374 q 710 372 703 372 l 914 372 q 931 373 917 372 q 954 372 944 374 q 975 364 967 372 q 985 347 983 356 q 986 338 986 343 q 986 328 986 333 l 982 296 q 939 172 972 228 q 919 143 932 158 m 949 594 q 949 594 949 594 q 949 594 949 594 l 949 594 m 590 -193 q 588 -161 589 -178 q 589 -135 586 -144 q 589 -163 589 -149 q 590 -193 589 -178 m 606 -221 q 604 -222 603 -231 q 609 -197 606 -214 q 613 -164 613 -181 q 611 -192 613 -178 q 606 -221 610 -207 m 590 -193 q 592 -207 592 -200 q 594 -218 593 -214 q 590 -193 590 -206 m 811 1268 q 811 1243 818 1257 q 801 1230 807 1236 q 789 1217 794 1224 q 759 1184 775 1200 q 728 1151 743 1168 l 685 1106 q 666 1083 675 1094 q 646 1063 657 1072 q 638 1056 640 1057 q 615 1038 628 1046 q 589 1031 601 1029 q 573 1036 581 1032 q 556 1039 565 1040 q 542 1034 549 1038 q 529 1029 536 1031 q 512 1032 519 1028 q 496 1038 504 1036 q 477 1036 486 1039 q 458 1035 468 1033 q 439 1038 449 1035 q 419 1042 429 1040 l 413 1042 q 408 1043 410 1042 q 368 1068 389 1044 l 232 1217 q 220 1228 226 1222 q 211 1240 214 1235 q 206 1256 206 1246 q 224 1278 206 1275 l 276 1278 q 310 1278 293 1278 q 344 1278 328 1279 q 360 1275 351 1276 q 376 1271 368 1274 q 401 1260 389 1265 q 426 1247 414 1254 l 510 1210 l 533 1221 l 549 1228 q 596 1250 572 1239 q 643 1271 619 1261 q 694 1279 667 1281 q 747 1278 722 1278 q 773 1279 760 1278 q 797 1278 786 1281 l 806 1274 q 811 1268 810 1272 z "},"Ç":{"ha":1018,"x_min":49,"x_max":986,"o":"m 954 372 q 985 346 981 372 q 985 339 986 343 q 985 331 985 335 q 983 318 985 322 q 983 310 983 314 q 982 301 983 306 q 981 293 982 297 q 981 286 981 289 q 979 282 979 285 q 978 276 979 279 q 931 160 965 208 l 922 147 q 921 145 921 146 q 919 143 921 144 q 919 142 919 142 q 918 140 918 142 q 915 138 917 139 q 913 135 914 136 q 910 132 911 133 q 907 129 910 131 q 903 125 906 128 q 897 119 900 122 q 889 110 897 118 q 878 101 883 106 q 868 92 874 96 q 861 76 864 85 q 856 60 858 68 q 849 49 853 54 q 842 39 846 43 q 838 33 840 36 q 835 30 836 32 q 832 29 833 28 q 831 42 831 33 q 822 41 825 39 q 817 44 819 43 l 813 49 q 811 37 811 43 q 808 24 811 31 q 797 25 807 22 q 794 19 794 22 q 792 17 793 18 q 788 14 790 15 q 782 11 785 11 q 776 4 779 6 q 767 6 769 0 q 758 13 764 13 q 754 10 756 13 q 750 6 753 8 q 749 -8 749 -1 q 747 -21 749 -14 q 740 -38 746 -29 q 731 -54 735 -47 q 724 -67 728 -60 q 715 -79 721 -74 q 713 -82 714 -81 q 710 -85 711 -83 q 704 -89 704 -90 q 702 -50 703 -69 q 699 -11 701 -31 q 698 -12 699 -11 q 696 -12 697 -12 q 694 -13 694 -12 q 693 -14 694 -14 q 695 -43 692 -25 q 699 -74 699 -61 q 688 -86 700 -87 q 676 -72 676 -83 q 678 -44 675 -60 q 682 -17 682 -29 q 678 -18 678 -17 q 675 -58 675 -37 q 672 -99 675 -79 q 669 -96 671 -100 q 667 -90 668 -92 q 663 -85 665 -87 q 661 -78 661 -82 q 659 -52 660 -65 q 657 -26 658 -39 q 656 -29 656 -28 q 656 -31 656 -31 q 651 -45 654 -37 q 646 -60 649 -53 q 642 -72 644 -65 q 636 -85 639 -78 q 633 -94 635 -90 q 631 -103 632 -99 q 629 -106 629 -104 q 628 -108 629 -107 q 640 -137 636 -121 q 641 -140 640 -139 q 642 -142 642 -140 q 646 -189 649 -165 q 640 -219 644 -204 q 626 -249 636 -235 q 616 -262 621 -257 q 607 -272 611 -268 q 605 -274 606 -274 q 603 -275 604 -274 q 599 -278 600 -278 l 599 -279 q 593 -298 594 -289 q 589 -318 592 -307 q 587 -331 588 -322 q 583 -335 586 -339 q 581 -328 581 -329 q 579 -328 579 -328 q 579 -329 579 -329 l 572 -340 q 569 -344 572 -342 q 569 -345 569 -344 q 567 -346 568 -346 q 565 -347 565 -346 q 564 -347 565 -347 q 562 -392 563 -369 q 558 -437 561 -414 q 555 -435 557 -439 q 551 -428 553 -431 q 549 -386 550 -407 q 546 -343 549 -365 l 538 -335 q 535 -331 536 -332 q 532 -328 533 -329 q 524 -318 529 -324 q 523 -330 522 -324 q 519 -340 524 -336 q 516 -335 517 -342 q 514 -322 515 -328 l 510 -308 q 508 -311 508 -310 q 506 -328 507 -322 q 506 -335 506 -335 q 501 -306 506 -335 l 494 -306 q 456 -298 476 -303 q 419 -283 436 -293 q 412 -278 415 -281 q 406 -274 408 -275 q 395 -260 400 -268 q 394 -243 390 -253 q 404 -231 400 -235 q 414 -224 408 -228 q 421 -218 419 -219 q 440 -203 431 -208 q 453 -201 444 -201 q 463 -203 456 -203 l 458 -199 q 453 -192 456 -196 q 449 -185 451 -187 q 440 -166 443 -175 q 433 -147 438 -157 l 424 -137 q 403 -120 414 -129 q 393 -97 393 -111 q 395 -88 393 -93 q 399 -78 397 -83 q 399 -76 399 -76 q 400 -75 400 -76 q 401 -73 400 -74 q 401 -71 401 -72 q 404 -65 403 -68 q 407 -61 406 -62 q 410 -54 407 -57 l 413 -46 q 418 -33 415 -42 l 421 -26 q 425 -17 421 -25 q 429 -8 429 -8 l 419 -7 q 417 -15 418 -10 q 413 -22 415 -19 q 407 -19 411 -24 q 404 -14 404 -17 q 401 -19 401 -19 q 396 -21 397 -24 q 394 -17 394 -19 q 389 -22 393 -18 q 385 -28 385 -26 q 383 -33 383 -29 q 379 -35 381 -36 q 378 -31 378 -36 q 377 -21 376 -26 q 376 -11 378 -15 q 374 -11 376 -6 q 372 -21 372 -12 q 374 -31 372 -26 q 375 -43 375 -36 q 368 -51 375 -51 l 365 -51 l 365 -53 q 358 -67 365 -65 q 353 -67 356 -67 q 351 -65 347 -65 q 353 -69 356 -64 q 351 -81 353 -75 q 342 -86 349 -86 q 331 -78 333 -86 q 329 -69 329 -75 q 331 -60 329 -64 l 336 -22 l 336 -14 q 331 -12 336 -11 q 325 -12 326 -12 q 320 -12 321 -12 q 319 -18 319 -11 l 319 -25 q 320 -30 319 -28 q 321 -35 321 -32 q 322 -37 321 -32 q 322 -44 322 -42 q 324 -48 324 -46 q 325 -53 324 -50 q 331 -79 328 -65 q 331 -104 333 -93 l 328 -111 q 321 -117 326 -114 q 319 -117 319 -117 q 319 -118 319 -118 q 317 -147 318 -132 q 314 -178 317 -162 q 311 -183 314 -179 q 308 -186 308 -187 q 306 -156 306 -171 q 304 -125 306 -140 q 299 -133 303 -129 q 293 -139 296 -136 q 279 -132 282 -149 q 272 -129 278 -132 q 258 -112 263 -124 q 256 -100 256 -104 q 256 -78 254 -89 q 258 -58 257 -68 q 267 -10 264 -33 l 267 3 q 261 6 267 3 q 257 11 258 8 q 254 14 256 13 q 251 17 253 15 l 251 10 q 251 3 250 7 q 251 -3 251 0 q 253 -22 251 -12 q 254 -43 254 -32 q 254 -49 254 -44 q 251 -54 254 -54 q 246 -51 250 -56 q 240 -42 243 -50 q 239 -35 239 -40 q 238 -17 238 -26 q 240 1 239 -8 q 241 3 240 -4 q 242 15 242 11 l 242 24 l 235 24 l 235 18 q 235 2 235 8 q 232 0 235 -4 q 227 14 226 4 q 228 26 228 24 q 222 29 222 29 q 208 39 213 33 q 200 49 203 44 l 199 50 q 197 53 197 50 q 193 57 196 56 q 193 29 192 47 q 189 18 194 11 q 185 38 183 26 q 186 60 186 49 q 183 63 186 60 q 181 54 183 54 q 176 61 175 56 q 175 72 176 67 l 172 88 q 171 88 171 88 q 171 89 171 89 q 158 100 163 97 l 150 108 q 119 143 132 124 q 114 150 117 146 q 108 160 111 154 q 97 183 103 171 q 85 207 90 194 l 81 215 q 65 256 71 229 q 56 315 58 283 q 51 363 51 339 q 49 426 50 393 q 50 493 49 458 q 49 565 49 525 q 53 635 50 606 q 56 658 54 646 q 58 682 57 671 q 65 710 61 697 q 72 731 68 722 q 76 740 75 736 q 79 750 78 744 q 85 761 82 756 q 89 772 88 767 q 90 775 90 772 q 99 792 94 783 q 110 808 104 801 q 275 942 168 899 q 517 986 382 986 l 542 986 q 764 942 660 982 q 928 818 868 901 q 937 805 932 813 q 944 789 942 797 q 950 780 947 785 q 954 771 953 775 q 960 761 957 767 q 964 749 963 756 q 977 704 972 726 q 983 658 982 682 q 985 642 985 651 q 985 625 986 633 q 983 622 983 624 q 982 617 983 619 q 967 600 978 608 q 960 593 963 593 q 954 597 958 593 q 949 599 950 597 q 943 597 947 597 q 938 596 939 597 q 928 593 932 594 q 919 589 924 592 q 901 579 910 585 q 882 571 893 574 q 826 564 854 560 q 811 568 819 565 q 796 574 803 571 q 782 568 790 571 q 768 569 775 567 q 754 572 761 571 q 735 580 744 575 q 715 588 725 585 q 699 590 707 589 q 683 592 692 590 q 674 592 679 592 q 664 594 669 593 q 662 595 663 594 q 658 596 661 596 q 658 594 658 596 q 657 590 657 593 q 656 587 656 589 q 653 583 656 585 q 644 596 650 582 l 643 597 q 639 606 642 600 q 636 610 636 611 l 636 611 q 628 621 631 617 q 627 622 628 622 q 626 624 626 622 q 626 626 626 625 q 625 628 625 626 q 624 628 624 628 q 624 629 624 629 q 618 642 621 636 q 613 654 615 649 q 606 669 610 661 q 597 682 603 676 q 579 696 589 692 q 566 674 569 689 q 560 647 563 658 q 555 634 558 644 q 549 621 551 624 q 541 624 544 618 q 538 629 538 629 q 532 644 532 644 q 533 643 532 643 q 526 657 533 643 l 521 663 l 521 660 q 519 651 521 654 l 519 608 q 519 536 518 578 q 517 463 519 494 q 516 456 517 461 q 515 451 515 450 q 510 438 515 450 q 503 424 506 426 q 497 421 501 421 q 489 435 492 422 q 484 451 486 443 q 481 465 482 460 q 479 472 479 468 q 478 478 479 475 q 465 556 469 510 q 456 632 461 601 q 452 663 453 647 q 446 693 451 679 q 440 688 443 692 q 435 682 438 685 l 433 681 q 433 679 433 679 q 432 678 432 679 q 428 671 431 676 q 425 665 426 668 q 422 660 424 663 q 422 658 422 658 q 421 654 421 657 q 414 617 414 636 q 413 615 414 615 q 413 613 413 614 l 413 590 q 412 580 413 586 q 411 567 411 574 l 411 433 q 412 410 411 422 q 413 386 413 397 q 413 367 413 376 q 414 349 413 358 q 417 333 415 340 q 421 318 419 325 q 429 300 424 308 q 473 273 444 282 q 533 266 501 264 q 586 282 564 268 q 596 290 592 286 q 604 299 600 294 l 613 315 q 620 335 617 325 q 629 354 624 346 q 640 367 631 357 q 644 368 643 368 q 647 369 646 368 q 681 374 663 375 q 715 372 700 372 l 954 372 m 642 599 l 643 597 q 642 599 643 596 m 282 -32 q 281 -19 282 -25 q 278 -7 279 -12 q 278 -31 276 -17 q 282 -61 281 -46 q 283 -45 282 -53 q 282 -32 283 -37 m 351 -29 q 353 -21 353 -26 q 351 -11 353 -11 q 349 -10 350 -11 q 347 -12 349 -11 q 350 -43 346 -24 l 351 -29 m 364 -11 q 360 -23 360 -15 q 363 -39 361 -31 q 363 -30 363 -35 q 364 -24 364 -25 l 365 -12 q 364 -11 365 -11 m 304 -14 q 303 -31 303 -22 q 306 -51 304 -40 q 308 -31 307 -40 q 307 -12 310 -21 q 306 -13 307 -12 q 304 -14 306 -14 m 618 -43 q 617 -37 618 -40 q 617 -32 617 -35 q 611 -33 615 -31 q 603 -33 607 -33 q 594 -35 599 -33 q 584 -32 589 -35 q 572 -28 579 -29 q 559 -28 567 -26 q 544 -29 551 -31 q 529 -22 535 -26 q 518 -14 524 -18 l 517 -14 l 504 -39 q 497 -53 500 -46 q 496 -56 496 -54 q 494 -58 496 -57 q 494 -59 494 -58 q 492 -62 493 -60 q 498 -60 494 -60 q 501 -60 501 -60 l 503 -60 q 514 -58 504 -58 q 528 -56 522 -56 l 546 -56 q 551 -56 549 -56 q 554 -57 553 -57 q 619 -96 596 -62 l 619 -75 q 619 -62 619 -72 q 618 -43 618 -53 m 479 -207 q 478 -208 479 -207 q 478 -210 478 -208 q 484 -211 481 -211 q 490 -212 488 -211 q 508 -214 496 -214 l 517 -214 q 519 -212 518 -212 q 531 -208 525 -212 q 547 -179 547 -199 q 545 -168 547 -171 q 540 -161 543 -165 q 529 -153 539 -156 q 524 -158 528 -154 q 519 -162 521 -161 q 513 -171 517 -167 q 506 -181 508 -175 q 505 -181 506 -181 q 504 -183 504 -182 q 497 -191 501 -186 q 492 -197 493 -196 l 490 -199 q 485 -203 489 -200 q 479 -207 482 -206 z "},"Ĉ":{"ha":1018,"x_min":47,"x_max":986,"o":"m 919 143 l 911 135 q 905 126 908 131 q 897 119 901 122 q 890 111 896 117 q 886 108 888 108 l 874 96 q 867 88 868 90 q 861 64 864 76 q 856 40 858 51 q 850 18 853 29 q 844 -4 847 7 l 828 -64 q 824 -76 826 -69 q 819 -90 822 -83 q 807 -117 815 -104 l 803 -121 q 800 -124 801 -122 q 797 -126 799 -125 q 794 -135 796 -131 q 790 -144 793 -140 q 783 -144 788 -147 q 775 -135 774 -137 q 779 -133 776 -132 q 776 -136 782 -133 l 771 -139 q 769 -142 769 -140 q 768 -143 768 -143 q 760 -155 764 -149 q 753 -167 757 -161 q 749 -171 751 -168 q 742 -174 746 -174 q 735 -169 738 -174 l 732 -167 q 727 -156 729 -161 q 722 -144 725 -150 q 722 -142 722 -143 q 721 -140 721 -142 q 701 -88 711 -114 q 678 -37 690 -62 q 674 -31 675 -32 q 671 -30 672 -31 q 667 -29 669 -29 q 661 -29 661 -29 q 666 -74 660 -47 q 673 -119 672 -100 q 656 -137 674 -139 q 639 -117 639 -136 q 645 -74 639 -99 q 650 -32 651 -50 q 644 -47 649 -40 q 638 -61 640 -54 l 628 -78 q 624 -81 626 -79 q 619 -86 622 -83 l 618 -87 q 613 -90 613 -90 q 612 -119 611 -104 q 613 -150 613 -135 q 600 -126 610 -128 q 589 -135 592 -124 q 590 -108 589 -121 q 589 -82 590 -94 q 585 -81 588 -82 q 585 -79 583 -79 l 579 -74 l 563 -56 q 547 -42 554 -49 q 528 -25 539 -35 q 519 -17 517 -17 q 522 -19 521 -18 q 511 -14 524 -19 q 509 -24 508 -17 q 510 -31 510 -31 q 504 -14 510 -31 q 266 31 369 -11 q 106 165 163 74 q 69 247 82 204 q 61 268 65 256 q 60 272 61 271 q 60 275 60 274 q 51 330 54 296 q 49 398 49 364 q 49 453 49 432 q 48 506 49 472 q 49 576 47 540 q 53 638 50 613 q 54 649 54 644 q 56 660 54 654 q 56 662 56 661 q 57 664 57 663 q 78 747 64 708 q 115 817 93 785 q 140 849 124 832 q 300 952 203 918 q 517 986 397 986 l 550 986 q 557 985 554 986 q 771 938 671 979 q 929 815 871 897 q 948 788 940 803 q 961 756 956 772 q 976 708 971 733 q 983 658 982 683 q 984 652 983 657 q 985 647 985 647 l 985 646 q 985 635 985 640 q 985 625 986 631 q 983 622 983 624 q 982 617 983 619 q 978 611 979 614 l 976 610 q 968 600 974 606 q 963 593 964 596 q 960 590 963 590 q 958 593 958 590 q 954 597 957 596 q 953 597 956 599 q 949 594 950 594 q 932 586 938 592 q 918 572 924 581 q 906 557 913 564 q 899 550 903 554 q 892 543 896 546 q 883 550 883 542 q 876 554 883 558 q 870 550 875 554 q 865 546 865 546 q 847 531 857 539 q 825 522 838 524 q 812 525 818 522 q 799 529 806 528 q 776 540 788 535 q 754 549 765 546 q 728 555 742 553 q 704 564 715 557 q 688 576 696 569 q 671 588 679 582 q 668 590 669 589 q 664 592 667 590 q 658 596 660 596 q 658 594 658 596 q 657 589 657 592 q 656 585 656 588 q 653 582 656 583 q 650 585 650 579 q 649 588 649 586 q 647 590 649 589 q 643 599 643 594 q 638 608 640 603 q 626 624 631 615 q 613 656 618 640 q 593 686 607 672 q 590 690 592 689 q 588 693 589 692 q 585 694 586 693 q 585 694 585 694 q 581 697 582 697 q 576 697 581 697 q 568 699 571 697 q 561 697 564 699 q 558 695 560 697 q 554 694 557 693 q 553 697 553 694 q 538 681 543 692 q 526 661 532 669 q 519 648 524 656 q 508 638 515 640 q 505 635 507 636 q 503 635 503 633 q 501 665 500 650 q 499 693 501 679 q 491 682 494 688 q 483 671 488 676 q 477 665 482 669 q 469 663 472 661 q 464 665 467 663 q 456 674 458 668 q 450 685 453 681 q 449 690 449 688 q 446 694 449 693 l 442 690 q 432 678 438 686 q 431 676 432 676 q 431 675 431 676 q 430 674 431 674 q 429 672 429 674 q 419 650 424 664 q 413 615 414 632 l 413 590 q 411 551 411 571 q 411 511 411 531 l 411 424 q 412 397 411 410 q 413 369 413 383 q 413 358 413 364 q 414 344 414 351 q 415 340 415 343 q 417 335 415 338 q 418 329 417 331 q 422 319 419 324 q 425 308 424 314 q 465 280 438 290 q 523 268 492 269 q 578 278 554 267 q 592 288 585 282 q 604 300 599 293 q 614 318 610 307 q 619 331 617 325 q 622 342 621 336 q 628 354 625 349 q 640 367 632 360 q 644 368 643 368 q 647 369 646 368 q 662 373 654 372 q 678 374 669 374 q 694 373 686 374 q 710 372 703 372 l 914 372 q 931 373 917 372 q 954 372 944 374 q 975 364 967 372 q 985 347 983 356 q 986 338 986 343 q 986 328 986 333 l 982 296 q 939 172 972 228 q 919 143 932 158 m 949 594 q 949 594 949 594 q 949 594 949 594 l 949 594 m 590 -193 q 588 -161 589 -178 q 589 -135 586 -144 q 589 -163 589 -149 q 590 -193 589 -178 m 606 -221 q 604 -222 603 -231 q 609 -197 606 -214 q 613 -164 613 -181 q 611 -192 613 -178 q 606 -221 610 -207 m 590 -193 q 592 -207 592 -200 q 594 -218 593 -214 q 590 -193 590 -206 m 814 1064 q 807 1047 814 1054 q 797 1042 804 1044 q 784 1040 792 1040 q 769 1038 776 1039 q 726 1024 746 1033 q 707 1013 717 1018 q 688 1000 697 1007 q 678 995 682 999 q 669 989 675 992 q 667 988 668 989 q 665 986 667 986 q 653 981 665 979 q 646 986 649 981 q 638 978 646 974 q 629 1003 624 983 q 632 1039 635 1024 q 628 1042 632 1042 q 622 1043 625 1042 q 618 1044 618 1043 q 619 1018 617 1035 q 622 990 622 1001 q 613 983 622 979 q 605 1011 599 990 q 608 1049 611 1032 q 604 1052 607 1051 q 599 1054 601 1053 q 595 1056 597 1054 q 593 1056 593 1058 q 594 1030 592 1046 q 597 1003 597 1014 q 589 997 597 993 q 581 1025 575 1004 q 583 1061 586 1046 q 582 1063 583 1063 q 579 1064 581 1063 q 576 1066 578 1064 q 574 1067 574 1068 q 574 1044 572 1058 q 576 1021 576 1031 q 568 1015 576 1011 q 562 1040 557 1022 q 564 1072 567 1058 q 558 1075 564 1072 q 554 1078 554 1079 q 554 1051 551 1068 q 549 1040 557 1035 q 543 1060 539 1047 q 544 1085 547 1074 q 539 1088 540 1089 q 539 1071 538 1082 q 535 1063 540 1060 q 531 1078 528 1068 q 529 1094 533 1089 q 528 1090 528 1099 q 525 1078 528 1081 q 522 1080 524 1076 q 519 1085 521 1083 q 511 1096 515 1092 q 500 1101 507 1100 q 488 1094 493 1104 q 475 1079 482 1083 q 456 1076 465 1072 q 451 1080 454 1078 q 446 1081 449 1082 q 444 1078 444 1079 q 440 1074 443 1076 q 433 1065 438 1069 q 421 1058 428 1061 q 409 1058 415 1057 q 397 1056 403 1058 q 379 1049 388 1054 q 360 1042 371 1043 q 351 1041 356 1040 q 343 1042 347 1042 q 335 1040 339 1040 q 326 1039 331 1039 q 305 1039 317 1038 q 282 1040 293 1040 q 251 1040 268 1040 q 222 1042 235 1040 q 221 1042 221 1042 q 219 1043 221 1043 q 206 1060 208 1047 q 208 1076 204 1067 q 219 1090 213 1083 q 231 1103 225 1097 l 254 1126 l 281 1157 q 326 1206 304 1181 q 368 1251 349 1232 q 411 1278 389 1274 q 424 1278 418 1279 q 436 1278 431 1278 l 572 1278 q 599 1278 585 1278 q 624 1274 613 1279 q 647 1258 636 1268 q 668 1233 658 1247 q 688 1213 678 1224 q 708 1190 699 1201 l 749 1146 q 767 1126 756 1139 q 789 1101 779 1113 q 794 1096 789 1101 q 801 1088 797 1092 q 808 1081 806 1085 q 813 1072 813 1076 q 814 1064 814 1067 m 646 999 q 648 1017 646 1007 q 649 1033 650 1026 q 645 1035 647 1035 q 643 1035 643 1036 q 646 999 642 1021 z "},"Ċ":{"ha":1018,"x_min":47,"x_max":986,"o":"m 919 143 l 911 135 q 905 126 908 131 q 897 119 901 122 q 890 111 896 117 q 886 108 888 108 l 874 96 q 867 88 868 90 q 861 64 864 76 q 856 40 858 51 q 850 18 853 29 q 844 -4 847 7 l 828 -64 q 824 -76 826 -69 q 819 -90 822 -83 q 807 -117 815 -104 l 803 -121 q 800 -124 801 -122 q 797 -126 799 -125 q 794 -135 796 -131 q 790 -144 793 -140 q 783 -144 788 -147 q 775 -135 774 -137 q 779 -133 776 -132 q 776 -136 782 -133 l 771 -139 q 769 -142 769 -140 q 768 -143 768 -143 q 760 -155 764 -149 q 753 -167 757 -161 q 749 -171 751 -168 q 742 -174 746 -174 q 735 -169 738 -174 l 732 -167 q 727 -156 729 -161 q 722 -144 725 -150 q 722 -142 722 -143 q 721 -140 721 -142 q 701 -88 711 -114 q 678 -37 690 -62 q 674 -31 675 -32 q 671 -30 672 -31 q 667 -29 669 -29 q 661 -29 661 -29 q 666 -74 660 -47 q 673 -119 672 -100 q 656 -137 674 -139 q 639 -117 639 -136 q 645 -74 639 -99 q 650 -32 651 -50 q 644 -47 649 -40 q 638 -61 640 -54 l 628 -78 q 624 -81 626 -79 q 619 -86 622 -83 l 618 -87 q 613 -90 613 -90 q 612 -119 611 -104 q 613 -150 613 -135 q 600 -126 610 -128 q 589 -135 592 -124 q 590 -108 589 -121 q 589 -82 590 -94 q 585 -81 588 -82 q 585 -79 583 -79 l 579 -74 l 563 -56 q 547 -42 554 -49 q 528 -25 539 -35 q 519 -17 517 -17 q 522 -19 521 -18 q 511 -14 524 -19 q 509 -24 508 -17 q 510 -31 510 -31 q 504 -14 510 -31 q 266 31 369 -11 q 106 165 163 74 q 69 247 82 204 q 61 268 65 256 q 60 272 61 271 q 60 275 60 274 q 51 330 54 296 q 49 398 49 364 q 49 453 49 432 q 48 506 49 472 q 49 576 47 540 q 53 638 50 613 q 54 649 54 644 q 56 660 54 654 q 56 662 56 661 q 57 664 57 663 q 78 747 64 708 q 115 817 93 785 q 140 849 124 832 q 300 952 203 918 q 517 986 397 986 l 550 986 q 557 985 554 986 q 771 938 671 979 q 929 815 871 897 q 948 788 940 803 q 961 756 956 772 q 976 708 971 733 q 983 658 982 683 q 984 652 983 657 q 985 647 985 647 l 985 646 q 985 635 985 640 q 985 625 986 631 q 983 622 983 624 q 982 617 983 619 q 978 611 979 614 l 976 610 q 968 600 974 606 q 963 593 964 596 q 960 590 963 590 q 958 593 958 590 q 954 597 957 596 q 953 597 956 599 q 949 594 950 594 q 932 586 938 592 q 918 572 924 581 q 906 557 913 564 q 899 550 903 554 q 892 543 896 546 q 883 550 883 542 q 876 554 883 558 q 870 550 875 554 q 865 546 865 546 q 847 531 857 539 q 825 522 838 524 q 812 525 818 522 q 799 529 806 528 q 776 540 788 535 q 754 549 765 546 q 728 555 742 553 q 704 564 715 557 q 688 576 696 569 q 671 588 679 582 q 668 590 669 589 q 664 592 667 590 q 658 596 660 596 q 658 594 658 596 q 657 589 657 592 q 656 585 656 588 q 653 582 656 583 q 650 585 650 579 q 649 588 649 586 q 647 590 649 589 q 643 599 643 594 q 638 608 640 603 q 626 624 631 615 q 613 656 618 640 q 593 686 607 672 q 590 690 592 689 q 588 693 589 692 q 585 694 586 693 q 585 694 585 694 q 581 697 582 697 q 576 697 581 697 q 568 699 571 697 q 561 697 564 699 q 558 695 560 697 q 554 694 557 693 q 553 697 553 694 q 538 681 543 692 q 526 661 532 669 q 519 648 524 656 q 508 638 515 640 q 505 635 507 636 q 503 635 503 633 q 501 665 500 650 q 499 693 501 679 q 491 682 494 688 q 483 671 488 676 q 477 665 482 669 q 469 663 472 661 q 464 665 467 663 q 456 674 458 668 q 450 685 453 681 q 449 690 449 688 q 446 694 449 693 l 442 690 q 432 678 438 686 q 431 676 432 676 q 431 675 431 676 q 430 674 431 674 q 429 672 429 674 q 419 650 424 664 q 413 615 414 632 l 413 590 q 411 551 411 571 q 411 511 411 531 l 411 424 q 412 397 411 410 q 413 369 413 383 q 413 358 413 364 q 414 344 414 351 q 415 340 415 343 q 417 335 415 338 q 418 329 417 331 q 422 319 419 324 q 425 308 424 314 q 465 280 438 290 q 523 268 492 269 q 578 278 554 267 q 592 288 585 282 q 604 300 599 293 q 614 318 610 307 q 619 331 617 325 q 622 342 621 336 q 628 354 625 349 q 640 367 632 360 q 644 368 643 368 q 647 369 646 368 q 662 373 654 372 q 678 374 669 374 q 694 373 686 374 q 710 372 703 372 l 914 372 q 931 373 917 372 q 954 372 944 374 q 975 364 967 372 q 985 347 983 356 q 986 338 986 343 q 986 328 986 333 l 982 296 q 939 172 972 228 q 919 143 932 158 m 949 594 q 949 594 949 594 q 949 594 949 594 l 949 594 m 590 -193 q 588 -161 589 -178 q 589 -135 586 -144 q 589 -163 589 -149 q 590 -193 589 -178 m 606 -221 q 604 -222 603 -231 q 609 -197 606 -214 q 613 -164 613 -181 q 611 -192 613 -178 q 606 -221 610 -207 m 590 -193 q 592 -207 592 -200 q 594 -218 593 -214 q 590 -193 590 -206 m 636 1071 q 626 1050 636 1060 q 604 1040 617 1040 q 596 1041 600 1040 q 588 1040 592 1042 q 565 1023 574 1035 q 543 1006 557 1011 q 517 1010 531 1001 q 493 1024 504 1018 q 468 1031 481 1029 q 443 1033 456 1032 q 415 1042 431 1035 l 408 1042 q 406 1042 407 1042 q 404 1043 406 1043 q 395 1049 399 1046 q 389 1056 392 1053 q 384 1068 385 1063 q 383 1079 383 1074 l 383 1224 q 383 1244 383 1232 q 383 1265 382 1256 q 394 1286 385 1278 q 415 1294 403 1294 q 430 1295 422 1296 q 443 1294 438 1294 l 604 1294 q 625 1288 615 1294 q 629 1282 628 1285 q 635 1269 635 1275 q 636 1258 636 1264 l 636 1113 q 637 1093 636 1104 q 636 1071 638 1082 z "},"D":{"ha":1028,"x_min":25,"x_max":982,"o":"m 979 475 l 979 432 q 978 382 979 410 q 974 331 978 354 q 964 283 969 306 q 950 238 958 260 q 940 210 944 222 q 929 192 936 199 q 928 190 929 190 q 928 189 928 190 q 910 160 918 171 q 896 141 904 150 q 879 124 888 132 q 865 110 872 117 q 850 96 857 103 q 849 96 850 96 q 849 94 849 96 q 835 74 842 88 q 833 71 833 72 q 832 68 833 69 l 828 61 q 826 58 826 60 q 824 56 825 56 q 810 38 818 46 q 794 24 803 32 q 775 14 785 17 l 768 14 q 765 2 767 8 q 760 -10 763 -4 q 758 -14 758 -11 q 754 -19 757 -17 q 751 -22 753 -21 q 750 -26 750 -24 q 748 -72 749 -42 q 747 -137 747 -103 q 746 -201 746 -171 q 744 -247 746 -232 q 739 -243 744 -249 q 737 -235 738 -239 q 733 -226 736 -231 l 719 -164 q 713 -112 713 -143 q 713 -52 713 -82 q 708 -1 714 -22 q 708 -2 708 -1 q 707 -4 707 -3 q 706 -4 707 -6 q 703 -3 704 -3 q 697 1 700 -1 q 694 4 696 3 q 689 7 692 6 q 681 -4 683 1 q 678 -8 678 -7 l 669 -18 q 646 -61 654 -37 l 638 -86 q 625 -122 632 -103 q 604 -156 618 -140 q 598 -162 596 -164 q 600 -158 600 -160 l 594 -164 q 589 -169 589 -167 q 582 -172 589 -171 q 577 -171 581 -172 q 571 -171 574 -169 q 568 -172 569 -171 q 564 -172 567 -172 l 554 -179 q 547 -185 551 -181 q 538 -185 542 -189 q 535 -181 536 -183 q 532 -176 535 -178 q 529 -177 531 -175 q 526 -178 528 -179 q 524 -175 525 -176 q 521 -172 522 -174 q 510 -164 515 -169 q 499 -154 504 -158 q 489 -146 493 -149 q 486 -160 486 -153 q 483 -175 486 -168 q 480 -185 482 -181 q 478 -193 478 -189 q 476 -238 476 -208 q 476 -301 476 -268 q 475 -365 476 -335 q 471 -410 474 -394 q 469 -414 469 -422 q 467 -386 468 -406 q 466 -347 467 -367 q 465 -314 465 -326 q 463 -261 464 -293 q 462 -198 463 -229 q 460 -146 461 -167 q 450 -156 454 -150 q 435 -175 442 -165 q 417 -192 428 -185 q 414 -214 415 -203 q 411 -236 413 -225 q 406 -276 410 -257 q 400 -315 403 -296 q 398 -331 399 -324 q 394 -346 397 -339 q 392 -363 393 -351 q 389 -369 390 -375 q 386 -301 386 -337 q 383 -233 386 -264 q 381 -232 383 -232 q 378 -233 378 -232 q 375 -303 375 -264 q 372 -374 375 -342 q 370 -369 372 -379 q 367 -356 368 -360 q 360 -321 363 -340 q 354 -289 357 -301 q 349 -240 351 -264 q 343 -192 347 -215 l 335 -183 q 327 -170 331 -176 q 321 -158 324 -164 q 301 -108 310 -133 q 281 -60 292 -83 l 260 -17 q 258 -12 258 -14 q 257 -10 258 -11 q 255 -23 254 -15 q 251 -37 256 -31 q 249 -34 250 -39 q 246 -28 247 -29 q 242 -15 244 -19 q 239 -21 242 -18 q 233 -28 238 -24 q 226 -36 229 -32 q 218 -43 222 -40 q 208 -66 211 -53 q 201 -90 204 -79 q 199 -101 200 -96 q 196 -112 199 -107 q 193 -129 194 -118 q 190 -135 192 -140 q 176 -123 175 -119 q 185 -137 178 -126 q 193 -155 192 -147 q 179 -156 194 -162 q 166 -136 165 -151 q 172 -101 167 -121 q 174 -68 176 -82 q 172 -62 174 -65 q 169 -62 169 -60 q 168 -83 168 -69 q 168 -106 168 -97 q 164 -108 168 -115 q 160 -76 157 -93 q 160 -44 163 -60 q 153 -31 158 -36 q 147 -26 150 -29 q 142 -22 144 -24 q 140 -24 140 -22 q 138 -28 139 -26 q 133 -29 133 -28 q 134 -59 132 -40 q 137 -90 136 -78 q 128 -97 138 -103 q 120 -64 114 -86 q 124 -24 126 -42 q 122 -17 124 -21 q 118 -15 121 -12 q 117 -28 115 -19 q 114 -35 118 -36 q 110 -25 108 -32 q 111 -12 113 -18 l 101 1 q 92 7 96 4 q 76 38 76 18 l 76 299 q 38 380 50 342 q 34 442 26 418 q 76 465 42 465 l 76 896 q 76 915 76 904 q 76 935 75 925 q 83 957 76 949 q 99 969 89 965 q 113 972 107 972 q 127 973 119 974 q 142 972 135 972 l 489 972 q 533 972 511 972 q 578 969 556 972 q 835 878 731 957 q 847 869 843 872 q 854 863 851 865 q 903 811 879 842 q 931 769 919 793 q 969 660 957 721 q 970 658 969 658 q 971 657 971 658 q 974 645 972 651 q 975 632 975 639 q 979 593 979 614 q 979 475 982 528 m 429 697 l 421 706 q 408 719 406 721 q 419 710 411 718 q 424 696 426 701 l 424 288 q 401 139 424 186 q 340 88 378 92 q 257 109 301 83 q 169 179 213 135 q 92 274 126 224 q 42 369 58 324 q 34 441 25 414 q 85 466 43 468 q 209 420 126 464 q 424 279 292 376 l 435 271 l 493 271 q 528 273 511 271 q 564 281 546 275 q 585 293 575 285 q 586 294 586 293 q 588 294 586 294 q 593 301 590 297 q 599 310 596 306 q 612 340 607 324 q 619 369 617 356 q 620 373 619 371 q 621 376 621 375 q 624 394 624 385 q 626 411 625 403 q 627 445 626 426 q 628 483 628 464 l 628 504 q 627 531 628 518 q 626 558 626 544 q 626 573 626 563 q 625 593 625 583 q 620 622 624 608 q 610 647 617 635 q 607 653 610 647 q 601 660 606 656 q 599 664 601 661 l 590 672 q 571 681 581 681 q 550 678 561 681 q 526 673 539 676 q 501 668 514 669 q 490 666 496 667 q 478 667 483 665 q 458 676 468 669 q 440 688 449 682 q 429 697 433 694 z "},"Ð":{"ha":1064,"x_min":17,"x_max":1014,"o":"m 1014 506 q 1013 488 1014 497 q 1013 471 1013 479 q 1013 419 1013 449 q 1013 369 1014 389 q 1010 340 1011 354 q 1007 310 1010 325 l 1006 300 q 999 263 1003 282 q 988 229 994 244 l 982 221 q 979 218 979 218 q 944 157 965 185 q 896 106 922 129 q 877 86 886 96 q 861 68 868 76 q 858 63 860 65 q 854 57 857 60 q 851 52 853 56 q 847 50 850 49 q 840 39 843 44 q 832 26 836 33 q 814 -8 822 10 q 794 -42 806 -25 q 790 -49 793 -46 q 783 -56 786 -53 l 771 -68 q 769 -77 769 -72 q 767 -86 768 -82 q 760 -117 763 -101 q 751 -147 757 -132 q 749 -153 750 -150 q 746 -157 749 -156 q 743 -156 744 -158 q 742 -153 742 -154 q 739 -142 740 -147 q 736 -131 738 -136 q 735 -112 735 -121 q 732 -94 735 -103 q 722 -106 726 -100 q 710 -115 717 -111 q 703 -155 706 -135 q 697 -194 701 -175 q 694 -212 696 -200 q 692 -218 693 -224 q 688 -176 688 -197 q 686 -136 689 -156 q 685 -133 686 -133 q 682 -132 683 -133 q 679 -129 681 -131 q 676 -126 678 -128 q 672 -118 672 -118 q 670 -138 668 -128 q 665 -156 672 -149 q 663 -144 665 -156 q 658 -119 660 -132 q 654 -104 656 -106 q 651 -107 651 -107 q 651 -108 651 -108 q 650 -110 650 -108 q 647 -114 649 -111 q 643 -119 646 -117 q 639 -130 642 -125 q 632 -140 636 -135 q 622 -149 629 -146 q 621 -164 621 -154 q 615 -172 621 -174 q 611 -160 610 -169 q 611 -146 613 -151 q 599 -127 604 -139 q 588 -108 594 -115 q 583 -106 585 -106 q 578 -104 582 -106 q 566 -117 568 -106 q 565 -141 564 -129 q 565 -154 567 -153 q 563 -158 565 -156 q 560 -158 561 -160 q 556 -148 557 -153 q 554 -137 556 -143 q 552 -116 553 -126 q 549 -96 551 -106 l 542 -89 q 541 -88 542 -89 q 540 -86 540 -87 q 538 -82 538 -83 q 535 -75 535 -76 q 522 -51 528 -64 q 510 -26 517 -39 q 509 -25 510 -25 q 508 -24 508 -25 q 493 -7 501 -12 l 483 -12 q 481 -39 481 -26 q 478 -65 481 -51 q 474 -72 476 -67 q 472 -74 472 -76 q 469 -45 468 -60 q 467 -17 469 -31 q 463 -14 465 -15 q 461 -15 461 -12 q 458 -44 458 -29 q 456 -72 458 -58 q 450 -67 454 -75 q 447 -61 449 -64 q 444 -57 446 -58 q 438 -42 440 -47 q 433 -26 436 -36 q 432 -17 432 -22 q 429 -8 432 -11 q 422 -14 425 -12 q 419 -25 422 -24 q 415 -19 418 -25 q 402 -36 408 -26 q 389 -56 396 -46 q 382 -67 386 -61 q 372 -76 378 -72 q 367 -81 367 -82 q 365 -49 365 -65 q 361 -19 364 -33 q 358 -22 360 -21 q 356 -25 357 -22 q 344 -44 349 -35 q 331 -76 338 -60 q 318 -107 325 -92 q 316 -110 317 -108 q 314 -115 315 -112 q 301 -131 311 -121 l 300 -131 q 296 -132 299 -132 q 297 -176 294 -144 q 304 -247 300 -208 q 310 -321 308 -286 q 307 -375 311 -356 q 290 -386 303 -394 q 272 -344 275 -378 q 273 -266 269 -310 q 280 -183 276 -222 q 281 -126 283 -144 q 280 -125 281 -125 q 279 -125 279 -125 q 278 -123 278 -124 q 278 -122 278 -122 q 273 -115 275 -119 q 268 -110 271 -111 q 249 -84 258 -97 q 229 -60 240 -71 q 217 -47 224 -51 q 216 -65 214 -56 q 211 -82 218 -75 q 208 -73 206 -86 q 207 -54 210 -60 q 204 -55 206 -53 q 201 -57 203 -57 q 196 -58 200 -58 q 181 -54 189 -60 q 176 -49 178 -51 q 171 -44 174 -46 q 168 -38 169 -42 q 165 -37 167 -35 q 165 -68 164 -49 q 167 -101 167 -87 q 161 -104 167 -114 q 156 -64 151 -86 q 157 -22 160 -42 q 156 -15 157 -19 q 151 -14 154 -11 q 150 -24 149 -17 q 147 -31 151 -31 q 144 -24 143 -31 q 144 -14 146 -18 l 135 1 q 125 7 129 4 q 110 36 110 19 q 110 57 108 47 l 110 358 l 104 381 q 102 370 103 375 q 99 360 101 365 q 92 333 96 346 q 83 308 89 319 q 78 297 81 300 q 75 292 78 294 q 74 269 76 278 q 61 265 72 261 q 47 285 47 271 q 50 317 47 300 q 48 322 49 311 q 44 339 47 333 q 41 363 43 350 q 35 386 39 375 q 29 393 31 390 q 26 396 26 396 l 22 404 l 22 406 q 21 406 21 406 q 21 407 21 407 q 20 411 21 410 q 19 414 19 413 q 18 442 17 428 q 19 468 19 457 l 19 532 q 19 548 19 539 q 19 565 18 557 q 24 578 21 572 q 32 588 28 583 q 33 588 33 588 q 35 589 33 589 q 60 597 46 597 q 89 596 75 596 l 110 601 l 110 879 q 108 923 110 906 q 121 961 106 940 q 147 972 132 972 q 165 973 156 974 q 181 972 174 972 l 513 972 q 563 974 538 974 q 613 969 589 974 q 638 967 626 968 q 658 964 650 967 q 668 961 663 964 q 714 952 692 958 q 756 939 736 946 q 776 933 767 936 q 793 925 785 929 q 811 916 803 921 q 829 907 819 911 q 940 813 894 869 q 1003 679 985 756 q 1006 667 1006 674 q 1008 651 1007 660 q 1013 616 1013 633 q 1014 581 1014 599 l 1014 506 m 468 701 l 457 696 l 457 618 l 463 596 l 479 596 q 506 597 492 596 q 535 596 519 597 q 565 581 554 596 q 572 560 572 571 l 572 558 q 572 524 575 542 l 572 440 q 572 415 575 428 q 550 385 569 393 q 540 379 549 382 q 526 376 533 378 q 511 374 518 375 q 474 375 490 371 l 463 379 q 461 382 465 379 q 457 375 457 385 l 457 289 l 468 271 l 526 271 q 550 272 538 271 q 574 274 563 272 q 596 281 585 276 q 617 293 607 285 q 643 331 636 308 q 651 378 650 354 l 651 569 q 651 603 651 586 q 646 636 650 619 q 632 663 639 651 q 617 678 625 671 q 567 696 596 693 q 515 700 539 699 l 500 700 q 483 701 492 700 q 468 701 475 701 m 54 339 q 56 352 56 346 q 57 364 57 358 q 56 352 56 358 q 54 339 56 346 m 68 363 q 67 348 67 357 q 69 328 68 339 q 69 345 69 336 q 68 363 69 354 z "},"Ď":{"ha":1028,"x_min":25,"x_max":982,"o":"m 979 475 l 979 432 q 978 382 979 410 q 974 331 978 354 q 964 283 969 306 q 950 238 958 260 q 940 210 944 222 q 929 192 936 199 q 928 190 929 190 q 928 189 928 190 q 910 160 918 171 q 896 141 904 150 q 879 124 888 132 q 865 110 872 117 q 850 96 857 103 q 849 96 850 96 q 849 94 849 96 q 835 74 842 88 q 833 71 833 72 q 832 68 833 69 l 828 61 q 826 58 826 60 q 824 56 825 56 q 810 38 818 46 q 794 24 803 32 q 775 14 785 17 l 768 14 q 765 2 767 8 q 760 -10 763 -4 q 758 -14 758 -11 q 754 -19 757 -17 q 751 -22 753 -21 q 750 -26 750 -24 q 748 -72 749 -42 q 747 -137 747 -103 q 746 -201 746 -171 q 744 -247 746 -232 q 739 -243 744 -249 q 737 -235 738 -239 q 733 -226 736 -231 l 719 -164 q 713 -112 713 -143 q 713 -52 713 -82 q 708 -1 714 -22 q 708 -2 708 -1 q 707 -4 707 -3 q 706 -4 707 -6 q 703 -3 704 -3 q 697 1 700 -1 q 694 4 696 3 q 689 7 692 6 q 681 -4 683 1 q 678 -8 678 -7 l 669 -18 q 646 -61 654 -37 l 638 -86 q 625 -122 632 -103 q 604 -156 618 -140 q 598 -162 596 -164 q 600 -158 600 -160 l 594 -164 q 589 -169 589 -167 q 582 -172 589 -171 q 577 -171 581 -172 q 571 -171 574 -169 q 568 -172 569 -171 q 564 -172 567 -172 l 554 -179 q 547 -185 551 -181 q 538 -185 542 -189 q 535 -181 536 -183 q 532 -176 535 -178 q 529 -177 531 -175 q 526 -178 528 -179 q 524 -175 525 -176 q 521 -172 522 -174 q 510 -164 515 -169 q 499 -154 504 -158 q 489 -146 493 -149 q 486 -160 486 -153 q 483 -175 486 -168 q 480 -185 482 -181 q 478 -193 478 -189 q 476 -238 476 -208 q 476 -301 476 -268 q 475 -365 476 -335 q 471 -410 474 -394 q 469 -414 469 -422 q 467 -386 468 -406 q 466 -347 467 -367 q 465 -314 465 -326 q 463 -261 464 -293 q 462 -198 463 -229 q 460 -146 461 -167 q 450 -156 454 -150 q 435 -175 442 -165 q 417 -192 428 -185 q 414 -214 415 -203 q 411 -236 413 -225 q 406 -276 410 -257 q 400 -315 403 -296 q 398 -331 399 -324 q 394 -346 397 -339 q 392 -363 393 -351 q 389 -369 390 -375 q 386 -301 386 -337 q 383 -233 386 -264 q 381 -232 383 -232 q 378 -233 378 -232 q 375 -303 375 -264 q 372 -374 375 -342 q 370 -369 372 -379 q 367 -356 368 -360 q 360 -321 363 -340 q 354 -289 357 -301 q 349 -240 351 -264 q 343 -192 347 -215 l 335 -183 q 327 -170 331 -176 q 321 -158 324 -164 q 301 -108 310 -133 q 281 -60 292 -83 l 260 -17 q 258 -12 258 -14 q 257 -10 258 -11 q 255 -23 254 -15 q 251 -37 256 -31 q 249 -34 250 -39 q 246 -28 247 -29 q 242 -15 244 -19 q 239 -21 242 -18 q 233 -28 238 -24 q 226 -36 229 -32 q 218 -43 222 -40 q 208 -66 211 -53 q 201 -90 204 -79 q 199 -101 200 -96 q 196 -112 199 -107 q 193 -129 194 -118 q 190 -135 192 -140 q 176 -123 175 -119 q 185 -137 178 -126 q 193 -155 192 -147 q 179 -156 194 -162 q 166 -136 165 -151 q 172 -101 167 -121 q 174 -68 176 -82 q 172 -62 174 -65 q 169 -62 169 -60 q 168 -83 168 -69 q 168 -106 168 -97 q 164 -108 168 -115 q 160 -76 157 -93 q 160 -44 163 -60 q 153 -31 158 -36 q 147 -26 150 -29 q 142 -22 144 -24 q 140 -24 140 -22 q 138 -28 139 -26 q 133 -29 133 -28 q 134 -59 132 -40 q 137 -90 136 -78 q 128 -97 138 -103 q 120 -64 114 -86 q 124 -24 126 -42 q 122 -17 124 -21 q 118 -15 121 -12 q 117 -28 115 -19 q 114 -35 118 -36 q 110 -25 108 -32 q 111 -12 113 -18 l 101 1 q 92 7 96 4 q 76 38 76 18 l 76 299 q 38 380 50 342 q 34 442 26 418 q 76 465 42 465 l 76 896 q 76 915 76 904 q 76 935 75 925 q 83 957 76 949 q 99 969 89 965 q 113 972 107 972 q 127 973 119 974 q 142 972 135 972 l 489 972 q 533 972 511 972 q 578 969 556 972 q 835 878 731 957 q 847 869 843 872 q 854 863 851 865 q 903 811 879 842 q 931 769 919 793 q 969 660 957 721 q 970 658 969 658 q 971 657 971 658 q 974 645 972 651 q 975 632 975 639 q 979 593 979 614 q 979 475 982 528 m 429 697 l 421 706 q 408 719 406 721 q 419 710 411 718 q 424 696 426 701 l 424 288 q 401 139 424 186 q 340 88 378 92 q 257 109 301 83 q 169 179 213 135 q 92 274 126 224 q 42 369 58 324 q 34 441 25 414 q 85 466 43 468 q 209 420 126 464 q 424 279 292 376 l 435 271 l 493 271 q 528 273 511 271 q 564 281 546 275 q 585 293 575 285 q 586 294 586 293 q 588 294 586 294 q 593 301 590 297 q 599 310 596 306 q 612 340 607 324 q 619 369 617 356 q 620 373 619 371 q 621 376 621 375 q 624 394 624 385 q 626 411 625 403 q 627 445 626 426 q 628 483 628 464 l 628 504 q 627 531 628 518 q 626 558 626 544 q 626 573 626 563 q 625 593 625 583 q 620 622 624 608 q 610 647 617 635 q 607 653 610 647 q 601 660 606 656 q 599 664 601 661 l 590 672 q 571 681 581 681 q 550 678 561 681 q 526 673 539 676 q 501 668 514 669 q 490 666 496 667 q 478 667 483 665 q 458 676 468 669 q 440 688 449 682 q 429 697 433 694 m 807 1268 q 807 1243 814 1257 q 797 1230 803 1236 q 785 1217 790 1224 q 755 1184 771 1200 q 724 1151 739 1168 l 681 1106 q 662 1083 671 1094 q 642 1063 653 1072 q 633 1056 636 1057 q 610 1038 624 1046 q 585 1031 597 1029 q 569 1036 576 1032 q 551 1039 561 1040 q 538 1034 544 1038 q 525 1029 532 1031 q 508 1032 515 1028 q 492 1038 500 1036 q 473 1036 482 1039 q 454 1035 464 1033 q 435 1038 444 1035 q 415 1042 425 1040 l 408 1042 q 404 1043 406 1042 q 364 1068 385 1044 l 228 1217 q 216 1228 222 1222 q 207 1240 210 1235 q 201 1256 201 1246 q 219 1278 201 1275 l 272 1278 q 306 1278 289 1278 q 340 1278 324 1279 q 356 1275 347 1276 q 372 1271 364 1274 q 397 1260 385 1265 q 422 1247 410 1254 l 506 1210 l 529 1221 l 544 1228 q 592 1250 568 1239 q 639 1271 615 1261 q 690 1279 663 1281 q 743 1278 718 1278 q 769 1279 756 1278 q 793 1278 782 1281 l 801 1274 q 807 1268 806 1272 z "},"Đ":{"ha":1061,"x_min":18,"x_max":1014,"o":"m 1013 456 q 1013 397 1014 429 q 1008 339 1011 365 q 1003 293 1007 315 q 992 256 999 271 q 988 244 990 249 q 983 238 985 240 q 978 229 983 239 q 975 219 974 219 q 950 173 965 196 q 917 131 935 150 q 907 121 911 125 q 897 113 903 117 l 881 97 q 871 75 875 88 q 863 51 867 63 q 848 19 857 35 q 832 -12 839 3 q 831 -14 832 -14 q 831 -15 831 -14 q 828 -22 829 -18 q 825 -28 826 -25 q 811 -59 818 -43 q 794 -89 804 -75 q 788 -96 792 -93 q 782 -101 785 -99 q 780 -122 781 -111 q 776 -143 779 -132 q 776 -152 776 -146 q 772 -157 775 -158 q 768 -149 768 -154 q 767 -139 768 -144 q 765 -122 764 -122 q 758 -117 765 -121 q 756 -119 757 -118 q 751 -124 754 -121 q 747 -129 751 -125 q 738 -142 743 -135 q 726 -151 733 -149 q 723 -162 724 -157 q 721 -174 722 -168 q 714 -186 719 -178 q 708 -190 708 -192 q 706 -175 706 -183 q 703 -158 706 -167 q 699 -153 701 -156 q 693 -150 696 -151 q 683 -142 688 -146 q 674 -135 678 -139 l 665 -128 q 659 -117 664 -125 q 646 -100 654 -110 q 644 -98 646 -100 q 639 -94 642 -96 q 638 -93 639 -93 q 635 -99 636 -94 q 632 -107 635 -103 q 628 -113 631 -110 q 626 -121 626 -117 q 624 -178 625 -142 q 623 -251 624 -214 q 621 -308 622 -287 q 619 -328 619 -318 q 615 -349 618 -339 q 613 -358 614 -353 q 610 -361 613 -362 q 604 -351 604 -357 q 603 -339 604 -344 q 600 -309 601 -324 q 597 -281 599 -294 q 595 -228 596 -260 q 594 -164 594 -196 q 592 -111 593 -132 q 588 -86 592 -99 q 582 -79 583 -82 l 578 -69 q 576 -69 576 -69 q 576 -68 576 -68 q 571 -64 576 -64 q 565 -62 567 -64 q 560 -62 560 -62 q 557 -111 558 -78 q 554 -184 556 -144 q 552 -257 553 -224 q 549 -306 551 -290 q 546 -303 549 -307 q 543 -299 543 -300 q 541 -250 542 -283 q 540 -178 540 -217 q 540 -107 540 -140 q 538 -58 539 -74 q 532 -57 538 -57 l 521 -53 q 514 -62 519 -57 q 506 -71 510 -71 q 499 -72 503 -71 q 493 -67 496 -71 q 488 -60 490 -62 q 483 -50 486 -56 q 478 -39 481 -44 q 460 -50 463 -35 q 460 -91 457 -65 q 467 -143 464 -117 q 467 -185 471 -169 q 463 -183 465 -186 q 461 -179 461 -181 q 458 -106 458 -147 q 456 -33 458 -65 q 444 -57 451 -44 q 440 -64 443 -60 q 432 -68 438 -68 q 419 -60 425 -68 q 417 -56 417 -57 q 403 -36 410 -46 q 389 -17 396 -26 q 387 -49 388 -32 q 383 -81 386 -65 q 382 -78 383 -82 q 378 -74 381 -75 l 367 -56 q 365 -40 365 -47 q 364 -24 365 -32 q 361 -26 363 -25 q 358 -31 360 -28 q 335 -53 346 -44 q 327 -76 329 -64 q 319 -100 325 -89 q 310 -114 317 -110 q 294 -108 303 -118 q 279 -96 286 -99 q 263 -95 271 -93 q 246 -92 254 -97 q 232 -78 239 -86 q 218 -65 225 -71 q 199 -47 208 -56 q 181 -29 190 -37 l 172 -22 l 169 -19 q 160 -11 165 -15 q 150 -3 156 -7 q 142 0 147 -1 q 135 1 138 1 l 126 6 q 110 36 110 18 l 110 43 q 109 64 108 54 q 110 83 110 74 l 110 360 l 104 382 q 99 362 100 372 q 94 340 97 351 q 90 334 93 339 q 83 331 88 329 q 77 338 81 332 q 72 346 74 344 q 58 363 58 360 q 65 363 58 365 q 75 361 71 361 q 72 369 79 361 q 69 367 69 367 q 54 372 61 363 q 50 379 53 374 q 44 378 47 378 q 40 382 42 379 q 36 388 39 385 q 32 390 33 390 q 29 394 31 393 q 26 397 28 396 l 22 406 q 21 410 21 408 q 19 414 21 413 q 19 430 18 421 q 19 446 19 439 l 19 538 q 19 560 19 549 q 29 585 19 572 q 32 588 31 586 q 35 590 33 589 q 60 598 46 599 q 89 597 75 597 l 110 603 l 110 900 q 108 923 108 911 q 111 944 108 935 q 117 956 114 953 q 125 965 118 961 q 126 966 126 965 q 128 967 126 967 q 142 972 135 972 q 150 972 149 972 l 574 972 q 592 971 583 971 q 610 969 601 971 q 868 878 764 957 q 881 869 876 872 q 888 863 885 865 q 964 769 933 824 q 1006 649 994 715 q 1012 612 1011 631 q 1013 574 1013 593 q 1013 550 1013 563 q 1014 526 1014 538 q 1014 490 1014 508 q 1013 456 1014 472 m 468 699 l 457 696 l 457 619 l 463 597 l 478 597 q 506 598 492 597 q 535 597 519 599 q 553 593 544 597 q 565 581 561 589 q 572 564 569 576 q 574 542 575 554 q 572 518 574 529 l 572 436 q 572 415 575 426 q 561 393 569 401 q 559 390 560 392 q 556 388 558 389 q 536 375 547 379 q 514 368 524 369 q 494 369 504 367 q 474 376 483 372 q 469 378 472 376 q 464 381 467 379 q 457 385 458 381 q 457 376 457 383 l 457 289 l 468 271 l 528 271 q 584 279 556 272 q 631 306 613 286 q 638 316 635 311 q 644 326 642 321 q 654 360 651 342 q 658 397 657 379 q 660 410 660 404 q 660 425 660 417 q 660 576 664 499 q 658 585 658 579 q 656 610 657 597 q 650 635 654 624 l 646 646 q 642 654 644 650 q 636 661 639 658 q 628 671 635 664 q 603 687 618 682 q 572 693 588 692 q 554 692 563 693 q 536 692 546 692 q 521 692 529 692 q 504 693 513 692 q 486 696 494 694 q 468 699 478 697 z "},"E":{"ha":926,"x_min":76,"x_max":878,"o":"m 875 185 q 876 120 875 157 q 876 53 878 83 q 876 39 876 46 q 874 25 876 32 q 873 23 874 24 q 872 22 872 22 q 867 13 871 17 q 858 7 863 10 q 853 1 857 4 q 847 -6 850 -1 q 843 -12 846 -8 q 838 -21 840 -17 q 835 -24 836 -22 q 832 -28 833 -25 q 817 -44 825 -36 q 803 -62 810 -53 l 793 -76 q 783 -90 788 -83 q 774 -104 779 -97 q 771 -107 771 -107 q 756 -119 767 -112 q 753 -122 754 -121 q 749 -124 751 -122 q 742 -129 746 -125 q 733 -135 738 -133 q 722 -133 728 -136 q 711 -126 715 -129 q 707 -124 708 -124 q 703 -126 710 -121 q 694 -135 697 -132 q 692 -194 692 -164 q 689 -254 692 -224 q 692 -285 688 -267 q 683 -306 696 -303 q 674 -287 671 -307 q 678 -256 678 -268 q 676 -193 676 -224 q 672 -132 675 -162 q 671 -129 671 -131 q 669 -128 669 -129 q 668 -128 668 -128 l 661 -117 q 649 -93 656 -106 q 636 -69 643 -81 l 615 -33 q 611 -23 614 -28 q 606 -11 608 -18 l 604 -10 q 603 -27 603 -18 q 600 -44 603 -36 q 597 -50 599 -46 q 594 -53 596 -54 q 592 -38 593 -46 q 592 -25 592 -31 q 585 -40 586 -36 q 576 -60 581 -50 q 567 -82 572 -71 q 553 -107 563 -92 q 552 -108 553 -108 q 551 -108 551 -108 q 544 -117 550 -111 q 540 -119 542 -119 q 537 -140 538 -129 q 535 -161 536 -150 q 532 -174 533 -168 q 529 -187 531 -181 q 526 -197 528 -190 q 522 -200 524 -203 q 524 -166 519 -185 q 517 -137 528 -147 q 513 -142 513 -133 q 515 -162 513 -150 q 517 -184 517 -175 q 511 -189 517 -193 q 506 -160 500 -179 q 506 -128 511 -142 q 505 -136 504 -121 q 500 -157 506 -151 q 498 -152 499 -160 q 494 -140 497 -144 q 490 -128 493 -137 q 479 -122 486 -118 q 478 -122 479 -122 q 478 -124 478 -122 q 468 -135 475 -126 q 451 -153 461 -144 q 446 -156 451 -153 q 449 -197 444 -171 q 457 -249 453 -224 q 458 -292 461 -275 q 440 -306 456 -308 q 422 -285 425 -303 q 423 -242 419 -267 q 431 -194 426 -218 q 435 -153 436 -169 q 433 -152 433 -153 q 432 -151 433 -151 q 431 -151 431 -151 q 431 -150 431 -150 q 425 -142 428 -147 q 419 -133 422 -139 q 406 -97 413 -117 l 385 -56 q 383 -50 383 -53 q 379 -44 382 -47 q 365 -39 372 -42 q 350 -33 357 -36 q 350 -28 353 -31 q 349 -31 349 -29 q 349 -32 349 -32 q 340 -29 346 -32 q 340 -29 340 -29 q 339 -28 339 -29 q 336 -31 338 -29 q 333 -35 335 -33 q 317 -54 325 -46 l 314 -57 q 313 -57 314 -57 q 313 -58 313 -57 q 310 -59 311 -58 q 308 -60 310 -60 q 306 -119 307 -81 q 305 -195 306 -157 q 301 -254 304 -233 q 299 -258 301 -256 q 296 -258 296 -260 q 290 -215 288 -243 q 298 -155 293 -186 q 301 -95 303 -124 q 285 -51 300 -67 l 265 -26 q 262 -21 264 -24 q 257 -17 260 -18 q 247 -4 254 -11 q 247 -5 247 -4 q 246 -6 247 -6 q 235 -15 242 -11 l 225 -19 q 224 -20 224 -19 q 222 -21 224 -21 q 222 -30 222 -24 q 219 -47 222 -36 l 208 -118 q 206 -136 207 -128 q 201 -153 204 -144 q 199 -176 200 -161 q 196 -185 197 -192 q 188 -146 186 -169 q 194 -101 189 -122 q 197 -67 199 -79 q 181 -60 196 -54 q 147 -54 161 -64 q 142 -49 144 -51 q 136 -44 139 -46 q 133 -38 135 -42 q 131 -37 131 -35 q 131 -74 129 -51 q 135 -119 133 -97 q 135 -151 136 -140 q 125 -150 133 -161 q 113 -112 113 -133 q 119 -67 114 -90 q 119 -24 124 -44 q 119 -26 118 -14 q 119 -54 119 -37 q 114 -79 118 -71 q 110 -69 110 -89 q 111 -40 111 -50 l 101 1 q 92 7 96 4 q 76 38 76 18 l 76 913 q 76 935 76 924 q 83 957 76 947 q 100 969 88 965 q 106 972 103 971 q 115 972 110 972 l 793 972 q 822 973 807 972 q 849 965 838 974 l 857 957 q 864 936 864 947 l 864 772 q 865 759 865 767 q 865 744 865 751 q 863 726 865 738 q 862 724 863 725 q 861 722 861 724 q 860 722 860 722 q 860 721 860 721 q 857 718 857 718 q 847 708 856 715 q 838 700 839 701 q 832 696 835 697 q 826 694 826 693 q 826 696 826 694 q 824 698 826 696 q 811 699 821 700 q 797 696 803 696 q 778 694 788 694 q 760 692 769 694 q 742 684 750 689 q 726 676 735 679 q 713 673 719 675 q 699 668 706 671 q 685 662 692 667 q 671 656 678 657 q 649 661 661 654 q 642 665 644 665 q 640 665 640 665 q 635 660 639 661 q 622 649 629 654 q 606 642 614 644 q 588 640 596 638 q 571 643 581 642 q 558 644 565 644 q 544 644 551 643 q 518 654 531 647 q 493 668 506 661 q 469 680 482 675 q 443 689 456 685 l 410 701 l 410 631 l 415 614 l 740 614 q 776 615 756 614 q 813 610 797 617 q 815 608 814 610 q 826 599 824 603 q 832 586 831 593 q 835 572 833 579 q 834 555 835 564 q 833 538 833 546 l 833 408 q 834 398 833 403 q 833 389 835 393 q 831 381 833 386 q 830 379 831 379 q 829 378 829 379 q 810 360 824 367 q 808 359 808 360 q 807 358 808 358 q 790 351 799 353 q 774 346 781 349 q 751 333 763 340 q 728 322 740 325 q 713 320 721 321 q 697 317 704 319 q 683 313 690 315 q 669 307 676 310 q 644 303 657 303 q 621 301 632 303 l 614 301 q 608 301 611 301 q 603 301 606 300 q 588 306 594 303 q 575 311 582 310 q 550 309 563 314 q 525 307 538 304 q 506 317 515 310 q 486 332 497 325 q 463 343 475 338 q 438 353 450 349 q 426 356 440 353 q 410 358 413 358 l 410 288 l 415 271 l 838 271 q 854 267 846 271 q 861 263 857 267 q 865 260 864 261 q 868 256 867 258 q 874 244 871 253 q 875 232 875 240 l 875 185 z "},"É":{"ha":926,"x_min":76,"x_max":878,"o":"m 875 185 q 876 120 875 157 q 876 53 878 83 q 876 39 876 46 q 874 25 876 32 q 873 23 874 24 q 872 22 872 22 q 867 13 871 17 q 858 7 863 10 q 853 1 857 4 q 847 -6 850 -1 q 843 -12 846 -8 q 838 -21 840 -17 q 835 -24 836 -22 q 832 -28 833 -25 q 817 -44 825 -36 q 803 -62 810 -53 l 793 -76 q 783 -90 788 -83 q 774 -104 779 -97 q 771 -107 771 -107 q 756 -119 767 -112 q 753 -122 754 -121 q 749 -124 751 -122 q 742 -129 746 -125 q 733 -135 738 -133 q 722 -133 728 -136 q 711 -126 715 -129 q 707 -124 708 -124 q 703 -126 710 -121 q 694 -135 697 -132 q 692 -194 692 -164 q 689 -254 692 -224 q 692 -285 688 -267 q 683 -306 696 -303 q 674 -287 671 -307 q 678 -256 678 -268 q 676 -193 676 -224 q 672 -132 675 -162 q 671 -129 671 -131 q 669 -128 669 -129 q 668 -128 668 -128 l 661 -117 q 649 -93 656 -106 q 636 -69 643 -81 l 615 -33 q 611 -23 614 -28 q 606 -11 608 -18 l 604 -10 q 603 -27 603 -18 q 600 -44 603 -36 q 597 -50 599 -46 q 594 -53 596 -54 q 592 -38 593 -46 q 592 -25 592 -31 q 585 -40 586 -36 q 576 -60 581 -50 q 567 -82 572 -71 q 553 -107 563 -92 q 552 -108 553 -108 q 551 -108 551 -108 q 544 -117 550 -111 q 540 -119 542 -119 q 537 -140 538 -129 q 535 -161 536 -150 q 532 -174 533 -168 q 529 -187 531 -181 q 526 -197 528 -190 q 522 -200 524 -203 q 524 -166 519 -185 q 517 -137 528 -147 q 513 -142 513 -133 q 515 -162 513 -150 q 517 -184 517 -175 q 511 -189 517 -193 q 506 -160 500 -179 q 506 -128 511 -142 q 505 -136 504 -121 q 500 -157 506 -151 q 498 -152 499 -160 q 494 -140 497 -144 q 490 -128 493 -137 q 479 -122 486 -118 q 478 -122 479 -122 q 478 -124 478 -122 q 468 -135 475 -126 q 451 -153 461 -144 q 446 -156 451 -153 q 449 -197 444 -171 q 457 -249 453 -224 q 458 -292 461 -275 q 440 -306 456 -308 q 422 -285 425 -303 q 423 -242 419 -267 q 431 -194 426 -218 q 435 -153 436 -169 q 433 -152 433 -153 q 432 -151 433 -151 q 431 -151 431 -151 q 431 -150 431 -150 q 425 -142 428 -147 q 419 -133 422 -139 q 406 -97 413 -117 l 385 -56 q 383 -50 383 -53 q 379 -44 382 -47 q 365 -39 372 -42 q 350 -33 357 -36 q 350 -28 353 -31 q 349 -31 349 -29 q 349 -32 349 -32 q 340 -29 346 -32 q 340 -29 340 -29 q 339 -28 339 -29 q 336 -31 338 -29 q 333 -35 335 -33 q 317 -54 325 -46 l 314 -57 q 313 -57 314 -57 q 313 -58 313 -57 q 310 -59 311 -58 q 308 -60 310 -60 q 306 -119 307 -81 q 305 -195 306 -157 q 301 -254 304 -233 q 299 -258 301 -256 q 296 -258 296 -260 q 290 -215 288 -243 q 298 -155 293 -186 q 301 -95 303 -124 q 285 -51 300 -67 l 265 -26 q 262 -21 264 -24 q 257 -17 260 -18 q 247 -4 254 -11 q 247 -5 247 -4 q 246 -6 247 -6 q 235 -15 242 -11 l 225 -19 q 224 -20 224 -19 q 222 -21 224 -21 q 222 -30 222 -24 q 219 -47 222 -36 l 208 -118 q 206 -136 207 -128 q 201 -153 204 -144 q 199 -176 200 -161 q 196 -185 197 -192 q 188 -146 186 -169 q 194 -101 189 -122 q 197 -67 199 -79 q 181 -60 196 -54 q 147 -54 161 -64 q 142 -49 144 -51 q 136 -44 139 -46 q 133 -38 135 -42 q 131 -37 131 -35 q 131 -74 129 -51 q 135 -119 133 -97 q 135 -151 136 -140 q 125 -150 133 -161 q 113 -112 113 -133 q 119 -67 114 -90 q 119 -24 124 -44 q 119 -26 118 -14 q 119 -54 119 -37 q 114 -79 118 -71 q 110 -69 110 -89 q 111 -40 111 -50 l 101 1 q 92 7 96 4 q 76 38 76 18 l 76 913 q 76 935 76 924 q 83 957 76 947 q 100 969 88 965 q 106 972 103 971 q 115 972 110 972 l 793 972 q 822 973 807 972 q 849 965 838 974 l 857 957 q 864 936 864 947 l 864 772 q 865 759 865 767 q 865 744 865 751 q 863 726 865 738 q 862 724 863 725 q 861 722 861 724 q 860 722 860 722 q 860 721 860 721 q 857 718 857 718 q 847 708 856 715 q 838 700 839 701 q 832 696 835 697 q 826 694 826 693 q 826 696 826 694 q 824 698 826 696 q 811 699 821 700 q 797 696 803 696 q 778 694 788 694 q 760 692 769 694 q 742 684 750 689 q 726 676 735 679 q 713 673 719 675 q 699 668 706 671 q 685 662 692 667 q 671 656 678 657 q 649 661 661 654 q 642 665 644 665 q 640 665 640 665 q 635 660 639 661 q 622 649 629 654 q 606 642 614 644 q 588 640 596 638 q 571 643 581 642 q 558 644 565 644 q 544 644 551 643 q 518 654 531 647 q 493 668 506 661 q 469 680 482 675 q 443 689 456 685 l 410 701 l 410 631 l 415 614 l 740 614 q 776 615 756 614 q 813 610 797 617 q 815 608 814 610 q 826 599 824 603 q 832 586 831 593 q 835 572 833 579 q 834 555 835 564 q 833 538 833 546 l 833 408 q 834 398 833 403 q 833 389 835 393 q 831 381 833 386 q 830 379 831 379 q 829 378 829 379 q 810 360 824 367 q 808 359 808 360 q 807 358 808 358 q 790 351 799 353 q 774 346 781 349 q 751 333 763 340 q 728 322 740 325 q 713 320 721 321 q 697 317 704 319 q 683 313 690 315 q 669 307 676 310 q 644 303 657 303 q 621 301 632 303 l 614 301 q 608 301 611 301 q 603 301 606 300 q 588 306 594 303 q 575 311 582 310 q 550 309 563 314 q 525 307 538 304 q 506 317 515 310 q 486 332 497 325 q 463 343 475 338 q 438 353 450 349 q 426 356 440 353 q 410 358 413 358 l 410 288 l 415 271 l 838 271 q 854 267 846 271 q 861 263 857 267 q 865 260 864 261 q 868 256 867 258 q 874 244 871 253 q 875 232 875 240 l 875 185 m 808 1250 q 804 1237 808 1240 q 796 1229 800 1233 q 791 1224 794 1226 q 785 1218 788 1221 q 747 1183 767 1200 q 713 1144 726 1167 q 680 1092 696 1124 q 647 1030 664 1061 q 610 978 631 999 q 599 968 604 972 q 588 958 593 964 q 579 950 583 954 q 568 943 575 946 q 556 945 561 942 q 544 953 550 949 q 529 968 536 960 q 511 981 522 976 q 492 984 501 983 q 472 992 482 985 q 444 1015 457 1003 q 413 1035 432 1028 q 403 1040 408 1038 q 396 1042 399 1042 q 385 1040 390 1042 q 374 1038 379 1038 q 354 1038 365 1036 q 329 1042 343 1040 q 328 1042 328 1042 q 326 1043 328 1043 q 313 1060 315 1047 q 315 1076 311 1067 q 324 1090 319 1083 q 335 1101 329 1096 l 413 1194 q 444 1235 426 1215 q 461 1255 453 1244 q 481 1272 469 1265 q 512 1278 494 1279 q 543 1278 529 1278 l 782 1278 q 799 1272 793 1278 q 807 1263 806 1268 q 808 1256 808 1260 q 808 1250 808 1253 z "},"Ĕ":{"ha":926,"x_min":76,"x_max":878,"o":"m 875 185 q 876 120 875 157 q 876 53 878 83 q 876 39 876 46 q 874 25 876 32 q 873 23 874 24 q 872 22 872 22 q 867 13 871 17 q 858 7 863 10 q 853 1 857 4 q 847 -6 850 -1 q 843 -12 846 -8 q 838 -21 840 -17 q 835 -24 836 -22 q 832 -28 833 -25 q 817 -44 825 -36 q 803 -62 810 -53 l 793 -76 q 783 -90 788 -83 q 774 -104 779 -97 q 771 -107 771 -107 q 756 -119 767 -112 q 753 -122 754 -121 q 749 -124 751 -122 q 742 -129 746 -125 q 733 -135 738 -133 q 722 -133 728 -136 q 711 -126 715 -129 q 707 -124 708 -124 q 703 -126 710 -121 q 694 -135 697 -132 q 692 -194 692 -164 q 689 -254 692 -224 q 692 -285 688 -267 q 683 -306 696 -303 q 674 -287 671 -307 q 678 -256 678 -268 q 676 -193 676 -224 q 672 -132 675 -162 q 671 -129 671 -131 q 669 -128 669 -129 q 668 -128 668 -128 l 661 -117 q 649 -93 656 -106 q 636 -69 643 -81 l 615 -33 q 611 -23 614 -28 q 606 -11 608 -18 l 604 -10 q 603 -27 603 -18 q 600 -44 603 -36 q 597 -50 599 -46 q 594 -53 596 -54 q 592 -38 593 -46 q 592 -25 592 -31 q 585 -40 586 -36 q 576 -60 581 -50 q 567 -82 572 -71 q 553 -107 563 -92 q 552 -108 553 -108 q 551 -108 551 -108 q 544 -117 550 -111 q 540 -119 542 -119 q 537 -140 538 -129 q 535 -161 536 -150 q 532 -174 533 -168 q 529 -187 531 -181 q 526 -197 528 -190 q 522 -200 524 -203 q 524 -166 519 -185 q 517 -137 528 -147 q 513 -142 513 -133 q 515 -162 513 -150 q 517 -184 517 -175 q 511 -189 517 -193 q 506 -160 500 -179 q 506 -128 511 -142 q 505 -136 504 -121 q 500 -157 506 -151 q 498 -152 499 -160 q 494 -140 497 -144 q 490 -128 493 -137 q 479 -122 486 -118 q 478 -122 479 -122 q 478 -124 478 -122 q 468 -135 475 -126 q 451 -153 461 -144 q 446 -156 451 -153 q 449 -197 444 -171 q 457 -249 453 -224 q 458 -292 461 -275 q 440 -306 456 -308 q 422 -285 425 -303 q 423 -242 419 -267 q 431 -194 426 -218 q 435 -153 436 -169 q 433 -152 433 -153 q 432 -151 433 -151 q 431 -151 431 -151 q 431 -150 431 -150 q 425 -142 428 -147 q 419 -133 422 -139 q 406 -97 413 -117 l 385 -56 q 383 -50 383 -53 q 379 -44 382 -47 q 365 -39 372 -42 q 350 -33 357 -36 q 350 -28 353 -31 q 349 -31 349 -29 q 349 -32 349 -32 q 340 -29 346 -32 q 340 -29 340 -29 q 339 -28 339 -29 q 336 -31 338 -29 q 333 -35 335 -33 q 317 -54 325 -46 l 314 -57 q 313 -57 314 -57 q 313 -58 313 -57 q 310 -59 311 -58 q 308 -60 310 -60 q 306 -119 307 -81 q 305 -195 306 -157 q 301 -254 304 -233 q 299 -258 301 -256 q 296 -258 296 -260 q 290 -215 288 -243 q 298 -155 293 -186 q 301 -95 303 -124 q 285 -51 300 -67 l 265 -26 q 262 -21 264 -24 q 257 -17 260 -18 q 247 -4 254 -11 q 247 -5 247 -4 q 246 -6 247 -6 q 235 -15 242 -11 l 225 -19 q 224 -20 224 -19 q 222 -21 224 -21 q 222 -30 222 -24 q 219 -47 222 -36 l 208 -118 q 206 -136 207 -128 q 201 -153 204 -144 q 199 -176 200 -161 q 196 -185 197 -192 q 188 -146 186 -169 q 194 -101 189 -122 q 197 -67 199 -79 q 181 -60 196 -54 q 147 -54 161 -64 q 142 -49 144 -51 q 136 -44 139 -46 q 133 -38 135 -42 q 131 -37 131 -35 q 131 -74 129 -51 q 135 -119 133 -97 q 135 -151 136 -140 q 125 -150 133 -161 q 113 -112 113 -133 q 119 -67 114 -90 q 119 -24 124 -44 q 119 -26 118 -14 q 119 -54 119 -37 q 114 -79 118 -71 q 110 -69 110 -89 q 111 -40 111 -50 l 101 1 q 92 7 96 4 q 76 38 76 18 l 76 913 q 76 935 76 924 q 83 957 76 947 q 100 969 88 965 q 106 972 103 971 q 115 972 110 972 l 793 972 q 822 973 807 972 q 849 965 838 974 l 857 957 q 864 936 864 947 l 864 772 q 865 759 865 767 q 865 744 865 751 q 863 726 865 738 q 862 724 863 725 q 861 722 861 724 q 860 722 860 722 q 860 721 860 721 q 857 718 857 718 q 847 708 856 715 q 838 700 839 701 q 832 696 835 697 q 826 694 826 693 q 826 696 826 694 q 824 698 826 696 q 811 699 821 700 q 797 696 803 696 q 778 694 788 694 q 760 692 769 694 q 742 684 750 689 q 726 676 735 679 q 713 673 719 675 q 699 668 706 671 q 685 662 692 667 q 671 656 678 657 q 649 661 661 654 q 642 665 644 665 q 640 665 640 665 q 635 660 639 661 q 622 649 629 654 q 606 642 614 644 q 588 640 596 638 q 571 643 581 642 q 558 644 565 644 q 544 644 551 643 q 518 654 531 647 q 493 668 506 661 q 469 680 482 675 q 443 689 456 685 l 410 701 l 410 631 l 415 614 l 740 614 q 776 615 756 614 q 813 610 797 617 q 815 608 814 610 q 826 599 824 603 q 832 586 831 593 q 835 572 833 579 q 834 555 835 564 q 833 538 833 546 l 833 408 q 834 398 833 403 q 833 389 835 393 q 831 381 833 386 q 830 379 831 379 q 829 378 829 379 q 810 360 824 367 q 808 359 808 360 q 807 358 808 358 q 790 351 799 353 q 774 346 781 349 q 751 333 763 340 q 728 322 740 325 q 713 320 721 321 q 697 317 704 319 q 683 313 690 315 q 669 307 676 310 q 644 303 657 303 q 621 301 632 303 l 614 301 q 608 301 611 301 q 603 301 606 300 q 588 306 594 303 q 575 311 582 310 q 550 309 563 314 q 525 307 538 304 q 506 317 515 310 q 486 332 497 325 q 463 343 475 338 q 438 353 450 349 q 426 356 440 353 q 410 358 413 358 l 410 288 l 415 271 l 838 271 q 854 267 846 271 q 861 263 857 267 q 865 260 864 261 q 868 256 867 258 q 874 244 871 253 q 875 232 875 240 l 875 185 m 710 1253 l 710 1232 q 708 1213 708 1222 q 704 1196 707 1204 q 681 1134 697 1163 q 638 1086 664 1106 q 626 1071 632 1079 q 614 1056 621 1063 q 597 1037 606 1046 q 579 1018 589 1028 q 553 994 567 1004 q 519 988 539 983 q 505 995 511 989 q 492 1007 499 1001 q 464 1035 479 1022 l 453 1035 q 324 1065 375 1038 q 246 1138 272 1092 q 229 1175 236 1154 q 222 1211 224 1194 q 218 1246 219 1228 l 218 1251 q 224 1269 218 1261 q 242 1278 231 1276 q 255 1278 249 1279 q 267 1278 261 1278 l 382 1278 q 400 1271 393 1278 q 408 1254 407 1264 q 409 1242 410 1249 q 410 1229 408 1236 l 411 1219 q 429 1188 417 1200 q 464 1175 442 1175 q 502 1191 489 1175 q 518 1229 515 1207 q 519 1243 519 1236 q 519 1256 518 1250 q 531 1272 522 1269 q 546 1278 538 1278 q 563 1278 554 1278 l 661 1278 q 675 1278 668 1278 q 688 1278 682 1279 q 710 1253 710 1274 z "},"Ě":{"ha":926,"x_min":76,"x_max":878,"o":"m 875 185 q 876 120 875 157 q 876 53 878 83 q 876 39 876 46 q 874 25 876 32 q 873 23 874 24 q 872 22 872 22 q 867 13 871 17 q 858 7 863 10 q 853 1 857 4 q 847 -6 850 -1 q 843 -12 846 -8 q 838 -21 840 -17 q 835 -24 836 -22 q 832 -28 833 -25 q 817 -44 825 -36 q 803 -62 810 -53 l 793 -76 q 783 -90 788 -83 q 774 -104 779 -97 q 771 -107 771 -107 q 756 -119 767 -112 q 753 -122 754 -121 q 749 -124 751 -122 q 742 -129 746 -125 q 733 -135 738 -133 q 722 -133 728 -136 q 711 -126 715 -129 q 707 -124 708 -124 q 703 -126 710 -121 q 694 -135 697 -132 q 692 -194 692 -164 q 689 -254 692 -224 q 692 -285 688 -267 q 683 -306 696 -303 q 674 -287 671 -307 q 678 -256 678 -268 q 676 -193 676 -224 q 672 -132 675 -162 q 671 -129 671 -131 q 669 -128 669 -129 q 668 -128 668 -128 l 661 -117 q 649 -93 656 -106 q 636 -69 643 -81 l 615 -33 q 611 -23 614 -28 q 606 -11 608 -18 l 604 -10 q 603 -27 603 -18 q 600 -44 603 -36 q 597 -50 599 -46 q 594 -53 596 -54 q 592 -38 593 -46 q 592 -25 592 -31 q 585 -40 586 -36 q 576 -60 581 -50 q 567 -82 572 -71 q 553 -107 563 -92 q 552 -108 553 -108 q 551 -108 551 -108 q 544 -117 550 -111 q 540 -119 542 -119 q 537 -140 538 -129 q 535 -161 536 -150 q 532 -174 533 -168 q 529 -187 531 -181 q 526 -197 528 -190 q 522 -200 524 -203 q 524 -166 519 -185 q 517 -137 528 -147 q 513 -142 513 -133 q 515 -162 513 -150 q 517 -184 517 -175 q 511 -189 517 -193 q 506 -160 500 -179 q 506 -128 511 -142 q 505 -136 504 -121 q 500 -157 506 -151 q 498 -152 499 -160 q 494 -140 497 -144 q 490 -128 493 -137 q 479 -122 486 -118 q 478 -122 479 -122 q 478 -124 478 -122 q 468 -135 475 -126 q 451 -153 461 -144 q 446 -156 451 -153 q 449 -197 444 -171 q 457 -249 453 -224 q 458 -292 461 -275 q 440 -306 456 -308 q 422 -285 425 -303 q 423 -242 419 -267 q 431 -194 426 -218 q 435 -153 436 -169 q 433 -152 433 -153 q 432 -151 433 -151 q 431 -151 431 -151 q 431 -150 431 -150 q 425 -142 428 -147 q 419 -133 422 -139 q 406 -97 413 -117 l 385 -56 q 383 -50 383 -53 q 379 -44 382 -47 q 365 -39 372 -42 q 350 -33 357 -36 q 350 -28 353 -31 q 349 -31 349 -29 q 349 -32 349 -32 q 340 -29 346 -32 q 340 -29 340 -29 q 339 -28 339 -29 q 336 -31 338 -29 q 333 -35 335 -33 q 317 -54 325 -46 l 314 -57 q 313 -57 314 -57 q 313 -58 313 -57 q 310 -59 311 -58 q 308 -60 310 -60 q 306 -119 307 -81 q 305 -195 306 -157 q 301 -254 304 -233 q 299 -258 301 -256 q 296 -258 296 -260 q 290 -215 288 -243 q 298 -155 293 -186 q 301 -95 303 -124 q 285 -51 300 -67 l 265 -26 q 262 -21 264 -24 q 257 -17 260 -18 q 247 -4 254 -11 q 247 -5 247 -4 q 246 -6 247 -6 q 235 -15 242 -11 l 225 -19 q 224 -20 224 -19 q 222 -21 224 -21 q 222 -30 222 -24 q 219 -47 222 -36 l 208 -118 q 206 -136 207 -128 q 201 -153 204 -144 q 199 -176 200 -161 q 196 -185 197 -192 q 188 -146 186 -169 q 194 -101 189 -122 q 197 -67 199 -79 q 181 -60 196 -54 q 147 -54 161 -64 q 142 -49 144 -51 q 136 -44 139 -46 q 133 -38 135 -42 q 131 -37 131 -35 q 131 -74 129 -51 q 135 -119 133 -97 q 135 -151 136 -140 q 125 -150 133 -161 q 113 -112 113 -133 q 119 -67 114 -90 q 119 -24 124 -44 q 119 -26 118 -14 q 119 -54 119 -37 q 114 -79 118 -71 q 110 -69 110 -89 q 111 -40 111 -50 l 101 1 q 92 7 96 4 q 76 38 76 18 l 76 913 q 76 935 76 924 q 83 957 76 947 q 100 969 88 965 q 106 972 103 971 q 115 972 110 972 l 793 972 q 822 973 807 972 q 849 965 838 974 l 857 957 q 864 936 864 947 l 864 772 q 865 759 865 767 q 865 744 865 751 q 863 726 865 738 q 862 724 863 725 q 861 722 861 724 q 860 722 860 722 q 860 721 860 721 q 857 718 857 718 q 847 708 856 715 q 838 700 839 701 q 832 696 835 697 q 826 694 826 693 q 826 696 826 694 q 824 698 826 696 q 811 699 821 700 q 797 696 803 696 q 778 694 788 694 q 760 692 769 694 q 742 684 750 689 q 726 676 735 679 q 713 673 719 675 q 699 668 706 671 q 685 662 692 667 q 671 656 678 657 q 649 661 661 654 q 642 665 644 665 q 640 665 640 665 q 635 660 639 661 q 622 649 629 654 q 606 642 614 644 q 588 640 596 638 q 571 643 581 642 q 558 644 565 644 q 544 644 551 643 q 518 654 531 647 q 493 668 506 661 q 469 680 482 675 q 443 689 456 685 l 410 701 l 410 631 l 415 614 l 740 614 q 776 615 756 614 q 813 610 797 617 q 815 608 814 610 q 826 599 824 603 q 832 586 831 593 q 835 572 833 579 q 834 555 835 564 q 833 538 833 546 l 833 408 q 834 398 833 403 q 833 389 835 393 q 831 381 833 386 q 830 379 831 379 q 829 378 829 379 q 810 360 824 367 q 808 359 808 360 q 807 358 808 358 q 790 351 799 353 q 774 346 781 349 q 751 333 763 340 q 728 322 740 325 q 713 320 721 321 q 697 317 704 319 q 683 313 690 315 q 669 307 676 310 q 644 303 657 303 q 621 301 632 303 l 614 301 q 608 301 611 301 q 603 301 606 300 q 588 306 594 303 q 575 311 582 310 q 550 309 563 314 q 525 307 538 304 q 506 317 515 310 q 486 332 497 325 q 463 343 475 338 q 438 353 450 349 q 426 356 440 353 q 410 358 413 358 l 410 288 l 415 271 l 838 271 q 854 267 846 271 q 861 263 857 267 q 865 260 864 261 q 868 256 867 258 q 874 244 871 253 q 875 232 875 240 l 875 185 m 765 1268 q 765 1243 772 1257 q 755 1230 761 1236 q 743 1217 749 1224 q 713 1184 729 1200 q 682 1151 697 1168 l 639 1106 q 620 1083 629 1094 q 600 1063 611 1072 q 592 1056 594 1057 q 569 1038 582 1046 q 543 1031 556 1029 q 527 1036 535 1032 q 510 1039 519 1040 q 497 1034 503 1038 q 483 1029 490 1031 q 466 1032 474 1028 q 450 1038 458 1036 q 431 1036 440 1039 q 413 1035 422 1033 q 393 1038 403 1035 q 374 1042 383 1040 l 367 1042 q 363 1043 364 1042 q 322 1068 343 1044 l 186 1217 q 174 1228 181 1222 q 165 1240 168 1235 q 160 1256 160 1246 q 178 1278 160 1275 l 231 1278 q 265 1278 247 1278 q 299 1278 282 1279 q 314 1275 306 1276 q 331 1271 322 1274 q 356 1260 343 1265 q 381 1247 368 1254 l 464 1210 l 488 1221 l 503 1228 q 550 1250 526 1239 q 597 1271 574 1261 q 649 1279 621 1281 q 701 1278 676 1278 q 727 1279 714 1278 q 751 1278 740 1281 l 760 1274 q 765 1268 764 1272 z "}}}
